<ttFont>
    <TTGlyph name=".notdef" xMin="33" yMin="0" xMax="493" yMax="662">
      <contour>
        <pt x="33" y="662" on="1"/>
        <pt x="493" y="662" on="1"/>
        <pt x="493" y="0" on="1"/>
        <pt x="33" y="0" on="1"/>
      </contour>
      <contour>
        <pt x="235" y="331" on="1"/>
        <pt x="78" y="558" on="1"/>
        <pt x="78" y="104" on="1"/>
      </contour>
      <contour>
        <pt x="91" y="617" on="1"/>
        <pt x="263" y="370" on="1"/>
        <pt x="434" y="617" on="1"/>
      </contour>
      <contour>
        <pt x="263" y="292" on="1"/>
        <pt x="91" y="45" on="1"/>
        <pt x="434" y="45" on="1"/>
      </contour>
      <contour>
        <pt x="290" y="331" on="1"/>
        <pt x="448" y="104" on="1"/>
        <pt x="448" y="558" on="1"/>
      </contour>
    </TTGlyph>
    <TTGlyph name="A" xMin="3" yMin="0" xMax="659" yMax="662">
      <contour>
        <pt x="659" y="0" on="1"/>
        <pt x="576" y="0" on="1"/>
        <pt x="495" y="192" on="1"/>
        <pt x="167" y="192" on="1"/>
        <pt x="86" y="0" on="1"/>
        <pt x="3" y="0" on="1"/>
        <pt x="284" y="662" on="1"/>
        <pt x="378" y="662" on="1"/>
      </contour>
      <contour>
        <pt x="466" y="261" on="1"/>
        <pt x="331" y="584" on="1"/>
        <pt x="196" y="261" on="1"/>
      </contour>
    </TTGlyph>
    <TTGlyph name="AE" xMin="-3" yMin="0" xMax="983" yMax="662">
      <contour>
        <pt x="983" y="662" on="1"/>
        <pt x="983" y="590" on="1"/>
        <pt x="596" y="590" on="1"/>
        <pt x="596" y="368" on="1"/>
        <pt x="939" y="368" on="1"/>
        <pt x="939" y="295" on="1"/>
        <pt x="596" y="295" on="1"/>
        <pt x="596" y="72" on="1"/>
        <pt x="983" y="72" on="1"/>
        <pt x="983" y="0" on="1"/>
        <pt x="521" y="0" on="1"/>
        <pt x="521" y="185" on="1"/>
        <pt x="212" y="185" on="1"/>
        <pt x="87" y="0" on="1"/>
        <pt x="-3" y="0" on="1"/>
        <pt x="450" y="662" on="1"/>
      </contour>
      <contour>
        <pt x="521" y="590" on="1"/>
        <pt x="487" y="590" on="1"/>
        <pt x="259" y="254" on="1"/>
        <pt x="521" y="254" on="1"/>
      </contour>
    </TTGlyph>
    <TTGlyph name="Aacute" xMin="3" yMin="0" xMax="659" yMax="820">
      <component glyphName="A" x="0" y="0" flags="0x1204"/>
      <component glyphName="acute" x="181" y="145" flags="0x1004"/>
    </TTGlyph>
    <TTGlyph name="Acircumflex" xMin="3" yMin="0" xMax="659" yMax="820">
      <component glyphName="A" x="0" y="0" flags="0x1204"/>
      <component glyphName="circumflex" x="141" y="145" flags="0x1004"/>
    </TTGlyph>
    <TTGlyph name="Adieresis" xMin="3" yMin="0" xMax="659" yMax="803">
      <component glyphName="A" x="0" y="0" flags="0x1204"/>
      <component glyphName="dieresis" x="134" y="141" flags="0x1004"/>
    </TTGlyph>
    <TTGlyph name="Agrave" xMin="3" yMin="0" xMax="659" yMax="820">
      <component glyphName="A" x="0" y="0" flags="0x1204"/>
      <component glyphName="grave" x="132" y="145" flags="0x1004"/>
    </TTGlyph>
    <TTGlyph name="Aring" xMin="3" yMin="0" xMax="659" yMax="814">
      <contour>
        <pt x="279" y="651" on="1"/>
        <pt x="241" y="678" on="0"/>
        <pt x="241" y="762" on="0"/>
        <pt x="293" y="814" on="0"/>
        <pt x="330" y="814" on="1"/>
        <pt x="367" y="814" on="0"/>
        <pt x="394" y="788" on="1"/>
        <pt x="421" y="763" on="0"/>
        <pt x="421" y="677" on="0"/>
        <pt x="382" y="651" on="1"/>
        <pt x="659" y="0" on="1"/>
        <pt x="576" y="0" on="1"/>
        <pt x="495" y="192" on="1"/>
        <pt x="167" y="192" on="1"/>
        <pt x="86" y="0" on="1"/>
        <pt x="3" y="0" on="1"/>
      </contour>
      <contour>
        <pt x="466" y="261" on="1"/>
        <pt x="331" y="584" on="1"/>
        <pt x="196" y="261" on="1"/>
      </contour>
      <contour>
        <pt x="287" y="706" on="0"/>
        <pt x="313" y="680" on="0"/>
        <pt x="349" y="680" on="0"/>
        <pt x="375" y="706" on="0"/>
        <pt x="375" y="743" on="0"/>
        <pt x="349" y="769" on="0"/>
        <pt x="313" y="769" on="0"/>
        <pt x="287" y="743" on="0"/>
      </contour>
    </TTGlyph>
    <TTGlyph name="Atilde" xMin="3" yMin="0" xMax="659" yMax="813">
      <component glyphName="A" x="0" y="0" flags="0x1204"/>
      <component glyphName="tilde" x="107" y="145" flags="0x1004"/>
    </TTGlyph>
    <TTGlyph name="B" xMin="81" yMin="0" xMax="621" yMax="662">
      <contour>
        <pt x="587" y="487" on="1"/>
        <pt x="587" y="378" on="0"/>
        <pt x="498" y="338" on="1"/>
        <pt x="580" y="311" on="0"/>
        <pt x="610" y="239" on="1"/>
        <pt x="621" y="211" on="0"/>
        <pt x="621" y="174" on="1"/>
        <pt x="621" y="54" on="0"/>
        <pt x="494" y="14" on="1"/>
        <pt x="452" y="0" on="0"/>
        <pt x="395" y="0" on="1"/>
        <pt x="81" y="0" on="1"/>
        <pt x="81" y="662" on="1"/>
        <pt x="378" y="662" on="1"/>
        <pt x="485" y="662" on="0"/>
        <pt x="541" y="604" on="1"/>
        <pt x="587" y="558" on="0"/>
      </contour>
      <contour>
        <pt x="156" y="366" on="1"/>
        <pt x="378" y="366" on="1"/>
        <pt x="470" y="366" on="0"/>
        <pt x="501" y="429" on="1"/>
        <pt x="512" y="451" on="0"/>
        <pt x="512" y="502" on="0"/>
        <pt x="498" y="541" on="0"/>
        <pt x="483" y="556" on="1"/>
        <pt x="450" y="591" on="0"/>
        <pt x="386" y="591" on="1"/>
        <pt x="156" y="591" on="1"/>
      </contour>
      <contour>
        <pt x="403" y="71" on="1"/>
        <pt x="472" y="71" on="0"/>
        <pt x="546" y="128" on="0"/>
        <pt x="546" y="180" on="1"/>
        <pt x="546" y="230" on="0"/>
        <pt x="510" y="262" on="1"/>
        <pt x="470" y="298" on="0"/>
        <pt x="395" y="298" on="1"/>
        <pt x="156" y="298" on="1"/>
        <pt x="156" y="71" on="1"/>
      </contour>
    </TTGlyph>
    <TTGlyph name="C" xMin="39" yMin="-8" xMax="659" yMax="670">
      <contour>
        <pt x="376" y="65" on="1"/>
        <pt x="447" y="65" on="0"/>
        <pt x="554" y="137" on="0"/>
        <pt x="580" y="198" on="1"/>
        <pt x="659" y="198" on="1"/>
        <pt x="626" y="104" on="0"/>
        <pt x="550" y="50" on="1"/>
        <pt x="469" y="-8" on="0"/>
        <pt x="359" y="-8" on="1"/>
        <pt x="214" y="-8" on="0"/>
        <pt x="124" y="91" on="1"/>
        <pt x="39" y="186" on="0"/>
        <pt x="39" y="476" on="0"/>
        <pt x="124" y="571" on="1"/>
        <pt x="214" y="670" on="0"/>
        <pt x="359" y="670" on="1"/>
        <pt x="469" y="670" on="0"/>
        <pt x="550" y="612" on="1"/>
        <pt x="626" y="558" on="0"/>
        <pt x="659" y="464" on="1"/>
        <pt x="580" y="464" on="1"/>
        <pt x="554" y="525" on="0"/>
        <pt x="447" y="597" on="0"/>
        <pt x="305" y="597" on="0"/>
        <pt x="211" y="556" on="0"/>
        <pt x="179" y="520" on="1"/>
        <pt x="114" y="447" on="0"/>
        <pt x="114" y="331" on="1"/>
        <pt x="114" y="215" on="0"/>
        <pt x="179" y="142" on="1"/>
        <pt x="247" y="65" on="0"/>
      </contour>
    </TTGlyph>
    <TTGlyph name="Ccedilla" xMin="39" yMin="-210" xMax="659" yMax="670">
      <contour>
        <pt x="349" y="-54" on="1"/>
        <pt x="359" y="-52" on="0"/>
        <pt x="371" y="-52" on="1"/>
        <pt x="409" y="-52" on="0"/>
        <pt x="463" y="-93" on="0"/>
        <pt x="463" y="-129" on="1"/>
        <pt x="463" y="-188" on="0"/>
        <pt x="392" y="-205" on="1"/>
        <pt x="372" y="-210" on="0"/>
        <pt x="311" y="-210" on="0"/>
        <pt x="250" y="-185" on="0"/>
        <pt x="231" y="-169" on="1"/>
        <pt x="250" y="-136" on="1"/>
        <pt x="294" y="-166" on="0"/>
        <pt x="335" y="-166" on="1"/>
        <pt x="390" y="-166" on="0"/>
        <pt x="390" y="-130" on="1"/>
        <pt x="390" y="-115" on="0"/>
        <pt x="358" y="-97" on="0"/>
        <pt x="319" y="-97" on="0"/>
        <pt x="302" y="-102" on="1"/>
        <pt x="281" y="-85" on="1"/>
        <pt x="331" y="-7" on="1"/>
        <pt x="196" y="3" on="0"/>
        <pt x="116" y="100" on="1"/>
        <pt x="39" y="194" on="0"/>
        <pt x="39" y="331" on="1"/>
        <pt x="39" y="476" on="0"/>
        <pt x="124" y="571" on="1"/>
        <pt x="214" y="670" on="0"/>
        <pt x="359" y="670" on="1"/>
        <pt x="469" y="670" on="0"/>
        <pt x="550" y="612" on="1"/>
        <pt x="626" y="558" on="0"/>
        <pt x="659" y="464" on="1"/>
        <pt x="580" y="464" on="1"/>
        <pt x="554" y="525" on="0"/>
        <pt x="447" y="597" on="0"/>
        <pt x="305" y="597" on="0"/>
        <pt x="211" y="556" on="0"/>
        <pt x="179" y="520" on="1"/>
        <pt x="114" y="447" on="0"/>
        <pt x="114" y="331" on="1"/>
        <pt x="114" y="215" on="0"/>
        <pt x="179" y="142" on="1"/>
        <pt x="247" y="65" on="0"/>
        <pt x="365" y="65" on="1"/>
        <pt x="447" y="65" on="0"/>
        <pt x="554" y="137" on="0"/>
        <pt x="580" y="198" on="1"/>
        <pt x="659" y="198" on="1"/>
        <pt x="628" y="110" on="0"/>
        <pt x="482" y="-3" on="0"/>
        <pt x="375" y="-8" on="1"/>
      </contour>
    </TTGlyph>
    <TTGlyph name="D" xMin="81" yMin="0" xMax="664" yMax="662">
      <contour>
        <pt x="360" y="662" on="1"/>
        <pt x="419" y="662" on="0"/>
        <pt x="529" y="617" on="0"/>
        <pt x="571" y="574" on="1"/>
        <pt x="664" y="479" on="0"/>
        <pt x="664" y="331" on="1"/>
        <pt x="664" y="183" on="0"/>
        <pt x="571" y="88" on="1"/>
        <pt x="529" y="45" on="0"/>
        <pt x="419" y="0" on="0"/>
        <pt x="360" y="0" on="1"/>
        <pt x="81" y="0" on="1"/>
        <pt x="81" y="662" on="1"/>
      </contour>
      <contour>
        <pt x="357" y="71" on="1"/>
        <pt x="461" y="71" on="0"/>
        <pt x="526" y="148" on="1"/>
        <pt x="589" y="222" on="0"/>
        <pt x="589" y="331" on="1"/>
        <pt x="589" y="440" on="0"/>
        <pt x="526" y="514" on="1"/>
        <pt x="461" y="591" on="0"/>
        <pt x="357" y="591" on="1"/>
        <pt x="156" y="591" on="1"/>
        <pt x="156" y="71" on="1"/>
      </contour>
    </TTGlyph>
    <TTGlyph name="Delta" xMin="34" yMin="0" xMax="545" yMax="662">
      <contour>
        <pt x="314" y="662" on="1"/>
        <pt x="545" y="0" on="1"/>
        <pt x="34" y="0" on="1"/>
        <pt x="268" y="662" on="1"/>
      </contour>
      <contour>
        <pt x="107" y="71" on="1"/>
        <pt x="439" y="71" on="1"/>
        <pt x="278" y="559" on="1"/>
      </contour>
    </TTGlyph>
    <TTGlyph name="E" xMin="81" yMin="0" xMax="568" yMax="662">
      <contour>
        <pt x="156" y="590" on="1"/>
        <pt x="156" y="368" on="1"/>
        <pt x="524" y="368" on="1"/>
        <pt x="524" y="295" on="1"/>
        <pt x="156" y="295" on="1"/>
        <pt x="156" y="72" on="1"/>
        <pt x="568" y="72" on="1"/>
        <pt x="568" y="0" on="1"/>
        <pt x="81" y="0" on="1"/>
        <pt x="81" y="662" on="1"/>
        <pt x="568" y="662" on="1"/>
        <pt x="568" y="590" on="1"/>
      </contour>
    </TTGlyph>
    <TTGlyph name="Eacute" xMin="81" yMin="0" xMax="568" yMax="820">
      <component glyphName="E" x="0" y="0" flags="0x1204"/>
      <component glyphName="acute" x="181" y="145" flags="0x1004"/>
    </TTGlyph>
    <TTGlyph name="Ecircumflex" xMin="81" yMin="0" xMax="568" yMax="820">
      <component glyphName="E" x="0" y="0" flags="0x1204"/>
      <component glyphName="circumflex" x="141" y="145" flags="0x1004"/>
    </TTGlyph>
    <TTGlyph name="Edieresis" xMin="81" yMin="0" xMax="568" yMax="803">
      <component glyphName="E" x="0" y="0" flags="0x1204"/>
      <component glyphName="dieresis" x="134" y="141" flags="0x1004"/>
    </TTGlyph>
    <TTGlyph name="Egrave" xMin="81" yMin="0" xMax="568" yMax="820">
      <component glyphName="E" x="0" y="0" flags="0x1204"/>
      <component glyphName="grave" x="124" y="145" flags="0x1004"/>
    </TTGlyph>
    <TTGlyph name="Eth" xMin="7" yMin="0" xMax="672" yMax="662">
      <contour>
        <pt x="368" y="662" on="1"/>
        <pt x="427" y="662" on="0"/>
        <pt x="537" y="617" on="0"/>
        <pt x="579" y="574" on="1"/>
        <pt x="672" y="479" on="0"/>
        <pt x="672" y="331" on="1"/>
        <pt x="672" y="183" on="0"/>
        <pt x="579" y="88" on="1"/>
        <pt x="537" y="45" on="0"/>
        <pt x="427" y="0" on="0"/>
        <pt x="368" y="0" on="1"/>
        <pt x="89" y="0" on="1"/>
        <pt x="89" y="298" on="1"/>
        <pt x="7" y="298" on="1"/>
        <pt x="7" y="363" on="1"/>
        <pt x="89" y="363" on="1"/>
        <pt x="89" y="662" on="1"/>
      </contour>
      <contour>
        <pt x="365" y="71" on="1"/>
        <pt x="469" y="71" on="0"/>
        <pt x="534" y="148" on="1"/>
        <pt x="597" y="222" on="0"/>
        <pt x="597" y="331" on="1"/>
        <pt x="597" y="440" on="0"/>
        <pt x="534" y="514" on="1"/>
        <pt x="469" y="591" on="0"/>
        <pt x="365" y="591" on="1"/>
        <pt x="164" y="591" on="1"/>
        <pt x="164" y="363" on="1"/>
        <pt x="355" y="363" on="1"/>
        <pt x="355" y="298" on="1"/>
        <pt x="164" y="298" on="1"/>
        <pt x="164" y="71" on="1"/>
      </contour>
    </TTGlyph>
    <TTGlyph name="Euro" xMin="42" yMin="-8" xMax="566" yMax="670">
      <contour>
        <pt x="415" y="65" on="1"/>
        <pt x="493" y="65" on="0"/>
        <pt x="552" y="108" on="1"/>
        <pt x="566" y="36" on="1"/>
        <pt x="499" y="-8" on="0"/>
        <pt x="404" y="-8" on="1"/>
        <pt x="283" y="-8" on="0"/>
        <pt x="212" y="68" on="1"/>
        <pt x="148" y="137" on="0"/>
        <pt x="131" y="252" on="1"/>
        <pt x="42" y="252" on="1"/>
        <pt x="64" y="306" on="1"/>
        <pt x="126" y="306" on="1"/>
        <pt x="125" y="313" on="0"/>
        <pt x="125" y="325" on="0"/>
        <pt x="125" y="353" on="0"/>
        <pt x="127" y="375" on="1"/>
        <pt x="42" y="375" on="1"/>
        <pt x="64" y="429" on="1"/>
        <pt x="134" y="429" on="1"/>
        <pt x="168" y="598" on="0"/>
        <pt x="298" y="651" on="1"/>
        <pt x="344" y="670" on="0"/>
        <pt x="398" y="670" on="1"/>
        <pt x="490" y="670" on="0"/>
        <pt x="555" y="633" on="1"/>
        <pt x="528" y="565" on="1"/>
        <pt x="486" y="597" on="0"/>
        <pt x="408" y="597" on="1"/>
        <pt x="281" y="597" on="0"/>
        <pt x="232" y="495" on="1"/>
        <pt x="217" y="464" on="0"/>
        <pt x="210" y="429" on="1"/>
        <pt x="474" y="429" on="1"/>
        <pt x="453" y="375" on="1"/>
        <pt x="202" y="375" on="1"/>
        <pt x="200" y="353" on="0"/>
        <pt x="200" y="339" on="1"/>
        <pt x="200" y="319" on="1"/>
        <pt x="200" y="313" on="0"/>
        <pt x="201" y="306" on="1"/>
        <pt x="426" y="306" on="1"/>
        <pt x="405" y="252" on="1"/>
        <pt x="206" y="252" on="1"/>
        <pt x="240" y="65" on="0"/>
      </contour>
    </TTGlyph>
    <TTGlyph name="F" xMin="81" yMin="0" xMax="559" yMax="662">
      <contour>
        <pt x="156" y="590" on="1"/>
        <pt x="156" y="360" on="1"/>
        <pt x="515" y="360" on="1"/>
        <pt x="515" y="287" on="1"/>
        <pt x="156" y="287" on="1"/>
        <pt x="156" y="0" on="1"/>
        <pt x="81" y="0" on="1"/>
        <pt x="81" y="662" on="1"/>
        <pt x="559" y="662" on="1"/>
        <pt x="559" y="590" on="1"/>
      </contour>
    </TTGlyph>
    <TTGlyph name="G" xMin="39" yMin="-8" xMax="672" yMax="670">
      <contour>
        <pt x="170" y="617" on="0"/>
        <pt x="290" y="670" on="0"/>
        <pt x="418" y="670" on="0"/>
        <pt x="512" y="642" on="0"/>
        <pt x="550" y="618" on="1"/>
        <pt x="629" y="567" on="0"/>
        <pt x="666" y="482" on="1"/>
        <pt x="584" y="482" on="1"/>
        <pt x="554" y="536" on="0"/>
        <pt x="447" y="597" on="0"/>
        <pt x="311" y="597" on="0"/>
        <pt x="215" y="556" on="0"/>
        <pt x="182" y="520" on="1"/>
        <pt x="114" y="446" on="0"/>
        <pt x="114" y="331" on="1"/>
        <pt x="114" y="215" on="0"/>
        <pt x="181" y="142" on="1"/>
        <pt x="252" y="65" on="0"/>
        <pt x="369" y="65" on="1"/>
        <pt x="463" y="65" on="0"/>
        <pt x="531" y="123" on="1"/>
        <pt x="603" y="184" on="0"/>
        <pt x="603" y="284" on="1"/>
        <pt x="361" y="284" on="1"/>
        <pt x="361" y="352" on="1"/>
        <pt x="672" y="352" on="1"/>
        <pt x="672" y="0" on="1"/>
        <pt x="603" y="0" on="1"/>
        <pt x="603" y="117" on="1"/>
        <pt x="546" y="31" on="0"/>
        <pt x="445" y="2" on="1"/>
        <pt x="408" y="-8" on="0"/>
        <pt x="287" y="-8" on="0"/>
        <pt x="167" y="45" on="0"/>
        <pt x="125" y="91" on="1"/>
        <pt x="39" y="185" on="0"/>
        <pt x="39" y="331" on="1"/>
        <pt x="39" y="475" on="0"/>
        <pt x="128" y="571" on="1"/>
      </contour>
    </TTGlyph>
    <TTGlyph name="H" xMin="81" yMin="0" xMax="616" yMax="662">
      <contour>
        <pt x="616" y="662" on="1"/>
        <pt x="616" y="0" on="1"/>
        <pt x="541" y="0" on="1"/>
        <pt x="541" y="295" on="1"/>
        <pt x="156" y="295" on="1"/>
        <pt x="156" y="0" on="1"/>
        <pt x="81" y="0" on="1"/>
        <pt x="81" y="662" on="1"/>
        <pt x="156" y="662" on="1"/>
        <pt x="156" y="368" on="1"/>
        <pt x="541" y="368" on="1"/>
        <pt x="541" y="662" on="1"/>
      </contour>
    </TTGlyph>
    <TTGlyph name="I" xMin="81" yMin="0" xMax="156" yMax="662">
      <contour>
        <pt x="156" y="0" on="1"/>
        <pt x="81" y="0" on="1"/>
        <pt x="81" y="662" on="1"/>
        <pt x="156" y="662" on="1"/>
      </contour>
    </TTGlyph>
    <TTGlyph name="Iacute" xMin="51" yMin="0" xMax="219" yMax="820">
      <component glyphName="I" x="0" y="0" flags="0x1204"/>
      <component glyphName="acute" x="-35" y="145" flags="0x1004"/>
    </TTGlyph>
    <TTGlyph name="Icircumflex" xMin="-22" yMin="0" xMax="260" yMax="820">
      <component glyphName="I" x="0" y="0" flags="0x1204"/>
      <component glyphName="circumflex" x="-71" y="145" flags="0x1004"/>
    </TTGlyph>
    <TTGlyph name="Idieresis" xMin="-4" yMin="0" xMax="242" yMax="803">
      <component glyphName="I" x="0" y="0" flags="0x1204"/>
      <component glyphName="dieresis" x="-78" y="141" flags="0x1004"/>
    </TTGlyph>
    <TTGlyph name="Igrave" xMin="17" yMin="0" xMax="185" yMax="820">
      <component glyphName="I" x="0" y="0" flags="0x1204"/>
      <component glyphName="grave" x="-76" y="145" flags="0x1004"/>
    </TTGlyph>
    <TTGlyph name="J" xMin="15" yMin="-8" xMax="452" yMax="662">
      <contour>
        <pt x="452" y="662" on="1"/>
        <pt x="452" y="219" on="1"/>
        <pt x="452" y="123" on="0"/>
        <pt x="404" y="62" on="1"/>
        <pt x="348" y="-8" on="0"/>
        <pt x="236" y="-8" on="1"/>
        <pt x="135" y="-8" on="0"/>
        <pt x="75" y="50" on="1"/>
        <pt x="22" y="103" on="0"/>
        <pt x="15" y="177" on="1"/>
        <pt x="93" y="177" on="1"/>
        <pt x="100" y="133" on="0"/>
        <pt x="134" y="102" on="1"/>
        <pt x="174" y="65" on="0"/>
        <pt x="240" y="65" on="1"/>
        <pt x="320" y="65" on="0"/>
        <pt x="354" y="118" on="1"/>
        <pt x="377" y="155" on="0"/>
        <pt x="377" y="222" on="1"/>
        <pt x="377" y="662" on="1"/>
      </contour>
    </TTGlyph>
    <TTGlyph name="K" xMin="81" yMin="0" xMax="646" yMax="662">
      <contour>
        <pt x="348" y="396" on="1"/>
        <pt x="646" y="0" on="1"/>
        <pt x="552" y="0" on="1"/>
        <pt x="293" y="345" on="1"/>
        <pt x="156" y="217" on="1"/>
        <pt x="156" y="0" on="1"/>
        <pt x="81" y="0" on="1"/>
        <pt x="81" y="662" on="1"/>
        <pt x="156" y="662" on="1"/>
        <pt x="156" y="317" on="1"/>
        <pt x="524" y="662" on="1"/>
        <pt x="630" y="662" on="1"/>
      </contour>
    </TTGlyph>
    <TTGlyph name="L" xMin="81" yMin="0" xMax="517" yMax="662">
      <contour>
        <pt x="156" y="662" on="1"/>
        <pt x="156" y="72" on="1"/>
        <pt x="517" y="72" on="1"/>
        <pt x="517" y="0" on="1"/>
        <pt x="81" y="0" on="1"/>
        <pt x="81" y="662" on="1"/>
      </contour>
    </TTGlyph>
    <TTGlyph name="M" xMin="81" yMin="0" xMax="725" yMax="662">
      <contour>
        <pt x="725" y="662" on="1"/>
        <pt x="725" y="0" on="1"/>
        <pt x="650" y="0" on="1"/>
        <pt x="650" y="548" on="1"/>
        <pt x="405" y="233" on="1"/>
        <pt x="156" y="548" on="1"/>
        <pt x="156" y="0" on="1"/>
        <pt x="81" y="0" on="1"/>
        <pt x="81" y="662" on="1"/>
        <pt x="168" y="662" on="1"/>
        <pt x="405" y="348" on="1"/>
        <pt x="638" y="662" on="1"/>
      </contour>
    </TTGlyph>
    <TTGlyph name="N" xMin="81" yMin="0" xMax="652" yMax="662">
      <contour>
        <pt x="652" y="662" on="1"/>
        <pt x="652" y="0" on="1"/>
        <pt x="565" y="0" on="1"/>
        <pt x="156" y="559" on="1"/>
        <pt x="156" y="0" on="1"/>
        <pt x="81" y="0" on="1"/>
        <pt x="81" y="662" on="1"/>
        <pt x="168" y="662" on="1"/>
        <pt x="577" y="105" on="1"/>
        <pt x="577" y="662" on="1"/>
      </contour>
    </TTGlyph>
    <TTGlyph name="Ntilde" xMin="81" yMin="0" xMax="652" yMax="813">
      <component glyphName="N" x="0" y="0" flags="0x1204"/>
      <component glyphName="tilde" x="143" y="145" flags="0x1004"/>
    </TTGlyph>
    <TTGlyph name="O" xMin="39" yMin="-8" xMax="711" yMax="670">
      <contour>
        <pt x="375" y="670" on="1"/>
        <pt x="523" y="670" on="0"/>
        <pt x="618" y="571" on="1"/>
        <pt x="711" y="475" on="0"/>
        <pt x="711" y="187" on="0"/>
        <pt x="618" y="91" on="1"/>
        <pt x="523" y="-8" on="0"/>
        <pt x="375" y="-8" on="1"/>
        <pt x="227" y="-8" on="0"/>
        <pt x="132" y="91" on="1"/>
        <pt x="39" y="187" on="0"/>
        <pt x="39" y="475" on="0"/>
        <pt x="132" y="571" on="1"/>
        <pt x="227" y="670" on="0"/>
      </contour>
      <contour>
        <pt x="375" y="65" on="1"/>
        <pt x="493" y="65" on="0"/>
        <pt x="566" y="142" on="1"/>
        <pt x="636" y="216" on="0"/>
        <pt x="636" y="331" on="1"/>
        <pt x="636" y="446" on="0"/>
        <pt x="566" y="520" on="1"/>
        <pt x="493" y="597" on="0"/>
        <pt x="375" y="597" on="1"/>
        <pt x="257" y="597" on="0"/>
        <pt x="184" y="520" on="1"/>
        <pt x="114" y="446" on="0"/>
        <pt x="114" y="331" on="1"/>
        <pt x="114" y="216" on="0"/>
        <pt x="184" y="142" on="1"/>
        <pt x="257" y="65" on="0"/>
      </contour>
    </TTGlyph>
    <TTGlyph name="OE" xMin="39" yMin="-8" xMax="1104" yMax="670">
      <contour>
        <pt x="612" y="553" on="1"/>
        <pt x="612" y="662" on="1"/>
        <pt x="1104" y="662" on="1"/>
        <pt x="1104" y="590" on="1"/>
        <pt x="687" y="590" on="1"/>
        <pt x="687" y="367" on="1"/>
        <pt x="1060" y="367" on="1"/>
        <pt x="1060" y="294" on="1"/>
        <pt x="687" y="294" on="1"/>
        <pt x="687" y="72" on="1"/>
        <pt x="1104" y="72" on="1"/>
        <pt x="1104" y="0" on="1"/>
        <pt x="612" y="0" on="1"/>
        <pt x="612" y="108" on="1"/>
        <pt x="524" y="-8" on="0"/>
        <pt x="365" y="-8" on="1"/>
        <pt x="218" y="-8" on="0"/>
        <pt x="126" y="91" on="1"/>
        <pt x="39" y="186" on="0"/>
        <pt x="39" y="476" on="0"/>
        <pt x="126" y="571" on="1"/>
        <pt x="218" y="670" on="0"/>
        <pt x="523" y="670" on="0"/>
      </contour>
      <contour>
        <pt x="365" y="65" on="1"/>
        <pt x="483" y="65" on="0"/>
        <pt x="551" y="142" on="1"/>
        <pt x="616" y="215" on="0"/>
        <pt x="616" y="331" on="1"/>
        <pt x="616" y="447" on="0"/>
        <pt x="551" y="520" on="1"/>
        <pt x="483" y="597" on="0"/>
        <pt x="365" y="597" on="1"/>
        <pt x="247" y="597" on="0"/>
        <pt x="179" y="520" on="1"/>
        <pt x="114" y="447" on="0"/>
        <pt x="114" y="331" on="1"/>
        <pt x="114" y="215" on="0"/>
        <pt x="179" y="142" on="1"/>
        <pt x="247" y="65" on="0"/>
      </contour>
    </TTGlyph>
    <TTGlyph name="Oacute" xMin="39" yMin="-8" xMax="711" yMax="820">
      <component glyphName="O" x="0" y="0" flags="0x1204"/>
      <component glyphName="acute" x="216" y="145" flags="0x1004"/>
    </TTGlyph>
    <TTGlyph name="Ocircumflex" xMin="39" yMin="-8" xMax="711" yMax="820">
      <component glyphName="O" x="0" y="0" flags="0x1204"/>
      <component glyphName="circumflex" x="185" y="145" flags="0x1004"/>
    </TTGlyph>
    <TTGlyph name="Odieresis" xMin="39" yMin="-8" xMax="711" yMax="803">
      <component glyphName="O" x="0" y="0" flags="0x1204"/>
      <component glyphName="dieresis" x="178" y="141" flags="0x1004"/>
    </TTGlyph>
    <TTGlyph name="Ograve" xMin="39" yMin="-8" xMax="711" yMax="820">
      <component glyphName="O" x="0" y="0" flags="0x1204"/>
      <component glyphName="grave" x="183" y="145" flags="0x1004"/>
    </TTGlyph>
    <TTGlyph name="Omega" xMin="45" yMin="0" xMax="633" yMax="670">
      <contour>
        <pt x="115" y="343" on="1"/>
        <pt x="115" y="155" on="0"/>
        <pt x="280" y="59" on="1"/>
        <pt x="280" y="0" on="1"/>
        <pt x="54" y="0" on="1"/>
        <pt x="54" y="59" on="1"/>
        <pt x="197" y="59" on="1"/>
        <pt x="94" y="133" on="0"/>
        <pt x="58" y="258" on="1"/>
        <pt x="45" y="302" on="0"/>
        <pt x="45" y="417" on="0"/>
        <pt x="87" y="532" on="0"/>
        <pt x="126" y="576" on="1"/>
        <pt x="211" y="670" on="0"/>
        <pt x="339" y="670" on="1"/>
        <pt x="467" y="670" on="0"/>
        <pt x="552" y="576" on="1"/>
        <pt x="633" y="485" on="0"/>
        <pt x="633" y="353" on="1"/>
        <pt x="633" y="259" on="0"/>
        <pt x="586" y="176" on="1"/>
        <pt x="546" y="105" on="0"/>
        <pt x="480" y="59" on="1"/>
        <pt x="624" y="59" on="1"/>
        <pt x="624" y="0" on="1"/>
        <pt x="398" y="0" on="1"/>
        <pt x="398" y="59" on="1"/>
        <pt x="563" y="155" on="0"/>
        <pt x="563" y="343" on="1"/>
        <pt x="563" y="445" on="0"/>
        <pt x="504" y="519" on="1"/>
        <pt x="441" y="599" on="0"/>
        <pt x="339" y="599" on="1"/>
        <pt x="236" y="599" on="0"/>
        <pt x="172" y="519" on="1"/>
        <pt x="115" y="446" on="0"/>
      </contour>
    </TTGlyph>
    <TTGlyph name="Oslash" xMin="39" yMin="-17" xMax="711" yMax="680">
      <contour>
        <pt x="375" y="670" on="1"/>
        <pt x="496" y="670" on="0"/>
        <pt x="585" y="602" on="1"/>
        <pt x="652" y="680" on="1"/>
        <pt x="684" y="652" on="1"/>
        <pt x="616" y="574" on="1"/>
        <pt x="711" y="479" on="0"/>
        <pt x="711" y="331" on="1"/>
        <pt x="711" y="187" on="0"/>
        <pt x="618" y="91" on="1"/>
        <pt x="523" y="-8" on="0"/>
        <pt x="375" y="-8" on="1"/>
        <pt x="257" y="-8" on="0"/>
        <pt x="166" y="61" on="1"/>
        <pt x="98" y="-17" on="1"/>
        <pt x="67" y="11" on="1"/>
        <pt x="135" y="88" on="1"/>
        <pt x="39" y="186" on="0"/>
        <pt x="39" y="331" on="1"/>
        <pt x="39" y="475" on="0"/>
        <pt x="132" y="571" on="1"/>
        <pt x="227" y="670" on="0"/>
      </contour>
      <contour>
        <pt x="536" y="547" on="1"/>
        <pt x="469" y="597" on="0"/>
        <pt x="375" y="597" on="1"/>
        <pt x="257" y="597" on="0"/>
        <pt x="184" y="520" on="1"/>
        <pt x="114" y="446" on="0"/>
        <pt x="114" y="331" on="1"/>
        <pt x="114" y="217" on="0"/>
        <pt x="183" y="144" on="1"/>
      </contour>
      <contour>
        <pt x="214" y="116" on="1"/>
        <pt x="282" y="65" on="0"/>
        <pt x="375" y="65" on="1"/>
        <pt x="493" y="65" on="0"/>
        <pt x="566" y="142" on="1"/>
        <pt x="636" y="216" on="0"/>
        <pt x="636" y="331" on="1"/>
        <pt x="636" y="445" on="0"/>
        <pt x="568" y="519" on="1"/>
      </contour>
    </TTGlyph>
    <TTGlyph name="Oslashacute" xMin="39" yMin="-17" xMax="711" yMax="820">
      <component glyphName="Oslash" x="0" y="0" flags="0x1204"/>
      <component glyphName="acute" x="216" y="145" flags="0x1004"/>
    </TTGlyph>
    <TTGlyph name="Otilde" xMin="39" yMin="-8" xMax="711" yMax="813">
      <component glyphName="O" x="0" y="0" flags="0x1204"/>
      <component glyphName="tilde" x="149" y="145" flags="0x1004"/>
    </TTGlyph>
    <TTGlyph name="P" xMin="81" yMin="0" xMax="607" yMax="662">
      <contour>
        <pt x="156" y="0" on="1"/>
        <pt x="81" y="0" on="1"/>
        <pt x="81" y="662" on="1"/>
        <pt x="379" y="662" on="1"/>
        <pt x="484" y="662" on="0"/>
        <pt x="546" y="604" on="1"/>
        <pt x="607" y="546" on="0"/>
        <pt x="607" y="449" on="1"/>
        <pt x="607" y="351" on="0"/>
        <pt x="484" y="236" on="0"/>
        <pt x="379" y="236" on="1"/>
        <pt x="156" y="236" on="1"/>
      </contour>
      <contour>
        <pt x="156" y="591" on="1"/>
        <pt x="156" y="306" on="1"/>
        <pt x="374" y="306" on="1"/>
        <pt x="452" y="306" on="0"/>
        <pt x="532" y="382" on="0"/>
        <pt x="532" y="515" on="0"/>
        <pt x="452" y="591" on="0"/>
        <pt x="374" y="591" on="1"/>
      </contour>
    </TTGlyph>
    <TTGlyph name="Q" xMin="39" yMin="-157" xMax="758" yMax="670">
      <contour>
        <pt x="597" y="-93" on="1"/>
        <pt x="662" y="-93" on="0"/>
        <pt x="718" y="-48" on="1"/>
        <pt x="758" y="-102" on="1"/>
        <pt x="689" y="-157" on="0"/>
        <pt x="596" y="-157" on="1"/>
        <pt x="522" y="-157" on="0"/>
        <pt x="458" y="-116" on="1"/>
        <pt x="394" y="-75" on="0"/>
        <pt x="361" y="-7" on="1"/>
        <pt x="218" y="-1" on="0"/>
        <pt x="128" y="96" on="1"/>
        <pt x="39" y="190" on="0"/>
        <pt x="39" y="331" on="1"/>
        <pt x="39" y="475" on="0"/>
        <pt x="132" y="571" on="1"/>
        <pt x="227" y="670" on="0"/>
        <pt x="375" y="670" on="1"/>
        <pt x="523" y="670" on="0"/>
        <pt x="618" y="571" on="1"/>
        <pt x="711" y="475" on="0"/>
        <pt x="711" y="331" on="1"/>
        <pt x="711" y="205" on="0"/>
        <pt x="635" y="112" on="1"/>
        <pt x="559" y="18" on="0"/>
        <pt x="437" y="-2" on="1"/>
        <pt x="466" y="-60" on="0"/>
        <pt x="536" y="-84" on="1"/>
        <pt x="562" y="-93" on="0"/>
      </contour>
      <contour>
        <pt x="375" y="65" on="1"/>
        <pt x="493" y="65" on="0"/>
        <pt x="566" y="142" on="1"/>
        <pt x="636" y="216" on="0"/>
        <pt x="636" y="331" on="1"/>
        <pt x="636" y="446" on="0"/>
        <pt x="566" y="520" on="1"/>
        <pt x="493" y="597" on="0"/>
        <pt x="375" y="597" on="1"/>
        <pt x="257" y="597" on="0"/>
        <pt x="184" y="520" on="1"/>
        <pt x="114" y="446" on="0"/>
        <pt x="114" y="331" on="1"/>
        <pt x="114" y="216" on="0"/>
        <pt x="184" y="142" on="1"/>
        <pt x="257" y="65" on="0"/>
      </contour>
    </TTGlyph>
    <TTGlyph name="R" xMin="81" yMin="0" xMax="635" yMax="662">
      <contour>
        <pt x="156" y="0" on="1"/>
        <pt x="81" y="0" on="1"/>
        <pt x="81" y="662" on="1"/>
        <pt x="398" y="662" on="1"/>
        <pt x="499" y="662" on="0"/>
        <pt x="560" y="606" on="1"/>
        <pt x="621" y="551" on="0"/>
        <pt x="621" y="455" on="1"/>
        <pt x="621" y="331" on="0"/>
        <pt x="518" y="286" on="1"/>
        <pt x="489" y="273" on="0"/>
        <pt x="461" y="267" on="1"/>
        <pt x="635" y="0" on="1"/>
        <pt x="546" y="0" on="1"/>
        <pt x="386" y="254" on="1"/>
        <pt x="156" y="254" on="1"/>
      </contour>
      <contour>
        <pt x="156" y="325" on="1"/>
        <pt x="385" y="325" on="1"/>
        <pt x="491" y="325" on="0"/>
        <pt x="531" y="391" on="1"/>
        <pt x="546" y="416" on="0"/>
        <pt x="546" y="455" on="1"/>
        <pt x="546" y="518" on="0"/>
        <pt x="460" y="591" on="0"/>
        <pt x="389" y="591" on="1"/>
        <pt x="156" y="591" on="1"/>
      </contour>
    </TTGlyph>
    <TTGlyph name="S" xMin="32" yMin="-8" xMax="580" yMax="670">
      <contour>
        <pt x="138" y="544" on="0"/>
        <pt x="125" y="504" on="0"/>
        <pt x="125" y="459" on="0"/>
        <pt x="164" y="421" on="0"/>
        <pt x="228" y="395" on="0"/>
        <pt x="310" y="375" on="0"/>
        <pt x="395" y="354" on="0"/>
        <pt x="477" y="327" on="0"/>
        <pt x="509" y="306" on="1"/>
        <pt x="580" y="261" on="0"/>
        <pt x="580" y="183" on="1"/>
        <pt x="580" y="90" on="0"/>
        <pt x="441" y="-8" on="0"/>
        <pt x="318" y="-8" on="1"/>
        <pt x="179" y="-8" on="0"/>
        <pt x="106" y="50" on="1"/>
        <pt x="41" y="102" on="0"/>
        <pt x="32" y="198" on="1"/>
        <pt x="110" y="198" on="1"/>
        <pt x="114" y="130" on="0"/>
        <pt x="176" y="94" on="1"/>
        <pt x="230" y="63" on="0"/>
        <pt x="319" y="63" on="1"/>
        <pt x="505" y="63" on="0"/>
        <pt x="505" y="180" on="1"/>
        <pt x="505" y="220" on="0"/>
        <pt x="438" y="266" on="0"/>
        <pt x="337" y="296" on="0"/>
        <pt x="220" y="322" on="0"/>
        <pt x="119" y="363" on="0"/>
        <pt x="52" y="430" on="0"/>
        <pt x="52" y="487" on="1"/>
        <pt x="52" y="568" on="0"/>
        <pt x="176" y="670" on="0"/>
        <pt x="301" y="670" on="1"/>
        <pt x="427" y="670" on="0"/>
        <pt x="496" y="612" on="1"/>
        <pt x="559" y="561" on="0"/>
        <pt x="563" y="481" on="1"/>
        <pt x="486" y="481" on="1"/>
        <pt x="476" y="563" on="0"/>
        <pt x="380" y="590" on="1"/>
        <pt x="346" y="600" on="0"/>
        <pt x="245" y="600" on="0"/>
        <pt x="176" y="577" on="0"/>
      </contour>
    </TTGlyph>
    <TTGlyph name="T" xMin="14" yMin="0" xMax="551" yMax="662">
      <contour>
        <pt x="551" y="590" on="1"/>
        <pt x="320" y="590" on="1"/>
        <pt x="320" y="0" on="1"/>
        <pt x="245" y="0" on="1"/>
        <pt x="245" y="590" on="1"/>
        <pt x="14" y="590" on="1"/>
        <pt x="14" y="662" on="1"/>
        <pt x="551" y="662" on="1"/>
      </contour>
    </TTGlyph>
    <TTGlyph name="Thorn" xMin="81" yMin="0" xMax="607" yMax="662">
      <contour>
        <pt x="156" y="0" on="1"/>
        <pt x="81" y="0" on="1"/>
        <pt x="81" y="662" on="1"/>
        <pt x="156" y="662" on="1"/>
        <pt x="156" y="565" on="1"/>
        <pt x="379" y="565" on="1"/>
        <pt x="484" y="565" on="0"/>
        <pt x="546" y="507" on="1"/>
        <pt x="607" y="449" on="0"/>
        <pt x="607" y="352" on="1"/>
        <pt x="607" y="254" on="0"/>
        <pt x="484" y="139" on="0"/>
        <pt x="379" y="139" on="1"/>
        <pt x="156" y="139" on="1"/>
      </contour>
      <contour>
        <pt x="156" y="494" on="1"/>
        <pt x="156" y="209" on="1"/>
        <pt x="374" y="209" on="1"/>
        <pt x="452" y="209" on="0"/>
        <pt x="532" y="285" on="0"/>
        <pt x="532" y="418" on="0"/>
        <pt x="452" y="494" on="0"/>
        <pt x="374" y="494" on="1"/>
      </contour>
    </TTGlyph>
    <TTGlyph name="U" xMin="73" yMin="-8" xMax="636" yMax="662">
      <contour>
        <pt x="636" y="662" on="1"/>
        <pt x="636" y="285" on="1"/>
        <pt x="636" y="153" on="0"/>
        <pt x="479" y="-8" on="0"/>
        <pt x="354" y="-8" on="1"/>
        <pt x="230" y="-8" on="0"/>
        <pt x="73" y="153" on="0"/>
        <pt x="73" y="285" on="1"/>
        <pt x="73" y="662" on="1"/>
        <pt x="148" y="662" on="1"/>
        <pt x="148" y="283" on="1"/>
        <pt x="148" y="176" on="0"/>
        <pt x="212" y="116" on="1"/>
        <pt x="267" y="65" on="0"/>
        <pt x="354" y="65" on="1"/>
        <pt x="441" y="65" on="0"/>
        <pt x="497" y="116" on="1"/>
        <pt x="561" y="175" on="0"/>
        <pt x="561" y="283" on="1"/>
        <pt x="561" y="662" on="1"/>
      </contour>
    </TTGlyph>
    <TTGlyph name="Uacute" xMin="73" yMin="-8" xMax="636" yMax="820">
      <component glyphName="U" x="0" y="0" flags="0x1204"/>
      <component glyphName="acute" x="208" y="145" flags="0x1004"/>
    </TTGlyph>
    <TTGlyph name="Ucircumflex" xMin="73" yMin="-8" xMax="636" yMax="820">
      <component glyphName="U" x="0" y="0" flags="0x1204"/>
      <component glyphName="circumflex" x="164" y="145" flags="0x1004"/>
    </TTGlyph>
    <TTGlyph name="Udieresis" xMin="73" yMin="-8" xMax="636" yMax="803">
      <component glyphName="U" x="0" y="0" flags="0x1204"/>
      <component glyphName="dieresis" x="157" y="141" flags="0x1004"/>
    </TTGlyph>
    <TTGlyph name="Ugrave" xMin="73" yMin="-8" xMax="636" yMax="820">
      <component glyphName="U" x="0" y="0" flags="0x1204"/>
      <component glyphName="grave" x="151" y="145" flags="0x1004"/>
    </TTGlyph>
    <TTGlyph name="V" xMin="3" yMin="0" xMax="625" yMax="662">
      <contour>
        <pt x="625" y="662" on="1"/>
        <pt x="357" y="0" on="1"/>
        <pt x="271" y="0" on="1"/>
        <pt x="3" y="662" on="1"/>
        <pt x="85" y="662" on="1"/>
        <pt x="314" y="85" on="1"/>
        <pt x="543" y="662" on="1"/>
      </contour>
    </TTGlyph>
    <TTGlyph name="W" xMin="9" yMin="0" xMax="949" yMax="662">
      <contour>
        <pt x="300" y="0" on="1"/>
        <pt x="215" y="0" on="1"/>
        <pt x="9" y="662" on="1"/>
        <pt x="88" y="662" on="1"/>
        <pt x="258" y="106" on="1"/>
        <pt x="436" y="662" on="1"/>
        <pt x="522" y="662" on="1"/>
        <pt x="700" y="106" on="1"/>
        <pt x="870" y="662" on="1"/>
        <pt x="949" y="662" on="1"/>
        <pt x="743" y="0" on="1"/>
        <pt x="658" y="0" on="1"/>
        <pt x="479" y="556" on="1"/>
      </contour>
    </TTGlyph>
    <TTGlyph name="X" xMin="-3" yMin="0" xMax="616" yMax="662">
      <contour>
        <pt x="352" y="342" on="1"/>
        <pt x="616" y="0" on="1"/>
        <pt x="521" y="0" on="1"/>
        <pt x="306" y="284" on="1"/>
        <pt x="92" y="0" on="1"/>
        <pt x="-3" y="0" on="1"/>
        <pt x="261" y="342" on="1"/>
        <pt x="15" y="662" on="1"/>
        <pt x="110" y="662" on="1"/>
        <pt x="306" y="402" on="1"/>
        <pt x="503" y="662" on="1"/>
        <pt x="598" y="662" on="1"/>
      </contour>
    </TTGlyph>
    <TTGlyph name="Y" xMin="-1" yMin="0" xMax="629" yMax="662">
      <contour>
        <pt x="352" y="0" on="1"/>
        <pt x="277" y="0" on="1"/>
        <pt x="277" y="262" on="1"/>
        <pt x="-1" y="662" on="1"/>
        <pt x="90" y="662" on="1"/>
        <pt x="314" y="340" on="1"/>
        <pt x="538" y="662" on="1"/>
        <pt x="629" y="662" on="1"/>
        <pt x="352" y="262" on="1"/>
      </contour>
    </TTGlyph>
    <TTGlyph name="Yacute" xMin="-1" yMin="0" xMax="629" yMax="820">
      <component glyphName="Y" x="0" y="0" flags="0x1204"/>
      <component glyphName="acute" x="163" y="145" flags="0x1004"/>
    </TTGlyph>
    <TTGlyph name="Ydieresis" xMin="-1" yMin="0" xMax="629" yMax="803">
      <component glyphName="Y" x="0" y="0" flags="0x1204"/>
      <component glyphName="dieresis" x="117" y="141" flags="0x1004"/>
    </TTGlyph>
    <TTGlyph name="Z" xMin="29" yMin="0" xMax="553" yMax="662">
      <contour>
        <pt x="121" y="70" on="1"/>
        <pt x="553" y="70" on="1"/>
        <pt x="553" y="0" on="1"/>
        <pt x="29" y="0" on="1"/>
        <pt x="29" y="71" on="1"/>
        <pt x="461" y="592" on="1"/>
        <pt x="35" y="592" on="1"/>
        <pt x="35" y="662" on="1"/>
        <pt x="553" y="662" on="1"/>
        <pt x="553" y="590" on="1"/>
      </contour>
    </TTGlyph>
    <TTGlyph name="a" xMin="34" yMin="-8" xMax="530" yMax="508">
      <contour>
        <pt x="455" y="80" on="1"/>
        <pt x="395" y="-8" on="0"/>
        <pt x="276" y="-8" on="1"/>
        <pt x="168" y="-8" on="0"/>
        <pt x="100" y="67" on="1"/>
        <pt x="34" y="141" on="0"/>
        <pt x="34" y="250" on="1"/>
        <pt x="34" y="359" on="0"/>
        <pt x="100" y="433" on="1"/>
        <pt x="168" y="508" on="0"/>
        <pt x="394" y="508" on="0"/>
        <pt x="455" y="419" on="1"/>
        <pt x="455" y="500" on="1"/>
        <pt x="530" y="500" on="1"/>
        <pt x="530" y="0" on="1"/>
        <pt x="455" y="0" on="1"/>
      </contour>
      <contour>
        <pt x="286" y="60" on="1"/>
        <pt x="367" y="60" on="0"/>
        <pt x="414" y="116" on="1"/>
        <pt x="459" y="169" on="0"/>
        <pt x="459" y="250" on="1"/>
        <pt x="459" y="331" on="0"/>
        <pt x="414" y="384" on="1"/>
        <pt x="367" y="440" on="0"/>
        <pt x="286" y="440" on="1"/>
        <pt x="206" y="440" on="0"/>
        <pt x="156" y="384" on="1"/>
        <pt x="109" y="331" on="0"/>
        <pt x="109" y="250" on="1"/>
        <pt x="109" y="169" on="0"/>
        <pt x="156" y="116" on="1"/>
        <pt x="206" y="60" on="0"/>
      </contour>
    </TTGlyph>
    <TTGlyph name="aacute" xMin="34" yMin="-8" xMax="530" yMax="675">
      <component glyphName="a" x="0" y="0" flags="0x1204"/>
      <component glyphName="acute" x="132" y="0" flags="0x1004"/>
    </TTGlyph>
    <TTGlyph name="acircumflex" xMin="34" yMin="-8" xMax="530" yMax="675">
      <component glyphName="a" x="0" y="0" flags="0x1204"/>
      <component glyphName="circumflex" x="87" y="0" flags="0x1004"/>
    </TTGlyph>
    <TTGlyph name="acute" xMin="86" yMin="570" xMax="254" yMax="675">
      <contour>
        <pt x="147" y="675" on="1"/>
        <pt x="254" y="675" on="1"/>
        <pt x="147" y="570" on="1"/>
        <pt x="86" y="570" on="1"/>
      </contour>
    </TTGlyph>
    <TTGlyph name="adieresis" xMin="34" yMin="-8" xMax="530" yMax="662">
      <component glyphName="a" x="0" y="0" flags="0x1204"/>
      <component glyphName="dieresis" x="83" y="0" flags="0x1004"/>
    </TTGlyph>
    <TTGlyph name="ae" xMin="34" yMin="-8" xMax="950" yMax="508">
      <contour>
        <pt x="530" y="428" on="1"/>
        <pt x="588" y="508" on="0"/>
        <pt x="702" y="508" on="1"/>
        <pt x="814" y="508" on="0"/>
        <pt x="884" y="433" on="1"/>
        <pt x="950" y="361" on="0"/>
        <pt x="950" y="250" on="1"/>
        <pt x="950" y="220" on="1"/>
        <pt x="531" y="220" on="1"/>
        <pt x="540" y="149" on="0"/>
        <pt x="584" y="106" on="1"/>
        <pt x="633" y="60" on="0"/>
        <pt x="708" y="60" on="1"/>
        <pt x="764" y="60" on="0"/>
        <pt x="837" y="114" on="0"/>
        <pt x="857" y="157" on="1"/>
        <pt x="937" y="157" on="1"/>
        <pt x="913" y="84" on="0"/>
        <pt x="790" y="-8" on="0"/>
        <pt x="702" y="-8" on="1"/>
        <pt x="588" y="-8" on="0"/>
        <pt x="530" y="71" on="1"/>
        <pt x="530" y="0" on="1"/>
        <pt x="455" y="0" on="1"/>
        <pt x="455" y="80" on="1"/>
        <pt x="395" y="-8" on="0"/>
        <pt x="276" y="-8" on="1"/>
        <pt x="168" y="-8" on="0"/>
        <pt x="100" y="67" on="1"/>
        <pt x="34" y="141" on="0"/>
        <pt x="34" y="250" on="1"/>
        <pt x="34" y="359" on="0"/>
        <pt x="100" y="433" on="1"/>
        <pt x="168" y="508" on="0"/>
        <pt x="394" y="508" on="0"/>
        <pt x="455" y="419" on="1"/>
        <pt x="455" y="500" on="1"/>
        <pt x="530" y="500" on="1"/>
      </contour>
      <contour>
        <pt x="286" y="60" on="1"/>
        <pt x="367" y="60" on="0"/>
        <pt x="414" y="116" on="1"/>
        <pt x="459" y="169" on="0"/>
        <pt x="459" y="250" on="1"/>
        <pt x="459" y="331" on="0"/>
        <pt x="414" y="384" on="1"/>
        <pt x="367" y="440" on="0"/>
        <pt x="286" y="440" on="1"/>
        <pt x="206" y="440" on="0"/>
        <pt x="156" y="384" on="1"/>
        <pt x="109" y="331" on="0"/>
        <pt x="109" y="250" on="1"/>
        <pt x="109" y="169" on="0"/>
        <pt x="156" y="116" on="1"/>
        <pt x="206" y="60" on="0"/>
      </contour>
      <contour>
        <pt x="872" y="290" on="1"/>
        <pt x="862" y="356" on="0"/>
        <pt x="818" y="397" on="1"/>
        <pt x="771" y="440" on="0"/>
        <pt x="702" y="440" on="1"/>
        <pt x="633" y="440" on="0"/>
        <pt x="586" y="397" on="1"/>
        <pt x="542" y="356" on="0"/>
        <pt x="532" y="290" on="1"/>
      </contour>
    </TTGlyph>
    <TTGlyph name="agrave" xMin="34" yMin="-8" xMax="530" yMax="675">
      <component glyphName="a" x="0" y="0" flags="0x1204"/>
      <component glyphName="grave" x="71" y="0" flags="0x1004"/>
    </TTGlyph>
    <TTGlyph name="ampersand" xMin="37" yMin="-8" xMax="560" yMax="670">
      <contour>
        <pt x="143" y="642" on="0"/>
        <pt x="225" y="670" on="0"/>
        <pt x="330" y="670" on="0"/>
        <pt x="404" y="646" on="0"/>
        <pt x="430" y="626" on="1"/>
        <pt x="477" y="590" on="0"/>
        <pt x="489" y="532" on="1"/>
        <pt x="410" y="532" on="1"/>
        <pt x="402" y="556" on="0"/>
        <pt x="336" y="602" on="0"/>
        <pt x="240" y="602" on="0"/>
        <pt x="186" y="584" on="0"/>
        <pt x="168" y="568" on="1"/>
        <pt x="134" y="538" on="0"/>
        <pt x="134" y="488" on="1"/>
        <pt x="134" y="434" on="0"/>
        <pt x="173" y="404" on="1"/>
        <pt x="208" y="378" on="0"/>
        <pt x="264" y="378" on="1"/>
        <pt x="425" y="378" on="1"/>
        <pt x="425" y="422" on="1"/>
        <pt x="495" y="422" on="1"/>
        <pt x="495" y="378" on="1"/>
        <pt x="560" y="378" on="1"/>
        <pt x="560" y="311" on="1"/>
        <pt x="495" y="311" on="1"/>
        <pt x="495" y="184" on="1"/>
        <pt x="495" y="98" on="0"/>
        <pt x="435" y="46" on="1"/>
        <pt x="374" y="-8" on="0"/>
        <pt x="269" y="-8" on="1"/>
        <pt x="174" y="-8" on="0"/>
        <pt x="106" y="47" on="1"/>
        <pt x="37" y="103" on="0"/>
        <pt x="37" y="190" on="1"/>
        <pt x="37" y="244" on="0"/>
        <pt x="101" y="328" on="0"/>
        <pt x="159" y="350" on="1"/>
        <pt x="122" y="361" on="0"/>
        <pt x="92" y="400" on="1"/>
        <pt x="59" y="444" on="0"/>
        <pt x="59" y="528" on="0"/>
        <pt x="87" y="594" on="0"/>
      </contour>
      <contour>
        <pt x="255" y="311" on="1"/>
        <pt x="194" y="311" on="0"/>
        <pt x="152" y="274" on="1"/>
        <pt x="112" y="240" on="0"/>
        <pt x="112" y="136" on="0"/>
        <pt x="156" y="98" on="1"/>
        <pt x="200" y="59" on="0"/>
        <pt x="269" y="59" on="1"/>
        <pt x="343" y="59" on="0"/>
        <pt x="386" y="96" on="1"/>
        <pt x="425" y="128" on="0"/>
        <pt x="425" y="178" on="1"/>
        <pt x="425" y="311" on="1"/>
      </contour>
    </TTGlyph>
    <TTGlyph name="approxequal" xMin="60" yMin="119" xMax="491" yMax="421">
      <component glyphName="asciitilde" x="12" y="-96" flags="0x1004"/>
      <component glyphName="asciitilde" x="13" y="61" flags="0x1004"/>
    </TTGlyph>
    <TTGlyph name="aring" xMin="34" yMin="-8" xMax="530" yMax="735">
      <component glyphName="a" x="0" y="0" flags="0x1204"/>
      <component glyphName="ring" x="116" y="0" flags="0x1004"/>
    </TTGlyph>
    <TTGlyph name="asciicircum" xMin="75" yMin="355" xMax="434" yMax="668">
      <contour>
        <pt x="434" y="355" on="1"/>
        <pt x="364" y="355" on="1"/>
        <pt x="255" y="570" on="1"/>
        <pt x="145" y="355" on="1"/>
        <pt x="75" y="355" on="1"/>
        <pt x="224" y="668" on="1"/>
        <pt x="285" y="668" on="1"/>
      </contour>
    </TTGlyph>
    <TTGlyph name="asciitilde" xMin="48" yMin="215" xMax="478" yMax="360">
      <contour>
        <pt x="48" y="215" on="1"/>
        <pt x="63" y="349" on="0"/>
        <pt x="160" y="349" on="1"/>
        <pt x="197" y="349" on="0"/>
        <pt x="303" y="307" on="0"/>
        <pt x="354" y="288" on="0"/>
        <pt x="393" y="288" on="0"/>
        <pt x="421" y="306" on="0"/>
        <pt x="437" y="330" on="0"/>
        <pt x="444" y="354" on="0"/>
        <pt x="446" y="360" on="1"/>
        <pt x="478" y="360" on="1"/>
        <pt x="468" y="303" on="0"/>
        <pt x="440" y="254" on="0"/>
        <pt x="400" y="226" on="0"/>
        <pt x="341" y="226" on="0"/>
        <pt x="281" y="245" on="0"/>
        <pt x="223" y="267" on="0"/>
        <pt x="172" y="286" on="0"/>
        <pt x="132" y="286" on="0"/>
        <pt x="104" y="269" on="0"/>
        <pt x="88" y="245" on="0"/>
        <pt x="81" y="221" on="0"/>
        <pt x="79" y="215" on="1"/>
      </contour>
    </TTGlyph>
    <TTGlyph name="asterisk" xMin="48" yMin="397" xMax="325" yMax="662">
      <contour>
        <pt x="218" y="516" on="1"/>
        <pt x="292" y="434" on="1"/>
        <pt x="241" y="397" on="1"/>
        <pt x="187" y="492" on="1"/>
        <pt x="132" y="397" on="1"/>
        <pt x="81" y="434" on="1"/>
        <pt x="155" y="515" on="1"/>
        <pt x="48" y="538" on="1"/>
        <pt x="67" y="598" on="1"/>
        <pt x="167" y="553" on="1"/>
        <pt x="155" y="662" on="1"/>
        <pt x="218" y="662" on="1"/>
        <pt x="206" y="553" on="1"/>
        <pt x="306" y="598" on="1"/>
        <pt x="325" y="538" on="1"/>
      </contour>
    </TTGlyph>
    <TTGlyph name="at" xMin="50" yMin="-50" xMax="810" yMax="706">
      <contour>
        <pt x="596" y="221" on="1"/>
        <pt x="596" y="168" on="0"/>
        <pt x="704" y="168" on="0"/>
        <pt x="773" y="262" on="0"/>
        <pt x="773" y="364" on="1"/>
        <pt x="773" y="492" on="0"/>
        <pt x="684" y="581" on="1"/>
        <pt x="596" y="669" on="0"/>
        <pt x="468" y="669" on="1"/>
        <pt x="393" y="669" on="0"/>
        <pt x="255" y="608" on="0"/>
        <pt x="150" y="504" on="0"/>
        <pt x="87" y="366" on="0"/>
        <pt x="87" y="224" on="0"/>
        <pt x="134" y="114" on="0"/>
        <pt x="176" y="74" on="1"/>
        <pt x="264" y="-13" on="0"/>
        <pt x="522" y="-13" on="0"/>
        <pt x="612" y="61" on="1"/>
        <pt x="634" y="31" on="1"/>
        <pt x="532" y="-50" on="0"/>
        <pt x="392" y="-50" on="1"/>
        <pt x="317" y="-50" on="0"/>
        <pt x="191" y="4" on="0"/>
        <pt x="101" y="97" on="0"/>
        <pt x="50" y="220" on="0"/>
        <pt x="50" y="371" on="0"/>
        <pt x="117" y="522" on="0"/>
        <pt x="232" y="637" on="0"/>
        <pt x="384" y="706" on="0"/>
        <pt x="536" y="706" on="0"/>
        <pt x="660" y="654" on="0"/>
        <pt x="754" y="563" on="0"/>
        <pt x="810" y="440" on="0"/>
        <pt x="810" y="304" on="0"/>
        <pt x="778" y="212" on="0"/>
        <pt x="752" y="182" on="1"/>
        <pt x="701" y="123" on="0"/>
        <pt x="624" y="123" on="1"/>
        <pt x="566" y="123" on="0"/>
        <pt x="544" y="158" on="1"/>
        <pt x="533" y="173" on="0"/>
        <pt x="531" y="193" on="1"/>
        <pt x="474" y="123" on="0"/>
        <pt x="386" y="123" on="1"/>
        <pt x="304" y="123" on="0"/>
        <pt x="258" y="170" on="1"/>
        <pt x="216" y="215" on="0"/>
        <pt x="216" y="289" on="1"/>
        <pt x="216" y="397" on="0"/>
        <pt x="282" y="465" on="1"/>
        <pt x="347" y="532" on="0"/>
        <pt x="537" y="532" on="0"/>
        <pt x="574" y="462" on="1"/>
        <pt x="584" y="526" on="1"/>
        <pt x="644" y="526" on="1"/>
        <pt x="597" y="234" on="1"/>
        <pt x="596" y="232" on="0"/>
        <pt x="596" y="230" on="1"/>
      </contour>
      <contour>
        <pt x="558" y="358" on="1"/>
        <pt x="558" y="409" on="0"/>
        <pt x="529" y="444" on="1"/>
        <pt x="499" y="479" on="0"/>
        <pt x="443" y="479" on="1"/>
        <pt x="369" y="479" on="0"/>
        <pt x="323" y="429" on="1"/>
        <pt x="276" y="378" on="0"/>
        <pt x="276" y="295" on="1"/>
        <pt x="276" y="244" on="0"/>
        <pt x="338" y="177" on="0"/>
        <pt x="473" y="177" on="0"/>
        <pt x="558" y="283" on="0"/>
      </contour>
    </TTGlyph>
    <TTGlyph name="atilde" xMin="34" yMin="-8" xMax="530" yMax="668">
      <component glyphName="a" x="0" y="0" flags="0x1204"/>
      <component glyphName="tilde" x="64" y="0" flags="0x1004"/>
    </TTGlyph>
    <TTGlyph name="b" xMin="65" yMin="-8" xMax="561" yMax="700">
      <contour>
        <pt x="140" y="419" on="1"/>
        <pt x="201" y="508" on="0"/>
        <pt x="319" y="508" on="1"/>
        <pt x="427" y="508" on="0"/>
        <pt x="494" y="433" on="1"/>
        <pt x="561" y="359" on="0"/>
        <pt x="561" y="250" on="1"/>
        <pt x="561" y="141" on="0"/>
        <pt x="494" y="67" on="1"/>
        <pt x="427" y="-8" on="0"/>
        <pt x="200" y="-8" on="0"/>
        <pt x="140" y="80" on="1"/>
        <pt x="140" y="0" on="1"/>
        <pt x="65" y="0" on="1"/>
        <pt x="65" y="700" on="1"/>
        <pt x="140" y="700" on="1"/>
      </contour>
      <contour>
        <pt x="309" y="60" on="1"/>
        <pt x="389" y="60" on="0"/>
        <pt x="439" y="116" on="1"/>
        <pt x="486" y="169" on="0"/>
        <pt x="486" y="250" on="1"/>
        <pt x="486" y="331" on="0"/>
        <pt x="439" y="384" on="1"/>
        <pt x="389" y="440" on="0"/>
        <pt x="309" y="440" on="1"/>
        <pt x="228" y="440" on="0"/>
        <pt x="181" y="384" on="1"/>
        <pt x="136" y="331" on="0"/>
        <pt x="136" y="250" on="1"/>
        <pt x="136" y="169" on="0"/>
        <pt x="181" y="116" on="1"/>
        <pt x="228" y="60" on="0"/>
      </contour>
    </TTGlyph>
    <TTGlyph name="backslash" xMin="36" yMin="-32" xMax="335" yMax="680">
      <contour>
        <pt x="106" y="680" on="1"/>
        <pt x="335" y="-32" on="1"/>
        <pt x="265" y="-32" on="1"/>
        <pt x="36" y="680" on="1"/>
      </contour>
    </TTGlyph>
    <TTGlyph name="bar" xMin="65" yMin="-179" xMax="126" yMax="748">
      <contour>
        <pt x="65" y="-179" on="1"/>
        <pt x="65" y="748" on="1"/>
        <pt x="126" y="748" on="1"/>
        <pt x="126" y="-179" on="1"/>
      </contour>
    </TTGlyph>
    <TTGlyph name="braceleft" xMin="21" yMin="-133" xMax="269" yMax="679">
      <contour>
        <pt x="96" y="273" on="1"/>
        <pt x="166" y="238" on="0"/>
        <pt x="166" y="144" on="1"/>
        <pt x="166" y="12" on="1"/>
        <pt x="166" y="-40" on="0"/>
        <pt x="209" y="-79" on="0"/>
        <pt x="269" y="-79" on="1"/>
        <pt x="269" y="-133" on="1"/>
        <pt x="233" y="-133" on="0"/>
        <pt x="172" y="-126" on="0"/>
        <pt x="149" y="-112" on="1"/>
        <pt x="100" y="-81" on="0"/>
        <pt x="100" y="11" on="1"/>
        <pt x="100" y="155" on="1"/>
        <pt x="100" y="201" on="0"/>
        <pt x="72" y="228" on="1"/>
        <pt x="49" y="250" on="0"/>
        <pt x="21" y="250" on="1"/>
        <pt x="21" y="296" on="1"/>
        <pt x="49" y="296" on="0"/>
        <pt x="66" y="313" on="1"/>
        <pt x="100" y="345" on="0"/>
        <pt x="100" y="391" on="1"/>
        <pt x="100" y="535" on="1"/>
        <pt x="100" y="664" on="0"/>
        <pt x="202" y="676" on="1"/>
        <pt x="233" y="679" on="0"/>
        <pt x="269" y="679" on="1"/>
        <pt x="269" y="625" on="1"/>
        <pt x="209" y="625" on="0"/>
        <pt x="166" y="586" on="0"/>
        <pt x="166" y="534" on="1"/>
        <pt x="166" y="402" on="1"/>
        <pt x="166" y="346" on="0"/>
        <pt x="124" y="286" on="0"/>
      </contour>
    </TTGlyph>
    <TTGlyph name="braceright" xMin="25" yMin="-133" xMax="273" yMax="679">
      <contour>
        <pt x="128" y="144" on="1"/>
        <pt x="128" y="238" on="0"/>
        <pt x="198" y="273" on="1"/>
        <pt x="170" y="286" on="0"/>
        <pt x="128" y="346" on="0"/>
        <pt x="128" y="402" on="1"/>
        <pt x="128" y="534" on="1"/>
        <pt x="128" y="586" on="0"/>
        <pt x="85" y="625" on="0"/>
        <pt x="25" y="625" on="1"/>
        <pt x="25" y="679" on="1"/>
        <pt x="61" y="679" on="0"/>
        <pt x="122" y="672" on="0"/>
        <pt x="145" y="658" on="1"/>
        <pt x="194" y="627" on="0"/>
        <pt x="194" y="535" on="1"/>
        <pt x="194" y="391" on="1"/>
        <pt x="194" y="345" on="0"/>
        <pt x="222" y="318" on="1"/>
        <pt x="245" y="296" on="0"/>
        <pt x="273" y="296" on="1"/>
        <pt x="273" y="250" on="1"/>
        <pt x="245" y="250" on="0"/>
        <pt x="228" y="233" on="1"/>
        <pt x="194" y="201" on="0"/>
        <pt x="194" y="155" on="1"/>
        <pt x="194" y="11" on="1"/>
        <pt x="194" y="-118" on="0"/>
        <pt x="92" y="-130" on="1"/>
        <pt x="61" y="-133" on="0"/>
        <pt x="25" y="-133" on="1"/>
        <pt x="25" y="-79" on="1"/>
        <pt x="85" y="-79" on="0"/>
        <pt x="128" y="-40" on="0"/>
        <pt x="128" y="12" on="1"/>
      </contour>
    </TTGlyph>
    <TTGlyph name="bracketleft" xMin="66" yMin="-133" xMax="253" yMax="679">
      <contour>
        <pt x="132" y="617" on="1"/>
        <pt x="132" y="-71" on="1"/>
        <pt x="253" y="-71" on="1"/>
        <pt x="253" y="-133" on="1"/>
        <pt x="66" y="-133" on="1"/>
        <pt x="66" y="679" on="1"/>
        <pt x="253" y="679" on="1"/>
        <pt x="253" y="617" on="1"/>
      </contour>
    </TTGlyph>
    <TTGlyph name="bracketright" xMin="27" yMin="-133" xMax="214" yMax="679">
      <contour>
        <pt x="27" y="617" on="1"/>
        <pt x="27" y="679" on="1"/>
        <pt x="214" y="679" on="1"/>
        <pt x="214" y="-133" on="1"/>
        <pt x="27" y="-133" on="1"/>
        <pt x="27" y="-71" on="1"/>
        <pt x="148" y="-71" on="1"/>
        <pt x="148" y="617" on="1"/>
      </contour>
    </TTGlyph>
    <TTGlyph name="breve" xMin="107" yMin="567" xMax="344" yMax="691">
      <contour>
        <pt x="338" y="691" on="1"/>
        <pt x="344" y="677" on="0"/>
        <pt x="344" y="642" on="0"/>
        <pt x="325" y="608" on="0"/>
        <pt x="309" y="595" on="1"/>
        <pt x="275" y="567" on="0"/>
        <pt x="226" y="567" on="1"/>
        <pt x="176" y="567" on="0"/>
        <pt x="142" y="595" on="1"/>
        <pt x="107" y="623" on="0"/>
        <pt x="107" y="662" on="1"/>
        <pt x="107" y="670" on="0"/>
        <pt x="111" y="684" on="0"/>
        <pt x="113" y="691" on="1"/>
        <pt x="131" y="691" on="1"/>
        <pt x="134" y="662" on="0"/>
        <pt x="188" y="626" on="0"/>
        <pt x="263" y="626" on="0"/>
        <pt x="317" y="662" on="0"/>
        <pt x="320" y="691" on="1"/>
      </contour>
    </TTGlyph>
    <TTGlyph name="bullet" xMin="36" yMin="186" xMax="304" yMax="454">
      <contour>
        <pt x="36" y="320" on="1"/>
        <pt x="36" y="376" on="0"/>
        <pt x="114" y="454" on="0"/>
        <pt x="170" y="454" on="1"/>
        <pt x="226" y="454" on="0"/>
        <pt x="304" y="376" on="0"/>
        <pt x="304" y="320" on="1"/>
        <pt x="304" y="264" on="0"/>
        <pt x="226" y="186" on="0"/>
        <pt x="170" y="186" on="1"/>
        <pt x="114" y="186" on="0"/>
        <pt x="36" y="264" on="0"/>
      </contour>
    </TTGlyph>
    <TTGlyph name="c" xMin="34" yMin="-8" xMax="516" yMax="508">
      <contour>
        <pt x="296" y="60" on="1"/>
        <pt x="344" y="60" on="0"/>
        <pt x="418" y="114" on="0"/>
        <pt x="435" y="157" on="1"/>
        <pt x="516" y="157" on="1"/>
        <pt x="493" y="83" on="0"/>
        <pt x="432" y="38" on="1"/>
        <pt x="368" y="-8" on="0"/>
        <pt x="280" y="-8" on="1"/>
        <pt x="170" y="-8" on="0"/>
        <pt x="101" y="67" on="1"/>
        <pt x="34" y="140" on="0"/>
        <pt x="34" y="250" on="1"/>
        <pt x="34" y="360" on="0"/>
        <pt x="101" y="433" on="1"/>
        <pt x="170" y="508" on="0"/>
        <pt x="280" y="508" on="1"/>
        <pt x="368" y="508" on="0"/>
        <pt x="432" y="462" on="1"/>
        <pt x="493" y="417" on="0"/>
        <pt x="516" y="343" on="1"/>
        <pt x="435" y="343" on="1"/>
        <pt x="418" y="386" on="0"/>
        <pt x="344" y="440" on="0"/>
        <pt x="248" y="440" on="0"/>
        <pt x="181" y="410" on="0"/>
        <pt x="158" y="384" on="1"/>
        <pt x="109" y="330" on="0"/>
        <pt x="109" y="250" on="1"/>
        <pt x="109" y="170" on="0"/>
        <pt x="158" y="116" on="1"/>
        <pt x="208" y="60" on="0"/>
      </contour>
    </TTGlyph>
    <TTGlyph name="caron" xMin="49" yMin="570" xMax="331" yMax="675">
      <contour>
        <pt x="331" y="675" on="1"/>
        <pt x="234" y="570" on="1"/>
        <pt x="147" y="570" on="1"/>
        <pt x="49" y="675" on="1"/>
        <pt x="131" y="675" on="1"/>
        <pt x="190" y="621" on="1"/>
        <pt x="249" y="675" on="1"/>
      </contour>
    </TTGlyph>
    <TTGlyph name="ccedilla" xMin="34" yMin="-210" xMax="516" yMax="508">
      <contour>
        <pt x="273" y="-54" on="1"/>
        <pt x="283" y="-52" on="0"/>
        <pt x="295" y="-52" on="1"/>
        <pt x="333" y="-52" on="0"/>
        <pt x="387" y="-93" on="0"/>
        <pt x="387" y="-129" on="1"/>
        <pt x="387" y="-188" on="0"/>
        <pt x="316" y="-205" on="1"/>
        <pt x="296" y="-210" on="0"/>
        <pt x="235" y="-210" on="0"/>
        <pt x="174" y="-185" on="0"/>
        <pt x="155" y="-169" on="1"/>
        <pt x="174" y="-136" on="1"/>
        <pt x="218" y="-166" on="0"/>
        <pt x="259" y="-166" on="1"/>
        <pt x="314" y="-166" on="0"/>
        <pt x="314" y="-130" on="1"/>
        <pt x="314" y="-115" on="0"/>
        <pt x="282" y="-97" on="0"/>
        <pt x="243" y="-97" on="0"/>
        <pt x="226" y="-102" on="1"/>
        <pt x="205" y="-85" on="1"/>
        <pt x="255" y="-6" on="1"/>
        <pt x="154" y="2" on="0"/>
        <pt x="94" y="76" on="1"/>
        <pt x="34" y="148" on="0"/>
        <pt x="34" y="250" on="1"/>
        <pt x="34" y="360" on="0"/>
        <pt x="101" y="433" on="1"/>
        <pt x="170" y="508" on="0"/>
        <pt x="280" y="508" on="1"/>
        <pt x="368" y="508" on="0"/>
        <pt x="432" y="462" on="1"/>
        <pt x="493" y="417" on="0"/>
        <pt x="516" y="343" on="1"/>
        <pt x="435" y="343" on="1"/>
        <pt x="418" y="386" on="0"/>
        <pt x="344" y="440" on="0"/>
        <pt x="248" y="440" on="0"/>
        <pt x="181" y="410" on="0"/>
        <pt x="158" y="384" on="1"/>
        <pt x="109" y="330" on="0"/>
        <pt x="109" y="250" on="1"/>
        <pt x="109" y="170" on="0"/>
        <pt x="158" y="116" on="1"/>
        <pt x="208" y="60" on="0"/>
        <pt x="290" y="60" on="1"/>
        <pt x="344" y="60" on="0"/>
        <pt x="418" y="114" on="0"/>
        <pt x="435" y="157" on="1"/>
        <pt x="516" y="157" on="1"/>
        <pt x="495" y="88" on="0"/>
        <pt x="381" y="-2" on="0"/>
        <pt x="299" y="-7" on="1"/>
      </contour>
    </TTGlyph>
    <TTGlyph name="cedilla" xMin="33" yMin="-210" xMax="265" yMax="23">
      <contour>
        <pt x="151" y="-54" on="1"/>
        <pt x="161" y="-52" on="0"/>
        <pt x="173" y="-52" on="1"/>
        <pt x="211" y="-52" on="0"/>
        <pt x="265" y="-93" on="0"/>
        <pt x="265" y="-129" on="1"/>
        <pt x="265" y="-188" on="0"/>
        <pt x="194" y="-205" on="1"/>
        <pt x="174" y="-210" on="0"/>
        <pt x="113" y="-210" on="0"/>
        <pt x="52" y="-185" on="0"/>
        <pt x="33" y="-169" on="1"/>
        <pt x="52" y="-136" on="1"/>
        <pt x="96" y="-166" on="0"/>
        <pt x="137" y="-166" on="1"/>
        <pt x="192" y="-166" on="0"/>
        <pt x="192" y="-130" on="1"/>
        <pt x="192" y="-115" on="0"/>
        <pt x="160" y="-97" on="0"/>
        <pt x="121" y="-97" on="0"/>
        <pt x="104" y="-102" on="1"/>
        <pt x="83" y="-85" on="1"/>
        <pt x="152" y="23" on="1"/>
        <pt x="195" y="23" on="1"/>
      </contour>
    </TTGlyph>
    <TTGlyph name="cent" xMin="48" yMin="-101" xMax="530" yMax="595">
      <contour>
        <pt x="316" y="60" on="1"/>
        <pt x="365" y="64" on="0"/>
        <pt x="432" y="116" on="0"/>
        <pt x="449" y="157" on="1"/>
        <pt x="530" y="157" on="1"/>
        <pt x="510" y="88" on="0"/>
        <pt x="397" y="-1" on="0"/>
        <pt x="316" y="-7" on="1"/>
        <pt x="316" y="-101" on="1"/>
        <pt x="280" y="-101" on="1"/>
        <pt x="280" y="-8" on="1"/>
        <pt x="174" y="-2" on="0"/>
        <pt x="111" y="72" on="1"/>
        <pt x="48" y="146" on="0"/>
        <pt x="48" y="250" on="1"/>
        <pt x="48" y="354" on="0"/>
        <pt x="111" y="428" on="1"/>
        <pt x="174" y="502" on="0"/>
        <pt x="280" y="508" on="1"/>
        <pt x="280" y="595" on="1"/>
        <pt x="316" y="595" on="1"/>
        <pt x="316" y="507" on="1"/>
        <pt x="397" y="501" on="0"/>
        <pt x="510" y="412" on="0"/>
        <pt x="530" y="343" on="1"/>
        <pt x="449" y="343" on="1"/>
        <pt x="432" y="384" on="0"/>
        <pt x="365" y="436" on="0"/>
        <pt x="316" y="440" on="1"/>
      </contour>
      <contour>
        <pt x="123" y="250" on="1"/>
        <pt x="123" y="178" on="0"/>
        <pt x="165" y="124" on="1"/>
        <pt x="209" y="69" on="0"/>
        <pt x="280" y="61" on="1"/>
        <pt x="280" y="439" on="1"/>
        <pt x="207" y="429" on="0"/>
        <pt x="165" y="376" on="1"/>
        <pt x="123" y="322" on="0"/>
      </contour>
    </TTGlyph>
    <TTGlyph name="circumflex" xMin="49" yMin="570" xMax="331" yMax="675">
      <contour>
        <pt x="249" y="570" on="1"/>
        <pt x="190" y="624" on="1"/>
        <pt x="131" y="570" on="1"/>
        <pt x="49" y="570" on="1"/>
        <pt x="147" y="675" on="1"/>
        <pt x="234" y="675" on="1"/>
        <pt x="331" y="570" on="1"/>
      </contour>
    </TTGlyph>
    <TTGlyph name="colon" xMin="53" yMin="0" xMax="150" yMax="500">
      <contour>
        <pt x="150" y="102" on="1"/>
        <pt x="150" y="0" on="1"/>
        <pt x="53" y="0" on="1"/>
        <pt x="53" y="102" on="1"/>
      </contour>
      <contour>
        <pt x="150" y="500" on="1"/>
        <pt x="150" y="398" on="1"/>
        <pt x="53" y="398" on="1"/>
        <pt x="53" y="500" on="1"/>
      </contour>
    </TTGlyph>
    <TTGlyph name="comma" xMin="11" yMin="-133" xMax="167" yMax="80">
      <contour>
        <pt x="69" y="80" on="1"/>
        <pt x="167" y="80" on="1"/>
        <pt x="79" y="-133" on="1"/>
        <pt x="11" y="-133" on="1"/>
      </contour>
    </TTGlyph>
    <TTGlyph name="copyright" xMin="47" yMin="-13" xMax="732" yMax="672">
      <contour>
        <pt x="495" y="419" on="0"/>
        <pt x="438" y="461" on="0"/>
        <pt x="336" y="461" on="0"/>
        <pt x="270" y="388" on="0"/>
        <pt x="270" y="329" on="1"/>
        <pt x="270" y="270" on="0"/>
        <pt x="336" y="197" on="0"/>
        <pt x="438" y="197" on="0"/>
        <pt x="495" y="239" on="0"/>
        <pt x="502" y="276" on="1"/>
        <pt x="569" y="276" on="1"/>
        <pt x="557" y="206" on="0"/>
        <pt x="508" y="168" on="1"/>
        <pt x="462" y="133" on="0"/>
        <pt x="389" y="133" on="1"/>
        <pt x="302" y="133" on="0"/>
        <pt x="252" y="188" on="1"/>
        <pt x="202" y="244" on="0"/>
        <pt x="202" y="329" on="1"/>
        <pt x="202" y="415" on="0"/>
        <pt x="252" y="469" on="1"/>
        <pt x="303" y="524" on="0"/>
        <pt x="389" y="524" on="1"/>
        <pt x="499" y="524" on="0"/>
        <pt x="547" y="444" on="1"/>
        <pt x="563" y="418" on="0"/>
        <pt x="569" y="382" on="1"/>
        <pt x="502" y="382" on="1"/>
      </contour>
      <contour>
        <pt x="389" y="672" on="1"/>
        <pt x="460" y="672" on="0"/>
        <pt x="585" y="618" on="0"/>
        <pt x="678" y="525" on="0"/>
        <pt x="732" y="400" on="0"/>
        <pt x="732" y="329" on="1"/>
        <pt x="732" y="258" on="0"/>
        <pt x="678" y="134" on="0"/>
        <pt x="585" y="41" on="0"/>
        <pt x="460" y="-13" on="0"/>
        <pt x="389" y="-13" on="1"/>
        <pt x="318" y="-13" on="0"/>
        <pt x="194" y="41" on="0"/>
        <pt x="101" y="134" on="0"/>
        <pt x="47" y="258" on="0"/>
        <pt x="47" y="329" on="1"/>
        <pt x="47" y="400" on="0"/>
        <pt x="101" y="525" on="0"/>
        <pt x="194" y="618" on="0"/>
        <pt x="318" y="672" on="0"/>
      </contour>
      <contour>
        <pt x="389" y="36" on="1"/>
        <pt x="511" y="36" on="0"/>
        <pt x="597" y="122" on="1"/>
        <pt x="637" y="162" on="0"/>
        <pt x="683" y="269" on="0"/>
        <pt x="683" y="390" on="0"/>
        <pt x="637" y="497" on="0"/>
        <pt x="597" y="537" on="1"/>
        <pt x="511" y="623" on="0"/>
        <pt x="389" y="623" on="1"/>
        <pt x="266" y="623" on="0"/>
        <pt x="182" y="537" on="1"/>
        <pt x="96" y="450" on="0"/>
        <pt x="96" y="329" on="1"/>
        <pt x="96" y="269" on="0"/>
        <pt x="142" y="162" on="0"/>
        <pt x="182" y="122" on="1"/>
        <pt x="266" y="36" on="0"/>
      </contour>
    </TTGlyph>
    <TTGlyph name="currency" xMin="48" yMin="88" xMax="519" yMax="560">
      <contour>
        <pt x="455" y="450" on="1"/>
        <pt x="496" y="397" on="0"/>
        <pt x="496" y="252" on="0"/>
        <pt x="455" y="197" on="1"/>
        <pt x="519" y="133" on="1"/>
        <pt x="475" y="88" on="1"/>
        <pt x="410" y="153" on="1"/>
        <pt x="356" y="111" on="0"/>
        <pt x="213" y="111" on="0"/>
        <pt x="157" y="153" on="1"/>
        <pt x="93" y="88" on="1"/>
        <pt x="48" y="133" on="1"/>
        <pt x="112" y="197" on="1"/>
        <pt x="71" y="252" on="0"/>
        <pt x="71" y="397" on="0"/>
        <pt x="112" y="450" on="1"/>
        <pt x="48" y="515" on="1"/>
        <pt x="93" y="560" on="1"/>
        <pt x="157" y="495" on="1"/>
        <pt x="212" y="536" on="0"/>
        <pt x="357" y="536" on="0"/>
        <pt x="410" y="495" on="1"/>
        <pt x="475" y="560" on="1"/>
        <pt x="519" y="515" on="1"/>
      </contour>
      <contour>
        <pt x="284" y="172" on="1"/>
        <pt x="315" y="172" on="0"/>
        <pt x="371" y="196" on="0"/>
        <pt x="392" y="216" on="1"/>
        <pt x="436" y="261" on="0"/>
        <pt x="436" y="387" on="0"/>
        <pt x="347" y="476" on="0"/>
        <pt x="221" y="476" on="0"/>
        <pt x="132" y="387" on="0"/>
        <pt x="132" y="261" on="0"/>
        <pt x="221" y="172" on="0"/>
      </contour>
    </TTGlyph>
    <TTGlyph name="d" xMin="34" yMin="-8" xMax="530" yMax="700">
      <contour>
        <pt x="455" y="80" on="1"/>
        <pt x="395" y="-8" on="0"/>
        <pt x="276" y="-8" on="1"/>
        <pt x="168" y="-8" on="0"/>
        <pt x="100" y="67" on="1"/>
        <pt x="34" y="141" on="0"/>
        <pt x="34" y="250" on="1"/>
        <pt x="34" y="359" on="0"/>
        <pt x="100" y="433" on="1"/>
        <pt x="168" y="508" on="0"/>
        <pt x="394" y="508" on="0"/>
        <pt x="455" y="419" on="1"/>
        <pt x="455" y="700" on="1"/>
        <pt x="530" y="700" on="1"/>
        <pt x="530" y="0" on="1"/>
        <pt x="455" y="0" on="1"/>
      </contour>
      <contour>
        <pt x="286" y="60" on="1"/>
        <pt x="367" y="60" on="0"/>
        <pt x="414" y="116" on="1"/>
        <pt x="459" y="169" on="0"/>
        <pt x="459" y="250" on="1"/>
        <pt x="459" y="331" on="0"/>
        <pt x="414" y="384" on="1"/>
        <pt x="367" y="440" on="0"/>
        <pt x="286" y="440" on="1"/>
        <pt x="206" y="440" on="0"/>
        <pt x="156" y="384" on="1"/>
        <pt x="109" y="331" on="0"/>
        <pt x="109" y="250" on="1"/>
        <pt x="109" y="169" on="0"/>
        <pt x="156" y="116" on="1"/>
        <pt x="206" y="60" on="0"/>
      </contour>
    </TTGlyph>
    <TTGlyph name="dagger" xMin="38" yMin="-131" xMax="397" yMax="662">
      <contour>
        <pt x="397" y="439" on="1"/>
        <pt x="248" y="439" on="1"/>
        <pt x="248" y="-131" on="1"/>
        <pt x="187" y="-131" on="1"/>
        <pt x="187" y="439" on="1"/>
        <pt x="38" y="439" on="1"/>
        <pt x="38" y="500" on="1"/>
        <pt x="187" y="500" on="1"/>
        <pt x="187" y="662" on="1"/>
        <pt x="248" y="662" on="1"/>
        <pt x="248" y="500" on="1"/>
        <pt x="397" y="500" on="1"/>
      </contour>
    </TTGlyph>
    <TTGlyph name="daggerdbl" xMin="48" yMin="-131" xMax="407" yMax="662">
      <contour>
        <pt x="407" y="31" on="1"/>
        <pt x="258" y="31" on="1"/>
        <pt x="258" y="-131" on="1"/>
        <pt x="197" y="-131" on="1"/>
        <pt x="197" y="31" on="1"/>
        <pt x="48" y="31" on="1"/>
        <pt x="48" y="92" on="1"/>
        <pt x="197" y="92" on="1"/>
        <pt x="197" y="439" on="1"/>
        <pt x="48" y="439" on="1"/>
        <pt x="48" y="500" on="1"/>
        <pt x="197" y="500" on="1"/>
        <pt x="197" y="662" on="1"/>
        <pt x="258" y="662" on="1"/>
        <pt x="258" y="500" on="1"/>
        <pt x="407" y="500" on="1"/>
        <pt x="407" y="439" on="1"/>
        <pt x="258" y="439" on="1"/>
        <pt x="258" y="92" on="1"/>
        <pt x="407" y="92" on="1"/>
      </contour>
    </TTGlyph>
    <TTGlyph name="degree" xMin="36" yMin="406" xMax="297" yMax="667">
      <contour>
        <pt x="166" y="667" on="1"/>
        <pt x="220" y="667" on="0"/>
        <pt x="297" y="590" on="0"/>
        <pt x="297" y="536" on="1"/>
        <pt x="297" y="484" on="0"/>
        <pt x="258" y="444" on="1"/>
        <pt x="222" y="406" on="0"/>
        <pt x="166" y="406" on="1"/>
        <pt x="112" y="406" on="0"/>
        <pt x="36" y="482" on="0"/>
        <pt x="36" y="536" on="1"/>
        <pt x="36" y="592" on="0"/>
        <pt x="74" y="628" on="1"/>
        <pt x="114" y="667" on="0"/>
      </contour>
      <contour>
        <pt x="93" y="506" on="0"/>
        <pt x="136" y="463" on="0"/>
        <pt x="197" y="463" on="0"/>
        <pt x="240" y="506" on="0"/>
        <pt x="240" y="567" on="0"/>
        <pt x="197" y="610" on="0"/>
        <pt x="136" y="610" on="0"/>
        <pt x="93" y="567" on="0"/>
      </contour>
    </TTGlyph>
    <TTGlyph name="dieresis" xMin="74" yMin="579" xMax="320" yMax="662">
      <contour>
        <pt x="163" y="662" on="1"/>
        <pt x="163" y="579" on="1"/>
        <pt x="74" y="579" on="1"/>
        <pt x="74" y="662" on="1"/>
      </contour>
      <contour>
        <pt x="320" y="662" on="1"/>
        <pt x="320" y="579" on="1"/>
        <pt x="231" y="579" on="1"/>
        <pt x="231" y="662" on="1"/>
      </contour>
    </TTGlyph>
    <TTGlyph name="divide" xMin="38" yMin="17" xMax="512" yMax="452">
      <contour>
        <pt x="512" y="269" on="1"/>
        <pt x="512" y="200" on="1"/>
        <pt x="38" y="200" on="1"/>
        <pt x="38" y="269" on="1"/>
      </contour>
      <contour>
        <pt x="231" y="110" on="1"/>
        <pt x="319" y="110" on="1"/>
        <pt x="319" y="17" on="1"/>
        <pt x="231" y="17" on="1"/>
      </contour>
      <contour>
        <pt x="231" y="452" on="1"/>
        <pt x="319" y="452" on="1"/>
        <pt x="319" y="359" on="1"/>
        <pt x="231" y="359" on="1"/>
      </contour>
    </TTGlyph>
    <TTGlyph name="dollar" xMin="43" yMin="-107" xMax="591" yMax="746">
      <contour>
        <pt x="591" y="91" on="0"/>
        <pt x="455" y="-6" on="0"/>
        <pt x="335" y="-8" on="1"/>
        <pt x="335" y="-107" on="1"/>
        <pt x="298" y="-107" on="1"/>
        <pt x="298" y="-7" on="1"/>
        <pt x="114" y="2" on="0"/>
        <pt x="62" y="120" on="1"/>
        <pt x="46" y="156" on="0"/>
        <pt x="43" y="198" on="1"/>
        <pt x="121" y="198" on="1"/>
        <pt x="123" y="138" on="0"/>
        <pt x="174" y="102" on="1"/>
        <pt x="219" y="70" on="0"/>
        <pt x="298" y="64" on="1"/>
        <pt x="298" y="307" on="1"/>
        <pt x="188" y="332" on="0"/>
        <pt x="104" y="384" on="0"/>
        <pt x="63" y="443" on="0"/>
        <pt x="63" y="487" on="1"/>
        <pt x="63" y="566" on="0"/>
        <pt x="180" y="667" on="0"/>
        <pt x="298" y="670" on="1"/>
        <pt x="298" y="746" on="1"/>
        <pt x="335" y="746" on="1"/>
        <pt x="335" y="669" on="1"/>
        <pt x="450" y="663" on="0"/>
        <pt x="512" y="608" on="1"/>
        <pt x="570" y="556" on="0"/>
        <pt x="574" y="481" on="1"/>
        <pt x="497" y="481" on="1"/>
        <pt x="491" y="528" on="0"/>
        <pt x="414" y="594" on="0"/>
        <pt x="335" y="599" on="1"/>
        <pt x="335" y="371" on="1"/>
        <pt x="381" y="360" on="0"/>
        <pt x="472" y="334" on="0"/>
        <pt x="508" y="313" on="1"/>
        <pt x="591" y="266" on="0"/>
      </contour>
      <contour>
        <pt x="136" y="484" on="1"/>
        <pt x="136" y="465" on="0"/>
        <pt x="162" y="431" on="0"/>
        <pt x="184" y="419" on="1"/>
        <pt x="222" y="399" on="0"/>
        <pt x="298" y="380" on="1"/>
        <pt x="298" y="600" on="1"/>
        <pt x="206" y="596" on="0"/>
        <pt x="166" y="558" on="1"/>
        <pt x="136" y="531" on="0"/>
      </contour>
      <contour>
        <pt x="335" y="63" on="1"/>
        <pt x="419" y="63" on="0"/>
        <pt x="516" y="121" on="0"/>
        <pt x="516" y="180" on="1"/>
        <pt x="516" y="247" on="0"/>
        <pt x="404" y="280" on="1"/>
        <pt x="371" y="289" on="0"/>
        <pt x="335" y="298" on="1"/>
      </contour>
    </TTGlyph>
    <TTGlyph name="dotaccent" xMin="74" yMin="579" xMax="163" yMax="662">
      <contour>
        <pt x="163" y="662" on="1"/>
        <pt x="163" y="579" on="1"/>
        <pt x="74" y="579" on="1"/>
        <pt x="74" y="662" on="1"/>
      </contour>
    </TTGlyph>
    <TTGlyph name="dotlessi" xMin="65" yMin="0" xMax="140" yMax="500">
      <contour>
        <pt x="65" y="500" on="1"/>
        <pt x="140" y="500" on="1"/>
        <pt x="140" y="0" on="1"/>
        <pt x="65" y="0" on="1"/>
      </contour>
    </TTGlyph>
    <TTGlyph name="e" xMin="34" yMin="-8" xMax="530" yMax="508">
      <contour>
        <pt x="288" y="60" on="1"/>
        <pt x="389" y="60" on="0"/>
        <pt x="433" y="144" on="1"/>
        <pt x="515" y="144" on="1"/>
        <pt x="489" y="76" on="0"/>
        <pt x="376" y="-8" on="0"/>
        <pt x="287" y="-8" on="1"/>
        <pt x="174" y="-8" on="0"/>
        <pt x="103" y="67" on="1"/>
        <pt x="34" y="140" on="0"/>
        <pt x="34" y="250" on="1"/>
        <pt x="34" y="361" on="0"/>
        <pt x="100" y="433" on="1"/>
        <pt x="170" y="508" on="0"/>
        <pt x="282" y="508" on="1"/>
        <pt x="394" y="508" on="0"/>
        <pt x="464" y="433" on="1"/>
        <pt x="530" y="361" on="0"/>
        <pt x="530" y="250" on="1"/>
        <pt x="530" y="220" on="1"/>
        <pt x="111" y="220" on="1"/>
        <pt x="119" y="151" on="0"/>
        <pt x="166" y="106" on="1"/>
        <pt x="214" y="60" on="0"/>
      </contour>
      <contour>
        <pt x="282" y="440" on="1"/>
        <pt x="213" y="440" on="0"/>
        <pt x="166" y="397" on="1"/>
        <pt x="122" y="356" on="0"/>
        <pt x="112" y="290" on="1"/>
        <pt x="452" y="290" on="1"/>
        <pt x="442" y="356" on="0"/>
        <pt x="398" y="397" on="1"/>
        <pt x="351" y="440" on="0"/>
      </contour>
    </TTGlyph>
    <TTGlyph name="eacute" xMin="34" yMin="-8" xMax="530" yMax="675">
      <component glyphName="e" x="0" y="0" flags="0x1204"/>
      <component glyphName="acute" x="125" y="0" flags="0x1004"/>
    </TTGlyph>
    <TTGlyph name="ecircumflex" xMin="34" yMin="-8" xMax="530" yMax="675">
      <component glyphName="e" x="0" y="0" flags="0x1204"/>
      <component glyphName="circumflex" x="92" y="0" flags="0x1004"/>
    </TTGlyph>
    <TTGlyph name="edieresis" xMin="34" yMin="-8" xMax="530" yMax="662">
      <component glyphName="e" x="0" y="0" flags="0x1204"/>
      <component glyphName="dieresis" x="85" y="0" flags="0x1004"/>
    </TTGlyph>
    <TTGlyph name="egrave" xMin="34" yMin="-8" xMax="530" yMax="675">
      <component glyphName="e" x="0" y="0" flags="0x1204"/>
      <component glyphName="grave" x="85" y="0" flags="0x1004"/>
    </TTGlyph>
    <TTGlyph name="eight" xMin="38" yMin="-8" xMax="512" yMax="670">
      <contour>
        <pt x="385" y="364" on="1"/>
        <pt x="444" y="341" on="0"/>
        <pt x="512" y="247" on="0"/>
        <pt x="512" y="146" on="0"/>
        <pt x="480" y="73" on="0"/>
        <pt x="450" y="47" on="1"/>
        <pt x="387" y="-8" on="0"/>
        <pt x="275" y="-8" on="1"/>
        <pt x="163" y="-8" on="0"/>
        <pt x="100" y="47" on="1"/>
        <pt x="38" y="101" on="0"/>
        <pt x="38" y="190" on="1"/>
        <pt x="38" y="247" on="0"/>
        <pt x="106" y="341" on="0"/>
        <pt x="165" y="364" on="1"/>
        <pt x="127" y="378" on="0"/>
        <pt x="98" y="410" on="1"/>
        <pt x="64" y="449" on="0"/>
        <pt x="64" y="503" on="1"/>
        <pt x="64" y="578" on="0"/>
        <pt x="172" y="670" on="0"/>
        <pt x="275" y="670" on="1"/>
        <pt x="378" y="670" on="0"/>
        <pt x="486" y="578" on="0"/>
        <pt x="486" y="503" on="1"/>
        <pt x="486" y="424" on="0"/>
        <pt x="419" y="382" on="1"/>
        <pt x="401" y="370" on="0"/>
      </contour>
      <contour>
        <pt x="275" y="396" on="1"/>
        <pt x="328" y="396" on="0"/>
        <pt x="366" y="420" on="1"/>
        <pt x="411" y="449" on="0"/>
        <pt x="411" y="547" on="0"/>
        <pt x="335" y="598" on="0"/>
        <pt x="275" y="598" on="1"/>
        <pt x="215" y="598" on="0"/>
        <pt x="139" y="547" on="0"/>
        <pt x="139" y="449" on="0"/>
        <pt x="222" y="396" on="0"/>
      </contour>
      <contour>
        <pt x="275" y="64" on="1"/>
        <pt x="350" y="64" on="0"/>
        <pt x="437" y="132" on="0"/>
        <pt x="437" y="191" on="1"/>
        <pt x="437" y="253" on="0"/>
        <pt x="389" y="292" on="1"/>
        <pt x="344" y="327" on="0"/>
        <pt x="275" y="327" on="1"/>
        <pt x="206" y="327" on="0"/>
        <pt x="161" y="292" on="1"/>
        <pt x="113" y="253" on="0"/>
        <pt x="113" y="132" on="0"/>
        <pt x="200" y="64" on="0"/>
      </contour>
    </TTGlyph>
    <TTGlyph name="ellipsis" xMin="53" yMin="0" xMax="734" yMax="102">
      <contour>
        <pt x="150" y="102" on="1"/>
        <pt x="150" y="0" on="1"/>
        <pt x="53" y="0" on="1"/>
        <pt x="53" y="102" on="1"/>
      </contour>
      <contour>
        <pt x="442" y="102" on="1"/>
        <pt x="442" y="0" on="1"/>
        <pt x="345" y="0" on="1"/>
        <pt x="345" y="102" on="1"/>
      </contour>
      <contour>
        <pt x="734" y="102" on="1"/>
        <pt x="734" y="0" on="1"/>
        <pt x="637" y="0" on="1"/>
        <pt x="637" y="102" on="1"/>
      </contour>
    </TTGlyph>
    <TTGlyph name="emdash" xMin="73" yMin="262" xMax="1073" yMax="329">
      <contour>
        <pt x="73" y="329" on="1"/>
        <pt x="1073" y="329" on="1"/>
        <pt x="1073" y="262" on="1"/>
        <pt x="73" y="262" on="1"/>
      </contour>
    </TTGlyph>
    <TTGlyph name="endash" xMin="55" yMin="262" xMax="555" yMax="329">
      <contour>
        <pt x="55" y="329" on="1"/>
        <pt x="555" y="329" on="1"/>
        <pt x="555" y="262" on="1"/>
        <pt x="55" y="262" on="1"/>
      </contour>
    </TTGlyph>
    <TTGlyph name="equal" xMin="57" yMin="103" xMax="493" yMax="368">
      <contour>
        <pt x="493" y="368" on="1"/>
        <pt x="493" y="301" on="1"/>
        <pt x="57" y="301" on="1"/>
        <pt x="57" y="368" on="1"/>
      </contour>
      <contour>
        <pt x="57" y="170" on="1"/>
        <pt x="493" y="170" on="1"/>
        <pt x="493" y="103" on="1"/>
        <pt x="57" y="103" on="1"/>
      </contour>
    </TTGlyph>
    <TTGlyph name="eth" xMin="34" yMin="-8" xMax="530" yMax="715">
      <contour>
        <pt x="342" y="625" on="1"/>
        <pt x="433" y="552" on="0"/>
        <pt x="476" y="480" on="1"/>
        <pt x="530" y="388" on="0"/>
        <pt x="530" y="269" on="1"/>
        <pt x="530" y="156" on="0"/>
        <pt x="466" y="78" on="1"/>
        <pt x="396" y="-8" on="0"/>
        <pt x="286" y="-8" on="1"/>
        <pt x="168" y="-8" on="0"/>
        <pt x="98" y="70" on="1"/>
        <pt x="34" y="140" on="0"/>
        <pt x="34" y="253" on="1"/>
        <pt x="34" y="363" on="0"/>
        <pt x="96" y="438" on="1"/>
        <pt x="159" y="514" on="0"/>
        <pt x="263" y="514" on="1"/>
        <pt x="354" y="514" on="0"/>
        <pt x="409" y="455" on="1"/>
        <pt x="380" y="511" on="0"/>
        <pt x="313" y="558" on="1"/>
        <pt x="295" y="570" on="0"/>
        <pt x="278" y="582" on="1"/>
        <pt x="222" y="545" on="1"/>
        <pt x="190" y="583" on="1"/>
        <pt x="233" y="611" on="1"/>
        <pt x="200" y="630" on="0"/>
        <pt x="169" y="644" on="1"/>
        <pt x="196" y="715" on="1"/>
        <pt x="249" y="690" on="0"/>
        <pt x="300" y="656" on="1"/>
        <pt x="375" y="706" on="1"/>
        <pt x="407" y="668" on="1"/>
      </contour>
      <contour>
        <pt x="282" y="59" on="1"/>
        <pt x="362" y="59" on="0"/>
        <pt x="410" y="118" on="1"/>
        <pt x="455" y="173" on="0"/>
        <pt x="455" y="253" on="1"/>
        <pt x="455" y="332" on="0"/>
        <pt x="406" y="388" on="1"/>
        <pt x="355" y="447" on="0"/>
        <pt x="274" y="447" on="1"/>
        <pt x="197" y="447" on="0"/>
        <pt x="151" y="390" on="1"/>
        <pt x="109" y="336" on="0"/>
        <pt x="109" y="253" on="1"/>
        <pt x="109" y="173" on="0"/>
        <pt x="154" y="118" on="1"/>
        <pt x="202" y="59" on="0"/>
      </contour>
    </TTGlyph>
    <TTGlyph name="exclam" xMin="62" yMin="0" xMax="159" yMax="662">
      <contour>
        <pt x="159" y="102" on="1"/>
        <pt x="159" y="0" on="1"/>
        <pt x="62" y="0" on="1"/>
        <pt x="62" y="102" on="1"/>
      </contour>
      <contour>
        <pt x="83" y="183" on="1"/>
        <pt x="64" y="662" on="1"/>
        <pt x="157" y="662" on="1"/>
        <pt x="138" y="183" on="1"/>
      </contour>
    </TTGlyph>
    <TTGlyph name="exclamdown" xMin="56" yMin="-162" xMax="153" yMax="500">
      <component glyphName="exclam" x="-6" y="500" scalex="1.0" scaley="-0.999938964844" flags="0x1004"/>
    </TTGlyph>
    <TTGlyph name="f" xMin="13" yMin="0" xMax="290" yMax="708">
      <contour>
        <pt x="280" y="637" on="1"/>
        <pt x="227" y="637" on="0"/>
        <pt x="174" y="590" on="0"/>
        <pt x="174" y="538" on="1"/>
        <pt x="174" y="500" on="1"/>
        <pt x="290" y="500" on="1"/>
        <pt x="290" y="434" on="1"/>
        <pt x="174" y="434" on="1"/>
        <pt x="174" y="0" on="1"/>
        <pt x="99" y="0" on="1"/>
        <pt x="99" y="434" on="1"/>
        <pt x="13" y="434" on="1"/>
        <pt x="13" y="500" on="1"/>
        <pt x="99" y="500" on="1"/>
        <pt x="99" y="544" on="1"/>
        <pt x="99" y="626" on="0"/>
        <pt x="197" y="708" on="0"/>
        <pt x="284" y="708" on="1"/>
        <pt x="290" y="708" on="1"/>
        <pt x="290" y="637" on="1"/>
      </contour>
    </TTGlyph>
    <TTGlyph name="f_f" xMin="13" yMin="0" xMax="587" yMax="708">
      <contour>
        <pt x="577" y="637" on="1"/>
        <pt x="524" y="637" on="0"/>
        <pt x="471" y="590" on="0"/>
        <pt x="471" y="538" on="1"/>
        <pt x="471" y="500" on="1"/>
        <pt x="587" y="500" on="1"/>
        <pt x="587" y="434" on="1"/>
        <pt x="471" y="434" on="1"/>
        <pt x="471" y="0" on="1"/>
        <pt x="396" y="0" on="1"/>
        <pt x="396" y="434" on="1"/>
        <pt x="174" y="434" on="1"/>
        <pt x="174" y="0" on="1"/>
        <pt x="99" y="0" on="1"/>
        <pt x="99" y="434" on="1"/>
        <pt x="13" y="434" on="1"/>
        <pt x="13" y="500" on="1"/>
        <pt x="99" y="500" on="1"/>
        <pt x="99" y="544" on="1"/>
        <pt x="99" y="626" on="0"/>
        <pt x="197" y="708" on="0"/>
        <pt x="284" y="708" on="1"/>
        <pt x="290" y="708" on="1"/>
        <pt x="290" y="637" on="1"/>
        <pt x="280" y="637" on="1"/>
        <pt x="227" y="637" on="0"/>
        <pt x="174" y="590" on="0"/>
        <pt x="174" y="538" on="1"/>
        <pt x="174" y="500" on="1"/>
        <pt x="396" y="500" on="1"/>
        <pt x="396" y="544" on="1"/>
        <pt x="396" y="626" on="0"/>
        <pt x="494" y="708" on="0"/>
        <pt x="581" y="708" on="1"/>
        <pt x="587" y="708" on="1"/>
        <pt x="587" y="637" on="1"/>
      </contour>
    </TTGlyph>
    <TTGlyph name="f_f_i" xMin="13" yMin="0" xMax="731" yMax="708">
      <contour>
        <pt x="653" y="434" on="1"/>
        <pt x="471" y="434" on="1"/>
        <pt x="471" y="0" on="1"/>
        <pt x="396" y="0" on="1"/>
        <pt x="396" y="434" on="1"/>
        <pt x="174" y="434" on="1"/>
        <pt x="174" y="0" on="1"/>
        <pt x="99" y="0" on="1"/>
        <pt x="99" y="434" on="1"/>
        <pt x="13" y="434" on="1"/>
        <pt x="13" y="500" on="1"/>
        <pt x="99" y="500" on="1"/>
        <pt x="99" y="544" on="1"/>
        <pt x="99" y="626" on="0"/>
        <pt x="197" y="708" on="0"/>
        <pt x="284" y="708" on="1"/>
        <pt x="290" y="708" on="1"/>
        <pt x="290" y="637" on="1"/>
        <pt x="280" y="637" on="1"/>
        <pt x="227" y="637" on="0"/>
        <pt x="174" y="590" on="0"/>
        <pt x="174" y="538" on="1"/>
        <pt x="174" y="500" on="1"/>
        <pt x="396" y="500" on="1"/>
        <pt x="396" y="544" on="1"/>
        <pt x="396" y="626" on="0"/>
        <pt x="494" y="708" on="0"/>
        <pt x="581" y="708" on="1"/>
        <pt x="587" y="708" on="1"/>
        <pt x="587" y="637" on="1"/>
        <pt x="577" y="637" on="1"/>
        <pt x="524" y="637" on="0"/>
        <pt x="471" y="590" on="0"/>
        <pt x="471" y="538" on="1"/>
        <pt x="471" y="500" on="1"/>
        <pt x="728" y="500" on="1"/>
        <pt x="728" y="0" on="1"/>
        <pt x="653" y="0" on="1"/>
      </contour>
      <contour>
        <pt x="731" y="682" on="1"/>
        <pt x="731" y="584" on="1"/>
        <pt x="650" y="584" on="1"/>
        <pt x="650" y="682" on="1"/>
      </contour>
    </TTGlyph>
    <TTGlyph name="f_f_l" xMin="13" yMin="0" xMax="728" yMax="708">
      <contour>
        <pt x="577" y="637" on="1"/>
        <pt x="524" y="637" on="0"/>
        <pt x="471" y="590" on="0"/>
        <pt x="471" y="538" on="1"/>
        <pt x="471" y="500" on="1"/>
        <pt x="587" y="500" on="1"/>
        <pt x="587" y="434" on="1"/>
        <pt x="471" y="434" on="1"/>
        <pt x="471" y="0" on="1"/>
        <pt x="396" y="0" on="1"/>
        <pt x="396" y="434" on="1"/>
        <pt x="174" y="434" on="1"/>
        <pt x="174" y="0" on="1"/>
        <pt x="99" y="0" on="1"/>
        <pt x="99" y="434" on="1"/>
        <pt x="13" y="434" on="1"/>
        <pt x="13" y="500" on="1"/>
        <pt x="99" y="500" on="1"/>
        <pt x="99" y="544" on="1"/>
        <pt x="99" y="626" on="0"/>
        <pt x="197" y="708" on="0"/>
        <pt x="284" y="708" on="1"/>
        <pt x="290" y="708" on="1"/>
        <pt x="290" y="637" on="1"/>
        <pt x="280" y="637" on="1"/>
        <pt x="227" y="637" on="0"/>
        <pt x="174" y="590" on="0"/>
        <pt x="174" y="538" on="1"/>
        <pt x="174" y="500" on="1"/>
        <pt x="396" y="500" on="1"/>
        <pt x="396" y="544" on="1"/>
        <pt x="396" y="626" on="0"/>
        <pt x="494" y="708" on="0"/>
        <pt x="581" y="708" on="1"/>
        <pt x="587" y="708" on="1"/>
        <pt x="587" y="637" on="1"/>
      </contour>
      <contour>
        <pt x="728" y="0" on="1"/>
        <pt x="653" y="0" on="1"/>
        <pt x="653" y="700" on="1"/>
        <pt x="728" y="700" on="1"/>
      </contour>
    </TTGlyph>
    <TTGlyph name="f_j" xMin="13" yMin="-198" xMax="435" yMax="708">
      <contour>
        <pt x="357" y="434" on="1"/>
        <pt x="174" y="434" on="1"/>
        <pt x="174" y="0" on="1"/>
        <pt x="99" y="0" on="1"/>
        <pt x="99" y="434" on="1"/>
        <pt x="13" y="434" on="1"/>
        <pt x="13" y="500" on="1"/>
        <pt x="99" y="500" on="1"/>
        <pt x="99" y="544" on="1"/>
        <pt x="99" y="626" on="0"/>
        <pt x="197" y="708" on="0"/>
        <pt x="284" y="708" on="1"/>
        <pt x="290" y="708" on="1"/>
        <pt x="290" y="637" on="1"/>
        <pt x="280" y="637" on="1"/>
        <pt x="227" y="637" on="0"/>
        <pt x="174" y="590" on="0"/>
        <pt x="174" y="538" on="1"/>
        <pt x="174" y="500" on="1"/>
        <pt x="432" y="500" on="1"/>
        <pt x="432" y="-198" on="1"/>
        <pt x="357" y="-198" on="1"/>
      </contour>
      <contour>
        <pt x="435" y="682" on="1"/>
        <pt x="435" y="584" on="1"/>
        <pt x="354" y="584" on="1"/>
        <pt x="354" y="682" on="1"/>
      </contour>
    </TTGlyph>
    <TTGlyph name="fi" xMin="13" yMin="0" xMax="434" yMax="708">
      <contour>
        <pt x="356" y="434" on="1"/>
        <pt x="174" y="434" on="1"/>
        <pt x="174" y="0" on="1"/>
        <pt x="99" y="0" on="1"/>
        <pt x="99" y="434" on="1"/>
        <pt x="13" y="434" on="1"/>
        <pt x="13" y="500" on="1"/>
        <pt x="99" y="500" on="1"/>
        <pt x="99" y="544" on="1"/>
        <pt x="99" y="626" on="0"/>
        <pt x="197" y="708" on="0"/>
        <pt x="284" y="708" on="1"/>
        <pt x="290" y="708" on="1"/>
        <pt x="290" y="637" on="1"/>
        <pt x="280" y="637" on="1"/>
        <pt x="227" y="637" on="0"/>
        <pt x="174" y="590" on="0"/>
        <pt x="174" y="538" on="1"/>
        <pt x="174" y="500" on="1"/>
        <pt x="431" y="500" on="1"/>
        <pt x="431" y="0" on="1"/>
        <pt x="356" y="0" on="1"/>
      </contour>
      <contour>
        <pt x="434" y="682" on="1"/>
        <pt x="434" y="584" on="1"/>
        <pt x="353" y="584" on="1"/>
        <pt x="353" y="682" on="1"/>
      </contour>
    </TTGlyph>
    <TTGlyph name="five" xMin="42" yMin="-8" xMax="502" yMax="662">
      <contour>
        <pt x="162" y="398" on="1"/>
        <pt x="213" y="429" on="0"/>
        <pt x="329" y="429" on="0"/>
        <pt x="411" y="397" on="0"/>
        <pt x="440" y="368" on="1"/>
        <pt x="502" y="308" on="0"/>
        <pt x="502" y="212" on="1"/>
        <pt x="502" y="120" on="0"/>
        <pt x="374" y="-8" on="0"/>
        <pt x="280" y="-8" on="1"/>
        <pt x="166" y="-8" on="0"/>
        <pt x="102" y="54" on="1"/>
        <pt x="55" y="99" on="0"/>
        <pt x="42" y="166" on="1"/>
        <pt x="119" y="166" on="1"/>
        <pt x="142" y="98" on="0"/>
        <pt x="213" y="74" on="1"/>
        <pt x="240" y="65" on="0"/>
        <pt x="311" y="65" on="0"/>
        <pt x="366" y="88" on="0"/>
        <pt x="386" y="108" on="1"/>
        <pt x="427" y="151" on="0"/>
        <pt x="427" y="212" on="1"/>
        <pt x="427" y="277" on="0"/>
        <pt x="386" y="318" on="1"/>
        <pt x="345" y="359" on="0"/>
        <pt x="279" y="359" on="1"/>
        <pt x="234" y="359" on="0"/>
        <pt x="165" y="326" on="0"/>
        <pt x="148" y="306" on="1"/>
        <pt x="79" y="348" on="1"/>
        <pt x="124" y="662" on="1"/>
        <pt x="469" y="662" on="1"/>
        <pt x="469" y="590" on="1"/>
        <pt x="192" y="590" on="1"/>
      </contour>
    </TTGlyph>
    <TTGlyph name="fl" xMin="13" yMin="0" xMax="431" yMax="708">
      <component glyphName="f" x="0" y="0" flags="0x1004"/>
      <component glyphName="l" x="291" y="0" flags="0x1004"/>
    </TTGlyph>
    <TTGlyph name="florin" xMin="-73" yMin="-149" xMax="364" yMax="708">
      <contour>
        <pt x="364" y="708" on="1"/>
        <pt x="352" y="637" on="1"/>
        <pt x="342" y="637" on="1"/>
        <pt x="290" y="637" on="0"/>
        <pt x="228" y="595" on="0"/>
        <pt x="218" y="538" on="1"/>
        <pt x="197" y="416" on="1"/>
        <pt x="313" y="416" on="1"/>
        <pt x="313" y="367" on="1"/>
        <pt x="188" y="367" on="1"/>
        <pt x="123" y="9" on="1"/>
        <pt x="97" y="-141" on="0"/>
        <pt x="-73" y="-149" on="1"/>
        <pt x="-62" y="-90" on="1"/>
        <pt x="33" y="-83" on="0"/>
        <pt x="47" y="3" on="1"/>
        <pt x="113" y="367" on="1"/>
        <pt x="27" y="367" on="1"/>
        <pt x="27" y="416" on="1"/>
        <pt x="122" y="416" on="1"/>
        <pt x="144" y="544" on="1"/>
        <pt x="160" y="634" on="0"/>
        <pt x="272" y="708" on="0"/>
        <pt x="358" y="708" on="1"/>
      </contour>
    </TTGlyph>
    <TTGlyph name="four" xMin="31" yMin="0" xMax="511" yMax="662">
      <contour>
        <pt x="511" y="236" on="1"/>
        <pt x="511" y="169" on="1"/>
        <pt x="422" y="169" on="1"/>
        <pt x="422" y="0" on="1"/>
        <pt x="347" y="0" on="1"/>
        <pt x="347" y="169" on="1"/>
        <pt x="31" y="169" on="1"/>
        <pt x="31" y="242" on="1"/>
        <pt x="309" y="662" on="1"/>
        <pt x="422" y="662" on="1"/>
        <pt x="422" y="236" on="1"/>
      </contour>
      <contour>
        <pt x="347" y="236" on="1"/>
        <pt x="347" y="598" on="1"/>
        <pt x="101" y="236" on="1"/>
      </contour>
    </TTGlyph>
    <TTGlyph name="fraction" xMin="-8" yMin="-14" xMax="476" yMax="674">
      <contour>
        <pt x="-8" y="-14" on="1"/>
        <pt x="412" y="674" on="1"/>
        <pt x="476" y="674" on="1"/>
        <pt x="56" y="-14" on="1"/>
      </contour>
    </TTGlyph>
    <TTGlyph name="g" xMin="34" yMin="-206" xMax="530" yMax="508">
      <contour>
        <pt x="455" y="420" on="1"/>
        <pt x="455" y="500" on="1"/>
        <pt x="530" y="500" on="1"/>
        <pt x="530" y="15" on="1"/>
        <pt x="530" y="-93" on="0"/>
        <pt x="407" y="-206" on="0"/>
        <pt x="199" y="-206" on="0"/>
        <pt x="82" y="-126" on="0"/>
        <pt x="61" y="-60" on="1"/>
        <pt x="144" y="-60" on="1"/>
        <pt x="176" y="-138" on="0"/>
        <pt x="290" y="-138" on="1"/>
        <pt x="377" y="-138" on="0"/>
        <pt x="455" y="-58" on="0"/>
        <pt x="455" y="20" on="1"/>
        <pt x="455" y="89" on="1"/>
        <pt x="394" y="0" on="0"/>
        <pt x="276" y="0" on="1"/>
        <pt x="168" y="0" on="0"/>
        <pt x="100" y="74" on="1"/>
        <pt x="34" y="146" on="0"/>
        <pt x="34" y="254" on="1"/>
        <pt x="34" y="362" on="0"/>
        <pt x="100" y="434" on="1"/>
        <pt x="168" y="508" on="0"/>
        <pt x="395" y="508" on="0"/>
      </contour>
      <contour>
        <pt x="286" y="68" on="1"/>
        <pt x="327" y="68" on="0"/>
        <pt x="391" y="97" on="0"/>
        <pt x="414" y="122" on="1"/>
        <pt x="459" y="174" on="0"/>
        <pt x="459" y="254" on="1"/>
        <pt x="459" y="334" on="0"/>
        <pt x="414" y="386" on="1"/>
        <pt x="365" y="440" on="0"/>
        <pt x="286" y="440" on="1"/>
        <pt x="205" y="440" on="0"/>
        <pt x="156" y="386" on="1"/>
        <pt x="109" y="333" on="0"/>
        <pt x="109" y="254" on="1"/>
        <pt x="109" y="175" on="0"/>
        <pt x="156" y="122" on="1"/>
        <pt x="205" y="68" on="0"/>
      </contour>
    </TTGlyph>
    <TTGlyph name="germandbls" xMin="65" yMin="0" xMax="523" yMax="670">
      <contour>
        <pt x="489" y="488" on="1"/>
        <pt x="489" y="371" on="0"/>
        <pt x="381" y="337" on="1"/>
        <pt x="472" y="316" on="0"/>
        <pt x="509" y="237" on="1"/>
        <pt x="523" y="207" on="0"/>
        <pt x="523" y="165" on="1"/>
        <pt x="523" y="85" on="0"/>
        <pt x="400" y="0" on="0"/>
        <pt x="293" y="0" on="1"/>
        <pt x="205" y="0" on="1"/>
        <pt x="205" y="66" on="1"/>
        <pt x="294" y="66" on="1"/>
        <pt x="363" y="66" on="0"/>
        <pt x="447" y="119" on="0"/>
        <pt x="447" y="176" on="1"/>
        <pt x="447" y="233" on="0"/>
        <pt x="347" y="304" on="0"/>
        <pt x="253" y="304" on="1"/>
        <pt x="253" y="359" on="1"/>
        <pt x="322" y="359" on="0"/>
        <pt x="367" y="390" on="1"/>
        <pt x="414" y="424" on="0"/>
        <pt x="414" y="533" on="0"/>
        <pt x="347" y="603" on="0"/>
        <pt x="278" y="603" on="1"/>
        <pt x="179" y="603" on="0"/>
        <pt x="150" y="540" on="1"/>
        <pt x="140" y="516" on="0"/>
        <pt x="140" y="480" on="1"/>
        <pt x="140" y="0" on="1"/>
        <pt x="65" y="0" on="1"/>
        <pt x="65" y="484" on="1"/>
        <pt x="65" y="571" on="0"/>
        <pt x="178" y="670" on="0"/>
        <pt x="279" y="670" on="1"/>
        <pt x="368" y="670" on="0"/>
        <pt x="425" y="627" on="1"/>
        <pt x="489" y="578" on="0"/>
      </contour>
    </TTGlyph>
    <TTGlyph name="grave" xMin="93" yMin="570" xMax="261" yMax="675">
      <contour>
        <pt x="261" y="570" on="1"/>
        <pt x="200" y="570" on="1"/>
        <pt x="93" y="675" on="1"/>
        <pt x="200" y="675" on="1"/>
      </contour>
    </TTGlyph>
    <TTGlyph name="greater" xMin="42" yMin="8" xMax="523" yMax="496">
      <contour>
        <pt x="42" y="86" on="1"/>
        <pt x="447" y="252" on="1"/>
        <pt x="42" y="418" on="1"/>
        <pt x="42" y="496" on="1"/>
        <pt x="523" y="283" on="1"/>
        <pt x="523" y="220" on="1"/>
        <pt x="42" y="8" on="1"/>
      </contour>
    </TTGlyph>
    <TTGlyph name="greaterequal" xMin="37" yMin="-34" xMax="518" yMax="512">
      <contour>
        <pt x="37" y="512" on="1"/>
        <pt x="518" y="327" on="1"/>
        <pt x="518" y="264" on="1"/>
        <pt x="37" y="80" on="1"/>
        <pt x="37" y="158" on="1"/>
        <pt x="432" y="296" on="1"/>
        <pt x="37" y="434" on="1"/>
      </contour>
      <contour>
        <pt x="518" y="-34" on="1"/>
        <pt x="37" y="-34" on="1"/>
        <pt x="37" y="32" on="1"/>
        <pt x="518" y="32" on="1"/>
      </contour>
    </TTGlyph>
    <TTGlyph name="guillemotleft" xMin="39" yMin="57" xMax="442" yMax="461">
      <contour>
        <pt x="305" y="259" on="1"/>
        <pt x="442" y="57" on="1"/>
        <pt x="353" y="57" on="1"/>
        <pt x="223" y="259" on="1"/>
        <pt x="353" y="461" on="1"/>
        <pt x="442" y="461" on="1"/>
      </contour>
      <contour>
        <pt x="121" y="259" on="1"/>
        <pt x="258" y="57" on="1"/>
        <pt x="169" y="57" on="1"/>
        <pt x="39" y="259" on="1"/>
        <pt x="169" y="461" on="1"/>
        <pt x="258" y="461" on="1"/>
      </contour>
    </TTGlyph>
    <TTGlyph name="guillemotright" xMin="45" yMin="57" xMax="448" yMax="461">
      <contour>
        <pt x="45" y="461" on="1"/>
        <pt x="134" y="461" on="1"/>
        <pt x="264" y="259" on="1"/>
        <pt x="134" y="57" on="1"/>
        <pt x="45" y="57" on="1"/>
        <pt x="182" y="259" on="1"/>
      </contour>
      <contour>
        <pt x="229" y="461" on="1"/>
        <pt x="318" y="461" on="1"/>
        <pt x="448" y="259" on="1"/>
        <pt x="318" y="57" on="1"/>
        <pt x="229" y="57" on="1"/>
        <pt x="366" y="259" on="1"/>
      </contour>
    </TTGlyph>
    <TTGlyph name="guilsinglleft" xMin="39" yMin="57" xMax="258" yMax="461">
      <contour>
        <pt x="121" y="259" on="1"/>
        <pt x="258" y="57" on="1"/>
        <pt x="169" y="57" on="1"/>
        <pt x="39" y="259" on="1"/>
        <pt x="169" y="461" on="1"/>
        <pt x="258" y="461" on="1"/>
      </contour>
    </TTGlyph>
    <TTGlyph name="guilsinglright" xMin="45" yMin="57" xMax="264" yMax="461">
      <contour>
        <pt x="45" y="461" on="1"/>
        <pt x="134" y="461" on="1"/>
        <pt x="264" y="259" on="1"/>
        <pt x="134" y="57" on="1"/>
        <pt x="45" y="57" on="1"/>
        <pt x="182" y="259" on="1"/>
      </contour>
    </TTGlyph>
    <TTGlyph name="h" xMin="65" yMin="0" xMax="506" yMax="700">
      <contour>
        <pt x="140" y="700" on="1"/>
        <pt x="140" y="422" on="1"/>
        <pt x="167" y="458" on="0"/>
        <pt x="245" y="508" on="0"/>
        <pt x="345" y="508" on="0"/>
        <pt x="417" y="480" on="0"/>
        <pt x="444" y="452" on="1"/>
        <pt x="506" y="391" on="0"/>
        <pt x="506" y="291" on="1"/>
        <pt x="506" y="0" on="1"/>
        <pt x="431" y="0" on="1"/>
        <pt x="431" y="289" on="1"/>
        <pt x="431" y="358" on="0"/>
        <pt x="353" y="440" on="0"/>
        <pt x="291" y="440" on="1"/>
        <pt x="228" y="440" on="0"/>
        <pt x="184" y="398" on="1"/>
        <pt x="140" y="355" on="0"/>
        <pt x="140" y="288" on="1"/>
        <pt x="140" y="0" on="1"/>
        <pt x="65" y="0" on="1"/>
        <pt x="65" y="700" on="1"/>
      </contour>
    </TTGlyph>
    <TTGlyph name="hungarumlaut" xMin="86" yMin="570" xMax="410" yMax="675">
      <contour>
        <pt x="147" y="675" on="1"/>
        <pt x="254" y="675" on="1"/>
        <pt x="147" y="570" on="1"/>
        <pt x="86" y="570" on="1"/>
      </contour>
      <contour>
        <pt x="303" y="675" on="1"/>
        <pt x="410" y="675" on="1"/>
        <pt x="303" y="570" on="1"/>
        <pt x="242" y="570" on="1"/>
      </contour>
    </TTGlyph>
    <TTGlyph name="hyphen" xMin="53" yMin="259" xMax="303" yMax="332">
      <contour>
        <pt x="53" y="332" on="1"/>
        <pt x="303" y="332" on="1"/>
        <pt x="303" y="259" on="1"/>
        <pt x="53" y="259" on="1"/>
      </contour>
    </TTGlyph>
    <TTGlyph name="i" xMin="62" yMin="0" xMax="143" yMax="682">
      <contour>
        <pt x="65" y="500" on="1"/>
        <pt x="140" y="500" on="1"/>
        <pt x="140" y="0" on="1"/>
        <pt x="65" y="0" on="1"/>
      </contour>
      <contour>
        <pt x="143" y="682" on="1"/>
        <pt x="143" y="584" on="1"/>
        <pt x="62" y="584" on="1"/>
        <pt x="62" y="682" on="1"/>
      </contour>
    </TTGlyph>
    <TTGlyph name="iacute" xMin="35" yMin="0" xMax="203" yMax="675">
      <component glyphName="dotlessi" x="0" y="0" flags="0x1204"/>
      <component glyphName="acute" x="-51" y="0" flags="0x1004"/>
    </TTGlyph>
    <TTGlyph name="icircumflex" xMin="-38" yMin="0" xMax="244" yMax="675">
      <component glyphName="dotlessi" x="0" y="0" flags="0x1204"/>
      <component glyphName="circumflex" x="-87" y="0" flags="0x1004"/>
    </TTGlyph>
    <TTGlyph name="idieresis" xMin="-20" yMin="0" xMax="226" yMax="662">
      <component glyphName="dotlessi" x="0" y="0" flags="0x1204"/>
      <component glyphName="dieresis" x="-94" y="0" flags="0x1004"/>
    </TTGlyph>
    <TTGlyph name="igrave" xMin="4" yMin="0" xMax="172" yMax="675">
      <component glyphName="dotlessi" x="0" y="0" flags="0x1204"/>
      <component glyphName="grave" x="-89" y="0" flags="0x1004"/>
    </TTGlyph>
    <TTGlyph name="infinity" xMin="46" yMin="96" xMax="705" yMax="414">
      <contour>
        <pt x="198" y="414" on="1"/>
        <pt x="290" y="414" on="0"/>
        <pt x="376" y="298" on="1"/>
        <pt x="431" y="378" on="0"/>
        <pt x="502" y="404" on="1"/>
        <pt x="527" y="414" on="0"/>
        <pt x="593" y="414" on="0"/>
        <pt x="651" y="384" on="0"/>
        <pt x="670" y="360" on="1"/>
        <pt x="705" y="315" on="0"/>
        <pt x="705" y="255" on="1"/>
        <pt x="705" y="193" on="0"/>
        <pt x="670" y="149" on="1"/>
        <pt x="627" y="96" on="0"/>
        <pt x="553" y="96" on="1"/>
        <pt x="481" y="96" on="0"/>
        <pt x="412" y="168" on="1"/>
        <pt x="392" y="189" on="0"/>
        <pt x="376" y="212" on="1"/>
        <pt x="290" y="96" on="0"/>
        <pt x="198" y="96" on="1"/>
        <pt x="124" y="96" on="0"/>
        <pt x="82" y="149" on="1"/>
        <pt x="46" y="193" on="0"/>
        <pt x="46" y="255" on="1"/>
        <pt x="46" y="315" on="0"/>
        <pt x="82" y="360" on="1"/>
        <pt x="124" y="414" on="0"/>
      </contour>
      <contour>
        <pt x="161" y="164" on="1"/>
        <pt x="179" y="154" on="0"/>
        <pt x="222" y="154" on="0"/>
        <pt x="261" y="171" on="0"/>
        <pt x="280" y="185" on="1"/>
        <pt x="317" y="212" on="0"/>
        <pt x="347" y="255" on="1"/>
        <pt x="300" y="322" on="0"/>
        <pt x="242" y="348" on="1"/>
        <pt x="222" y="356" on="0"/>
        <pt x="179" y="356" on="0"/>
        <pt x="143" y="337" on="0"/>
        <pt x="131" y="322" on="1"/>
        <pt x="108" y="295" on="0"/>
        <pt x="108" y="255" on="1"/>
        <pt x="108" y="191" on="0"/>
      </contour>
      <contour>
        <pt x="550" y="154" on="1"/>
        <pt x="572" y="154" on="0"/>
        <pt x="608" y="173" on="0"/>
        <pt x="620" y="188" on="1"/>
        <pt x="643" y="215" on="0"/>
        <pt x="643" y="255" on="1"/>
        <pt x="643" y="319" on="0"/>
        <pt x="590" y="346" on="1"/>
        <pt x="572" y="356" on="0"/>
        <pt x="529" y="356" on="0"/>
        <pt x="489" y="339" on="0"/>
        <pt x="470" y="325" on="1"/>
        <pt x="429" y="294" on="0"/>
        <pt x="404" y="255" on="1"/>
        <pt x="429" y="216" on="0"/>
        <pt x="470" y="185" on="1"/>
        <pt x="511" y="154" on="0"/>
      </contour>
    </TTGlyph>
    <TTGlyph name="integral" xMin="18" yMin="-178" xMax="290" yMax="781">
      <contour>
        <pt x="121" y="637" on="1"/>
        <pt x="121" y="766" on="0"/>
        <pt x="224" y="778" on="1"/>
        <pt x="254" y="781" on="0"/>
        <pt x="290" y="781" on="1"/>
        <pt x="290" y="727" on="1"/>
        <pt x="230" y="727" on="0"/>
        <pt x="187" y="688" on="0"/>
        <pt x="187" y="636" on="1"/>
        <pt x="187" y="-34" on="1"/>
        <pt x="187" y="-163" on="0"/>
        <pt x="84" y="-174" on="1"/>
        <pt x="54" y="-178" on="0"/>
        <pt x="18" y="-178" on="1"/>
        <pt x="18" y="-124" on="1"/>
        <pt x="78" y="-124" on="0"/>
        <pt x="121" y="-85" on="0"/>
        <pt x="121" y="-33" on="1"/>
      </contour>
    </TTGlyph>
    <TTGlyph name="j" xMin="62" yMin="-198" xMax="143" yMax="682">
      <contour>
        <pt x="65" y="500" on="1"/>
        <pt x="140" y="500" on="1"/>
        <pt x="140" y="-198" on="1"/>
        <pt x="65" y="-198" on="1"/>
      </contour>
      <contour>
        <pt x="143" y="682" on="1"/>
        <pt x="143" y="584" on="1"/>
        <pt x="62" y="584" on="1"/>
        <pt x="62" y="682" on="1"/>
      </contour>
    </TTGlyph>
    <TTGlyph name="k" xMin="65" yMin="0" xMax="501" yMax="700">
      <contour>
        <pt x="285" y="303" on="1"/>
        <pt x="501" y="0" on="1"/>
        <pt x="409" y="0" on="1"/>
        <pt x="234" y="251" on="1"/>
        <pt x="140" y="158" on="1"/>
        <pt x="140" y="0" on="1"/>
        <pt x="65" y="0" on="1"/>
        <pt x="65" y="700" on="1"/>
        <pt x="140" y="700" on="1"/>
        <pt x="140" y="252" on="1"/>
        <pt x="381" y="500" on="1"/>
        <pt x="486" y="500" on="1"/>
      </contour>
    </TTGlyph>
    <TTGlyph name="l" xMin="65" yMin="0" xMax="140" yMax="700">
      <contour>
        <pt x="140" y="0" on="1"/>
        <pt x="65" y="0" on="1"/>
        <pt x="65" y="700" on="1"/>
        <pt x="140" y="700" on="1"/>
      </contour>
    </TTGlyph>
    <TTGlyph name="less" xMin="26" yMin="8" xMax="507" yMax="496">
      <contour>
        <pt x="507" y="8" on="1"/>
        <pt x="26" y="220" on="1"/>
        <pt x="26" y="283" on="1"/>
        <pt x="507" y="496" on="1"/>
        <pt x="507" y="418" on="1"/>
        <pt x="102" y="252" on="1"/>
        <pt x="507" y="86" on="1"/>
      </contour>
    </TTGlyph>
    <TTGlyph name="lessequal" xMin="31" yMin="-34" xMax="512" yMax="512">
      <contour>
        <pt x="512" y="434" on="1"/>
        <pt x="117" y="296" on="1"/>
        <pt x="512" y="158" on="1"/>
        <pt x="512" y="80" on="1"/>
        <pt x="31" y="264" on="1"/>
        <pt x="31" y="327" on="1"/>
        <pt x="512" y="512" on="1"/>
      </contour>
      <contour>
        <pt x="31" y="32" on="1"/>
        <pt x="512" y="32" on="1"/>
        <pt x="512" y="-34" on="1"/>
        <pt x="31" y="-34" on="1"/>
      </contour>
    </TTGlyph>
    <TTGlyph name="logicalnot" xMin="62" yMin="186" xMax="529" yMax="389">
      <contour>
        <pt x="62" y="389" on="1"/>
        <pt x="529" y="389" on="1"/>
        <pt x="529" y="186" on="1"/>
        <pt x="457" y="186" on="1"/>
        <pt x="457" y="321" on="1"/>
        <pt x="62" y="321" on="1"/>
      </contour>
    </TTGlyph>
    <TTGlyph name="longs" xMin="13" yMin="0" xMax="290" yMax="708">
      <contour>
        <pt x="280" y="637" on="1"/>
        <pt x="227" y="637" on="0"/>
        <pt x="174" y="590" on="0"/>
        <pt x="174" y="538" on="1"/>
        <pt x="174" y="0" on="1"/>
        <pt x="99" y="0" on="1"/>
        <pt x="99" y="434" on="1"/>
        <pt x="13" y="434" on="1"/>
        <pt x="13" y="500" on="1"/>
        <pt x="99" y="500" on="1"/>
        <pt x="99" y="544" on="1"/>
        <pt x="99" y="626" on="0"/>
        <pt x="197" y="708" on="0"/>
        <pt x="284" y="708" on="1"/>
        <pt x="290" y="708" on="1"/>
        <pt x="290" y="637" on="1"/>
      </contour>
    </TTGlyph>
    <TTGlyph name="lozenge" xMin="36" yMin="-58" xMax="582" yMax="720">
      <contour>
        <pt x="582" y="331" on="1"/>
        <pt x="348" y="-58" on="1"/>
        <pt x="270" y="-58" on="1"/>
        <pt x="36" y="331" on="1"/>
        <pt x="270" y="720" on="1"/>
        <pt x="348" y="720" on="1"/>
      </contour>
      <contour>
        <pt x="500" y="331" on="1"/>
        <pt x="309" y="648" on="1"/>
        <pt x="118" y="331" on="1"/>
        <pt x="309" y="14" on="1"/>
      </contour>
    </TTGlyph>
    <TTGlyph name="m" xMin="65" yMin="0" xMax="808" yMax="508">
      <contour>
        <pt x="140" y="424" on="1"/>
        <pt x="190" y="508" on="0"/>
        <pt x="292" y="508" on="1"/>
        <pt x="342" y="508" on="0"/>
        <pt x="427" y="455" on="0"/>
        <pt x="451" y="407" on="1"/>
        <pt x="485" y="470" on="0"/>
        <pt x="557" y="497" on="1"/>
        <pt x="586" y="508" on="0"/>
        <pt x="659" y="508" on="0"/>
        <pt x="726" y="479" on="0"/>
        <pt x="752" y="452" on="1"/>
        <pt x="808" y="392" on="0"/>
        <pt x="808" y="302" on="1"/>
        <pt x="808" y="0" on="1"/>
        <pt x="733" y="0" on="1"/>
        <pt x="733" y="300" on="1"/>
        <pt x="733" y="362" on="0"/>
        <pt x="698" y="402" on="1"/>
        <pt x="663" y="440" on="0"/>
        <pt x="609" y="440" on="1"/>
        <pt x="552" y="440" on="0"/>
        <pt x="514" y="403" on="1"/>
        <pt x="474" y="365" on="0"/>
        <pt x="474" y="299" on="1"/>
        <pt x="474" y="0" on="1"/>
        <pt x="399" y="0" on="1"/>
        <pt x="399" y="300" on="1"/>
        <pt x="399" y="362" on="0"/>
        <pt x="364" y="402" on="1"/>
        <pt x="329" y="440" on="0"/>
        <pt x="275" y="440" on="1"/>
        <pt x="218" y="440" on="0"/>
        <pt x="180" y="403" on="1"/>
        <pt x="140" y="365" on="0"/>
        <pt x="140" y="299" on="1"/>
        <pt x="140" y="0" on="1"/>
        <pt x="65" y="0" on="1"/>
        <pt x="65" y="500" on="1"/>
        <pt x="140" y="500" on="1"/>
      </contour>
    </TTGlyph>
    <TTGlyph name="macron" xMin="57" yMin="582" xMax="321" yMax="642">
      <contour>
        <pt x="321" y="582" on="1"/>
        <pt x="57" y="582" on="1"/>
        <pt x="57" y="642" on="1"/>
        <pt x="321" y="642" on="1"/>
      </contour>
    </TTGlyph>
    <TTGlyph name="minus" xMin="50" yMin="203" xMax="500" yMax="268">
      <contour>
        <pt x="500" y="203" on="1"/>
        <pt x="50" y="203" on="1"/>
        <pt x="50" y="268" on="1"/>
        <pt x="500" y="268" on="1"/>
      </contour>
    </TTGlyph>
    <TTGlyph name="mu" xMin="72" yMin="-198" xMax="513" yMax="500">
      <contour>
        <pt x="276" y="-8" on="1"/>
        <pt x="197" y="-8" on="0"/>
        <pt x="147" y="46" on="1"/>
        <pt x="147" y="-198" on="1"/>
        <pt x="72" y="-198" on="1"/>
        <pt x="72" y="500" on="1"/>
        <pt x="147" y="500" on="1"/>
        <pt x="147" y="211" on="1"/>
        <pt x="147" y="142" on="0"/>
        <pt x="225" y="60" on="0"/>
        <pt x="287" y="60" on="1"/>
        <pt x="350" y="60" on="0"/>
        <pt x="394" y="102" on="1"/>
        <pt x="438" y="145" on="0"/>
        <pt x="438" y="212" on="1"/>
        <pt x="438" y="500" on="1"/>
        <pt x="513" y="500" on="1"/>
        <pt x="513" y="0" on="1"/>
        <pt x="438" y="0" on="1"/>
        <pt x="438" y="78" on="1"/>
        <pt x="411" y="42" on="0"/>
        <pt x="337" y="-8" on="0"/>
      </contour>
    </TTGlyph>
    <TTGlyph name="multiply" xMin="72" yMin="54" xMax="478" yMax="460">
      <contour>
        <pt x="325" y="257" on="1"/>
        <pt x="478" y="104" on="1"/>
        <pt x="429" y="54" on="1"/>
        <pt x="275" y="208" on="1"/>
        <pt x="122" y="54" on="1"/>
        <pt x="72" y="104" on="1"/>
        <pt x="226" y="257" on="1"/>
        <pt x="72" y="411" on="1"/>
        <pt x="122" y="460" on="1"/>
        <pt x="275" y="307" on="1"/>
        <pt x="429" y="460" on="1"/>
        <pt x="478" y="411" on="1"/>
      </contour>
    </TTGlyph>
    <TTGlyph name="n" xMin="65" yMin="0" xMax="506" yMax="508">
      <contour>
        <pt x="140" y="500" on="1"/>
        <pt x="140" y="422" on="1"/>
        <pt x="167" y="458" on="0"/>
        <pt x="245" y="508" on="0"/>
        <pt x="345" y="508" on="0"/>
        <pt x="417" y="480" on="0"/>
        <pt x="444" y="452" on="1"/>
        <pt x="506" y="391" on="0"/>
        <pt x="506" y="291" on="1"/>
        <pt x="506" y="0" on="1"/>
        <pt x="431" y="0" on="1"/>
        <pt x="431" y="289" on="1"/>
        <pt x="431" y="358" on="0"/>
        <pt x="353" y="440" on="0"/>
        <pt x="291" y="440" on="1"/>
        <pt x="228" y="440" on="0"/>
        <pt x="184" y="398" on="1"/>
        <pt x="140" y="355" on="0"/>
        <pt x="140" y="288" on="1"/>
        <pt x="140" y="0" on="1"/>
        <pt x="65" y="0" on="1"/>
        <pt x="65" y="500" on="1"/>
      </contour>
    </TTGlyph>
    <TTGlyph name="nine" xMin="34" yMin="-8" xMax="507" yMax="670">
      <contour>
        <pt x="137" y="154" on="1"/>
        <pt x="165" y="65" on="0"/>
        <pt x="256" y="65" on="1"/>
        <pt x="344" y="65" on="0"/>
        <pt x="390" y="144" on="1"/>
        <pt x="432" y="214" on="0"/>
        <pt x="432" y="334" on="1"/>
        <pt x="408" y="292" on="0"/>
        <pt x="315" y="240" on="0"/>
        <pt x="212" y="240" on="0"/>
        <pt x="130" y="272" on="0"/>
        <pt x="100" y="300" on="1"/>
        <pt x="34" y="362" on="0"/>
        <pt x="34" y="455" on="1"/>
        <pt x="34" y="546" on="0"/>
        <pt x="101" y="609" on="1"/>
        <pt x="166" y="670" on="0"/>
        <pt x="262" y="670" on="1"/>
        <pt x="383" y="670" on="0"/>
        <pt x="507" y="495" on="0"/>
        <pt x="507" y="331" on="1"/>
        <pt x="507" y="86" on="0"/>
        <pt x="366" y="16" on="1"/>
        <pt x="319" y="-8" on="0"/>
        <pt x="208" y="-8" on="0"/>
        <pt x="138" y="20" on="0"/>
        <pt x="114" y="43" on="1"/>
        <pt x="66" y="87" on="0"/>
        <pt x="53" y="154" on="1"/>
      </contour>
      <contour>
        <pt x="262" y="311" on="1"/>
        <pt x="293" y="311" on="0"/>
        <pt x="349" y="331" on="0"/>
        <pt x="370" y="350" on="1"/>
        <pt x="415" y="389" on="0"/>
        <pt x="415" y="450" on="1"/>
        <pt x="415" y="514" on="0"/>
        <pt x="370" y="556" on="1"/>
        <pt x="328" y="597" on="0"/>
        <pt x="262" y="597" on="1"/>
        <pt x="198" y="597" on="0"/>
        <pt x="154" y="557" on="1"/>
        <pt x="109" y="516" on="0"/>
        <pt x="109" y="455" on="1"/>
        <pt x="109" y="394" on="0"/>
        <pt x="154" y="352" on="1"/>
        <pt x="199" y="311" on="0"/>
      </contour>
    </TTGlyph>
    <TTGlyph name="notequal" xMin="57" yMin="-29" xMax="493" yMax="499">
      <contour>
        <pt x="343" y="301" on="1"/>
        <pt x="274" y="170" on="1"/>
        <pt x="493" y="170" on="1"/>
        <pt x="493" y="103" on="1"/>
        <pt x="238" y="103" on="1"/>
        <pt x="168" y="-29" on="1"/>
        <pt x="115" y="-1" on="1"/>
        <pt x="170" y="103" on="1"/>
        <pt x="57" y="103" on="1"/>
        <pt x="57" y="170" on="1"/>
        <pt x="206" y="170" on="1"/>
        <pt x="275" y="301" on="1"/>
        <pt x="57" y="301" on="1"/>
        <pt x="57" y="368" on="1"/>
        <pt x="311" y="368" on="1"/>
        <pt x="381" y="499" on="1"/>
        <pt x="434" y="471" on="1"/>
        <pt x="379" y="368" on="1"/>
        <pt x="493" y="368" on="1"/>
        <pt x="493" y="301" on="1"/>
      </contour>
    </TTGlyph>
    <TTGlyph name="ntilde" xMin="65" yMin="0" xMax="506" yMax="668">
      <component glyphName="n" x="0" y="0" flags="0x1204"/>
      <component glyphName="tilde" x="60" y="0" flags="0x1004"/>
    </TTGlyph>
    <TTGlyph name="numbersign" xMin="45" yMin="25" xMax="536" yMax="585">
      <contour>
        <pt x="186" y="442" on="1"/>
        <pt x="207" y="585" on="1"/>
        <pt x="272" y="585" on="1"/>
        <pt x="251" y="442" on="1"/>
        <pt x="367" y="442" on="1"/>
        <pt x="388" y="585" on="1"/>
        <pt x="453" y="585" on="1"/>
        <pt x="432" y="442" on="1"/>
        <pt x="536" y="442" on="1"/>
        <pt x="536" y="377" on="1"/>
        <pt x="423" y="377" on="1"/>
        <pt x="403" y="233" on="1"/>
        <pt x="506" y="233" on="1"/>
        <pt x="506" y="168" on="1"/>
        <pt x="394" y="168" on="1"/>
        <pt x="374" y="25" on="1"/>
        <pt x="309" y="25" on="1"/>
        <pt x="329" y="168" on="1"/>
        <pt x="213" y="168" on="1"/>
        <pt x="193" y="25" on="1"/>
        <pt x="128" y="25" on="1"/>
        <pt x="148" y="168" on="1"/>
        <pt x="45" y="168" on="1"/>
        <pt x="45" y="233" on="1"/>
        <pt x="157" y="233" on="1"/>
        <pt x="177" y="377" on="1"/>
        <pt x="75" y="377" on="1"/>
        <pt x="75" y="442" on="1"/>
      </contour>
      <contour>
        <pt x="222" y="233" on="1"/>
        <pt x="338" y="233" on="1"/>
        <pt x="358" y="377" on="1"/>
        <pt x="242" y="377" on="1"/>
      </contour>
    </TTGlyph>
    <TTGlyph name="o" xMin="34" yMin="-8" xMax="530" yMax="508">
      <contour>
        <pt x="282" y="508" on="1"/>
        <pt x="394" y="508" on="0"/>
        <pt x="464" y="433" on="1"/>
        <pt x="530" y="361" on="0"/>
        <pt x="530" y="250" on="1"/>
        <pt x="530" y="139" on="0"/>
        <pt x="464" y="67" on="1"/>
        <pt x="394" y="-8" on="0"/>
        <pt x="282" y="-8" on="1"/>
        <pt x="170" y="-8" on="0"/>
        <pt x="100" y="67" on="1"/>
        <pt x="34" y="139" on="0"/>
        <pt x="34" y="250" on="1"/>
        <pt x="34" y="361" on="0"/>
        <pt x="100" y="433" on="1"/>
        <pt x="170" y="508" on="0"/>
      </contour>
      <contour>
        <pt x="282" y="60" on="1"/>
        <pt x="363" y="60" on="0"/>
        <pt x="410" y="116" on="1"/>
        <pt x="455" y="169" on="0"/>
        <pt x="455" y="250" on="1"/>
        <pt x="455" y="331" on="0"/>
        <pt x="410" y="384" on="1"/>
        <pt x="363" y="440" on="0"/>
        <pt x="282" y="440" on="1"/>
        <pt x="201" y="440" on="0"/>
        <pt x="154" y="384" on="1"/>
        <pt x="109" y="331" on="0"/>
        <pt x="109" y="250" on="1"/>
        <pt x="109" y="169" on="0"/>
        <pt x="154" y="116" on="1"/>
        <pt x="201" y="60" on="0"/>
      </contour>
    </TTGlyph>
    <TTGlyph name="oacute" xMin="34" yMin="-8" xMax="530" yMax="675">
      <component glyphName="o" x="0" y="0" flags="0x1204"/>
      <component glyphName="acute" x="124" y="0" flags="0x1004"/>
    </TTGlyph>
    <TTGlyph name="ocircumflex" xMin="34" yMin="-8" xMax="530" yMax="675">
      <component glyphName="o" x="0" y="0" flags="0x1204"/>
      <component glyphName="circumflex" x="92" y="0" flags="0x1004"/>
    </TTGlyph>
    <TTGlyph name="odieresis" xMin="34" yMin="-8" xMax="530" yMax="662">
      <component glyphName="o" x="0" y="0" flags="0x1204"/>
      <component glyphName="dieresis" x="85" y="0" flags="0x1004"/>
    </TTGlyph>
    <TTGlyph name="oe" xMin="34" yMin="-8" xMax="945" yMax="508">
      <contour>
        <pt x="518" y="441" on="0"/>
        <pt x="622" y="508" on="0"/>
        <pt x="754" y="508" on="0"/>
        <pt x="846" y="468" on="0"/>
        <pt x="878" y="433" on="1"/>
        <pt x="945" y="361" on="0"/>
        <pt x="945" y="250" on="1"/>
        <pt x="945" y="220" on="1"/>
        <pt x="526" y="220" on="1"/>
        <pt x="535" y="149" on="0"/>
        <pt x="580" y="106" on="1"/>
        <pt x="628" y="60" on="0"/>
        <pt x="703" y="60" on="1"/>
        <pt x="759" y="60" on="0"/>
        <pt x="832" y="114" on="0"/>
        <pt x="852" y="157" on="1"/>
        <pt x="932" y="157" on="1"/>
        <pt x="908" y="84" on="0"/>
        <pt x="785" y="-8" on="0"/>
        <pt x="704" y="-8" on="1"/>
        <pt x="553" y="-8" on="0"/>
        <pt x="489" y="113" on="1"/>
        <pt x="461" y="58" on="0"/>
        <pt x="357" y="-8" on="0"/>
        <pt x="225" y="-8" on="0"/>
        <pt x="133" y="32" on="0"/>
        <pt x="100" y="67" on="1"/>
        <pt x="34" y="139" on="0"/>
        <pt x="34" y="250" on="1"/>
        <pt x="34" y="361" on="0"/>
        <pt x="100" y="433" on="1"/>
        <pt x="170" y="508" on="0"/>
        <pt x="282" y="508" on="1"/>
        <pt x="357" y="508" on="0"/>
        <pt x="461" y="441" on="0"/>
        <pt x="489" y="386" on="1"/>
      </contour>
      <contour>
        <pt x="282" y="60" on="1"/>
        <pt x="363" y="60" on="0"/>
        <pt x="410" y="116" on="1"/>
        <pt x="455" y="169" on="0"/>
        <pt x="455" y="250" on="1"/>
        <pt x="455" y="331" on="0"/>
        <pt x="410" y="384" on="1"/>
        <pt x="363" y="440" on="0"/>
        <pt x="282" y="440" on="1"/>
        <pt x="201" y="440" on="0"/>
        <pt x="154" y="384" on="1"/>
        <pt x="109" y="331" on="0"/>
        <pt x="109" y="250" on="1"/>
        <pt x="109" y="169" on="0"/>
        <pt x="154" y="116" on="1"/>
        <pt x="201" y="60" on="0"/>
      </contour>
      <contour>
        <pt x="867" y="290" on="1"/>
        <pt x="857" y="356" on="0"/>
        <pt x="812" y="397" on="1"/>
        <pt x="766" y="440" on="0"/>
        <pt x="697" y="440" on="1"/>
        <pt x="628" y="440" on="0"/>
        <pt x="582" y="397" on="1"/>
        <pt x="537" y="356" on="0"/>
        <pt x="527" y="290" on="1"/>
      </contour>
    </TTGlyph>
    <TTGlyph name="ogonek" xMin="57" yMin="-193" xMax="239" yMax="2">
      <contour>
        <pt x="239" y="-168" on="1"/>
        <pt x="194" y="-193" on="0"/>
        <pt x="114" y="-193" on="0"/>
        <pt x="57" y="-157" on="0"/>
        <pt x="57" y="-94" on="0"/>
        <pt x="80" y="-56" on="0"/>
        <pt x="98" y="-42" on="1"/>
        <pt x="123" y="-20" on="0"/>
        <pt x="173" y="2" on="1"/>
        <pt x="229" y="2" on="1"/>
        <pt x="202" y="-13" on="1"/>
        <pt x="134" y="-50" on="0"/>
        <pt x="134" y="-90" on="1"/>
        <pt x="134" y="-115" on="0"/>
        <pt x="171" y="-139" on="0"/>
        <pt x="223" y="-139" on="0"/>
        <pt x="239" y="-129" on="1"/>
      </contour>
    </TTGlyph>
    <TTGlyph name="ograve" xMin="34" yMin="-8" xMax="530" yMax="675">
      <component glyphName="o" x="0" y="0" flags="0x1204"/>
      <component glyphName="grave" x="88" y="0" flags="0x1004"/>
    </TTGlyph>
    <TTGlyph name="one" xMin="135" yMin="0" xMax="350" yMax="662">
      <contour>
        <pt x="350" y="662" on="1"/>
        <pt x="350" y="0" on="1"/>
        <pt x="275" y="0" on="1"/>
        <pt x="275" y="590" on="1"/>
        <pt x="135" y="590" on="1"/>
        <pt x="135" y="662" on="1"/>
      </contour>
    </TTGlyph>
    <TTGlyph name="onehalf" xMin="39" yMin="-14" xMax="705" yMax="674">
      <component glyphName="onesuperior" x="13" y="0" flags="0x1004"/>
      <component glyphName="fraction" x="106" y="0" flags="0x1004"/>
      <component glyphName="twosuperior" x="404" y="-299" flags="0x1004"/>
    </TTGlyph>
    <TTGlyph name="onequarter" xMin="39" yMin="-14" xMax="670" yMax="674">
      <contour>
        <pt x="670" y="137" on="1"/>
        <pt x="670" y="88" on="1"/>
        <pt x="624" y="88" on="1"/>
        <pt x="624" y="0" on="1"/>
        <pt x="569" y="0" on="1"/>
        <pt x="569" y="88" on="1"/>
        <pt x="404" y="88" on="1"/>
        <pt x="404" y="137" on="1"/>
        <pt x="553" y="361" on="1"/>
        <pt x="624" y="361" on="1"/>
        <pt x="624" y="137" on="1"/>
      </contour>
      <contour>
        <pt x="569" y="301" on="1"/>
        <pt x="460" y="137" on="1"/>
        <pt x="569" y="137" on="1"/>
      </contour>
      <contour>
        <pt x="167" y="662" on="1"/>
        <pt x="167" y="301" on="1"/>
        <pt x="112" y="301" on="1"/>
        <pt x="112" y="610" on="1"/>
        <pt x="39" y="610" on="1"/>
        <pt x="39" y="662" on="1"/>
      </contour>
      <contour>
        <pt x="98" y="-14" on="1"/>
        <pt x="518" y="674" on="1"/>
        <pt x="582" y="674" on="1"/>
        <pt x="162" y="-14" on="1"/>
      </contour>
    </TTGlyph>
    <TTGlyph name="onesuperior" xMin="26" yMin="301" xMax="154" yMax="662">
      <contour>
        <pt x="154" y="662" on="1"/>
        <pt x="154" y="301" on="1"/>
        <pt x="99" y="301" on="1"/>
        <pt x="99" y="610" on="1"/>
        <pt x="26" y="610" on="1"/>
        <pt x="26" y="662" on="1"/>
      </contour>
    </TTGlyph>
    <TTGlyph name="ordfeminine" xMin="37" yMin="392" xMax="314" yMax="666">
      <contour>
        <pt x="262" y="619" on="1"/>
        <pt x="262" y="662" on="1"/>
        <pt x="314" y="662" on="1"/>
        <pt x="314" y="396" on="1"/>
        <pt x="262" y="396" on="1"/>
        <pt x="262" y="439" on="1"/>
        <pt x="230" y="392" on="0"/>
        <pt x="167" y="392" on="1"/>
        <pt x="108" y="392" on="0"/>
        <pt x="72" y="432" on="1"/>
        <pt x="37" y="471" on="0"/>
        <pt x="37" y="587" on="0"/>
        <pt x="72" y="626" on="1"/>
        <pt x="108" y="666" on="0"/>
        <pt x="228" y="666" on="0"/>
      </contour>
      <contour>
        <pt x="89" y="490" on="0"/>
        <pt x="133" y="440" on="0"/>
        <pt x="217" y="440" on="0"/>
        <pt x="263" y="491" on="0"/>
        <pt x="263" y="529" on="1"/>
        <pt x="263" y="567" on="0"/>
        <pt x="217" y="618" on="0"/>
        <pt x="133" y="618" on="0"/>
        <pt x="89" y="567" on="0"/>
      </contour>
    </TTGlyph>
    <TTGlyph name="ordmasculine" xMin="37" yMin="392" xMax="305" yMax="666">
      <contour>
        <pt x="171" y="666" on="1"/>
        <pt x="231" y="666" on="0"/>
        <pt x="268" y="626" on="1"/>
        <pt x="305" y="588" on="0"/>
        <pt x="305" y="529" on="1"/>
        <pt x="305" y="470" on="0"/>
        <pt x="268" y="432" on="1"/>
        <pt x="231" y="392" on="0"/>
        <pt x="171" y="392" on="1"/>
        <pt x="111" y="392" on="0"/>
        <pt x="74" y="432" on="1"/>
        <pt x="37" y="470" on="0"/>
        <pt x="37" y="529" on="1"/>
        <pt x="37" y="588" on="0"/>
        <pt x="74" y="626" on="1"/>
        <pt x="111" y="666" on="0"/>
      </contour>
      <contour>
        <pt x="171" y="440" on="1"/>
        <pt x="212" y="440" on="0"/>
        <pt x="253" y="493" on="0"/>
        <pt x="253" y="564" on="0"/>
        <pt x="212" y="618" on="0"/>
        <pt x="171" y="618" on="1"/>
        <pt x="130" y="618" on="0"/>
        <pt x="89" y="564" on="0"/>
        <pt x="89" y="493" on="0"/>
        <pt x="130" y="440" on="0"/>
      </contour>
    </TTGlyph>
    <TTGlyph name="oslash" xMin="34" yMin="-17" xMax="530" yMax="516">
      <contour>
        <pt x="282" y="508" on="1"/>
        <pt x="374" y="508" on="0"/>
        <pt x="439" y="456" on="1"/>
        <pt x="493" y="516" on="1"/>
        <pt x="519" y="493" on="1"/>
        <pt x="465" y="431" on="1"/>
        <pt x="530" y="360" on="0"/>
        <pt x="530" y="250" on="1"/>
        <pt x="530" y="139" on="0"/>
        <pt x="464" y="67" on="1"/>
        <pt x="394" y="-8" on="0"/>
        <pt x="282" y="-8" on="1"/>
        <pt x="188" y="-8" on="0"/>
        <pt x="126" y="44" on="1"/>
        <pt x="72" y="-17" on="1"/>
        <pt x="46" y="6" on="1"/>
        <pt x="100" y="68" on="1"/>
        <pt x="34" y="140" on="0"/>
        <pt x="34" y="250" on="1"/>
        <pt x="34" y="361" on="0"/>
        <pt x="100" y="433" on="1"/>
        <pt x="170" y="508" on="0"/>
      </contour>
      <contour>
        <pt x="392" y="402" on="1"/>
        <pt x="348" y="440" on="0"/>
        <pt x="282" y="440" on="1"/>
        <pt x="201" y="440" on="0"/>
        <pt x="154" y="384" on="1"/>
        <pt x="109" y="331" on="0"/>
        <pt x="109" y="250" on="1"/>
        <pt x="109" y="175" on="0"/>
        <pt x="149" y="123" on="1"/>
      </contour>
      <contour>
        <pt x="416" y="376" on="1"/>
        <pt x="173" y="98" on="1"/>
        <pt x="217" y="60" on="0"/>
        <pt x="363" y="60" on="0"/>
        <pt x="455" y="169" on="0"/>
        <pt x="455" y="325" on="0"/>
      </contour>
    </TTGlyph>
    <TTGlyph name="oslashacute" xMin="34" yMin="-17" xMax="530" yMax="675">
      <component glyphName="oslash" x="0" y="0" flags="0x1204"/>
      <component glyphName="acute" x="124" y="0" flags="0x1004"/>
    </TTGlyph>
    <TTGlyph name="otilde" xMin="34" yMin="-8" xMax="530" yMax="668">
      <component glyphName="o" x="0" y="0" flags="0x1204"/>
      <component glyphName="tilde" x="58" y="0" flags="0x1004"/>
    </TTGlyph>
    <TTGlyph name="p" xMin="65" yMin="-198" xMax="561" yMax="508">
      <contour>
        <pt x="140" y="420" on="1"/>
        <pt x="200" y="508" on="0"/>
        <pt x="319" y="508" on="1"/>
        <pt x="427" y="508" on="0"/>
        <pt x="494" y="433" on="1"/>
        <pt x="561" y="359" on="0"/>
        <pt x="561" y="250" on="1"/>
        <pt x="561" y="141" on="0"/>
        <pt x="494" y="67" on="1"/>
        <pt x="427" y="-8" on="0"/>
        <pt x="201" y="-8" on="0"/>
        <pt x="140" y="81" on="1"/>
        <pt x="140" y="-198" on="1"/>
        <pt x="65" y="-198" on="1"/>
        <pt x="65" y="500" on="1"/>
        <pt x="140" y="500" on="1"/>
      </contour>
      <contour>
        <pt x="309" y="440" on="1"/>
        <pt x="228" y="440" on="0"/>
        <pt x="181" y="384" on="1"/>
        <pt x="136" y="331" on="0"/>
        <pt x="136" y="250" on="1"/>
        <pt x="136" y="169" on="0"/>
        <pt x="181" y="116" on="1"/>
        <pt x="228" y="60" on="0"/>
        <pt x="309" y="60" on="1"/>
        <pt x="389" y="60" on="0"/>
        <pt x="439" y="116" on="1"/>
        <pt x="486" y="169" on="0"/>
        <pt x="486" y="250" on="1"/>
        <pt x="486" y="331" on="0"/>
        <pt x="439" y="384" on="1"/>
        <pt x="389" y="440" on="0"/>
      </contour>
    </TTGlyph>
    <TTGlyph name="paragraph" xMin="36" yMin="-141" xMax="509" yMax="670">
      <contour>
        <pt x="509" y="616" on="1"/>
        <pt x="466" y="616" on="1"/>
        <pt x="466" y="-141" on="1"/>
        <pt x="407" y="-141" on="1"/>
        <pt x="407" y="616" on="1"/>
        <pt x="335" y="616" on="1"/>
        <pt x="335" y="-141" on="1"/>
        <pt x="276" y="-141" on="1"/>
        <pt x="276" y="335" on="1"/>
        <pt x="203" y="335" on="1"/>
        <pt x="133" y="335" on="0"/>
        <pt x="36" y="432" on="0"/>
        <pt x="36" y="502" on="1"/>
        <pt x="36" y="571" on="0"/>
        <pt x="84" y="621" on="1"/>
        <pt x="132" y="670" on="0"/>
        <pt x="203" y="670" on="1"/>
        <pt x="509" y="670" on="1"/>
      </contour>
    </TTGlyph>
    <TTGlyph name="parenleft" xMin="35" yMin="-138" xMax="231" yMax="700">
      <contour>
        <pt x="231" y="700" on="1"/>
        <pt x="111" y="506" on="0"/>
        <pt x="111" y="54" on="0"/>
        <pt x="231" y="-138" on="1"/>
        <pt x="163" y="-138" on="1"/>
        <pt x="35" y="61" on="0"/>
        <pt x="35" y="501" on="0"/>
        <pt x="163" y="700" on="1"/>
      </contour>
    </TTGlyph>
    <TTGlyph name="parenright" xMin="14" yMin="-138" xMax="210" yMax="700">
      <contour>
        <pt x="14" y="-138" on="1"/>
        <pt x="134" y="54" on="0"/>
        <pt x="134" y="506" on="0"/>
        <pt x="14" y="700" on="1"/>
        <pt x="82" y="700" on="1"/>
        <pt x="210" y="501" on="0"/>
        <pt x="210" y="61" on="0"/>
        <pt x="82" y="-138" on="1"/>
      </contour>
    </TTGlyph>
    <TTGlyph name="partialdiff" xMin="41" yMin="-8" xMax="550" yMax="722">
      <contour>
        <pt x="308" y="658" on="1"/>
        <pt x="238" y="658" on="0"/>
        <pt x="184" y="604" on="1"/>
        <pt x="143" y="638" on="1"/>
        <pt x="218" y="720" on="0"/>
        <pt x="327" y="722" on="1"/>
        <pt x="438" y="724" on="0"/>
        <pt x="497" y="641" on="1"/>
        <pt x="550" y="566" on="0"/>
        <pt x="550" y="440" on="1"/>
        <pt x="550" y="342" on="0"/>
        <pt x="520" y="244" on="1"/>
        <pt x="465" y="69" on="0"/>
        <pt x="338" y="12" on="1"/>
        <pt x="292" y="-8" on="0"/>
        <pt x="193" y="-8" on="0"/>
        <pt x="122" y="18" on="0"/>
        <pt x="96" y="42" on="1"/>
        <pt x="41" y="91" on="0"/>
        <pt x="41" y="169" on="1"/>
        <pt x="41" y="275" on="0"/>
        <pt x="124" y="350" on="1"/>
        <pt x="203" y="422" on="0"/>
        <pt x="308" y="422" on="1"/>
        <pt x="369" y="422" on="0"/>
        <pt x="443" y="386" on="0"/>
        <pt x="472" y="360" on="1"/>
        <pt x="478" y="390" on="0"/>
        <pt x="478" y="484" on="0"/>
        <pt x="462" y="568" on="0"/>
        <pt x="442" y="597" on="1"/>
        <pt x="401" y="658" on="0"/>
      </contour>
      <contour>
        <pt x="150" y="281" on="0"/>
        <pt x="118" y="219" on="0"/>
        <pt x="118" y="129" on="0"/>
        <pt x="191" y="65" on="0"/>
        <pt x="290" y="65" on="0"/>
        <pt x="359" y="102" on="0"/>
        <pt x="386" y="134" on="1"/>
        <pt x="440" y="198" on="0"/>
        <pt x="459" y="297" on="1"/>
        <pt x="432" y="320" on="0"/>
        <pt x="359" y="351" on="0"/>
        <pt x="266" y="351" on="0"/>
        <pt x="201" y="326" on="0"/>
      </contour>
    </TTGlyph>
    <TTGlyph name="percent" xMin="42" yMin="-12" xMax="803" yMax="670">
      <contour>
        <pt x="342" y="556" on="0"/>
        <pt x="342" y="384" on="0"/>
        <pt x="261" y="288" on="0"/>
        <pt x="122" y="288" on="0"/>
        <pt x="42" y="384" on="0"/>
        <pt x="42" y="571" on="0"/>
        <pt x="122" y="667" on="0"/>
        <pt x="268" y="665" on="0"/>
      </contour>
      <contour>
        <pt x="192" y="345" on="1"/>
        <pt x="259" y="348" on="0"/>
        <pt x="276" y="431" on="1"/>
        <pt x="280" y="454" on="0"/>
        <pt x="280" y="477" on="1"/>
        <pt x="280" y="543" on="0"/>
        <pt x="233" y="609" on="0"/>
        <pt x="150" y="609" on="0"/>
        <pt x="103" y="543" on="0"/>
        <pt x="103" y="477" on="1"/>
        <pt x="103" y="411" on="0"/>
        <pt x="150" y="345" on="0"/>
      </contour>
      <contour>
        <pt x="803" y="260" on="0"/>
        <pt x="803" y="88" on="0"/>
        <pt x="722" y="-8" on="0"/>
        <pt x="583" y="-8" on="0"/>
        <pt x="503" y="88" on="0"/>
        <pt x="503" y="275" on="0"/>
        <pt x="583" y="371" on="0"/>
        <pt x="729" y="369" on="0"/>
      </contour>
      <contour>
        <pt x="653" y="49" on="1"/>
        <pt x="720" y="52" on="0"/>
        <pt x="736" y="135" on="1"/>
        <pt x="741" y="158" on="0"/>
        <pt x="741" y="181" on="1"/>
        <pt x="741" y="247" on="0"/>
        <pt x="694" y="313" on="0"/>
        <pt x="611" y="313" on="0"/>
        <pt x="564" y="247" on="0"/>
        <pt x="564" y="181" on="1"/>
        <pt x="564" y="115" on="0"/>
        <pt x="611" y="49" on="0"/>
      </contour>
      <contour>
        <pt x="683" y="670" on="1"/>
        <pt x="224" y="-12" on="1"/>
        <pt x="161" y="-12" on="1"/>
        <pt x="620" y="670" on="1"/>
      </contour>
    </TTGlyph>
    <TTGlyph name="period" xMin="53" yMin="0" xMax="150" yMax="102">
      <contour>
        <pt x="150" y="102" on="1"/>
        <pt x="150" y="0" on="1"/>
        <pt x="53" y="0" on="1"/>
        <pt x="53" y="102" on="1"/>
      </contour>
    </TTGlyph>
    <TTGlyph name="periodcentered" xMin="53" yMin="242" xMax="150" yMax="344">
      <contour>
        <pt x="150" y="344" on="1"/>
        <pt x="150" y="242" on="1"/>
        <pt x="53" y="242" on="1"/>
        <pt x="53" y="344" on="1"/>
      </contour>
    </TTGlyph>
    <TTGlyph name="perthousand" xMin="43" yMin="-12" xMax="1152" yMax="670">
      <contour>
        <pt x="343" y="556" on="0"/>
        <pt x="343" y="384" on="0"/>
        <pt x="262" y="288" on="0"/>
        <pt x="123" y="288" on="0"/>
        <pt x="43" y="384" on="0"/>
        <pt x="43" y="571" on="0"/>
        <pt x="123" y="667" on="0"/>
        <pt x="269" y="665" on="0"/>
      </contour>
      <contour>
        <pt x="193" y="345" on="1"/>
        <pt x="260" y="348" on="0"/>
        <pt x="276" y="431" on="1"/>
        <pt x="281" y="454" on="0"/>
        <pt x="281" y="477" on="1"/>
        <pt x="281" y="543" on="0"/>
        <pt x="234" y="609" on="0"/>
        <pt x="151" y="609" on="0"/>
        <pt x="104" y="543" on="0"/>
        <pt x="104" y="477" on="1"/>
        <pt x="104" y="411" on="0"/>
        <pt x="151" y="345" on="0"/>
      </contour>
      <contour>
        <pt x="804" y="260" on="0"/>
        <pt x="804" y="88" on="0"/>
        <pt x="723" y="-8" on="0"/>
        <pt x="584" y="-8" on="0"/>
        <pt x="504" y="88" on="0"/>
        <pt x="504" y="275" on="0"/>
        <pt x="584" y="371" on="0"/>
        <pt x="730" y="369" on="0"/>
      </contour>
      <contour>
        <pt x="654" y="49" on="1"/>
        <pt x="721" y="52" on="0"/>
        <pt x="738" y="135" on="1"/>
        <pt x="742" y="158" on="0"/>
        <pt x="742" y="181" on="1"/>
        <pt x="742" y="247" on="0"/>
        <pt x="695" y="313" on="0"/>
        <pt x="612" y="313" on="0"/>
        <pt x="565" y="247" on="0"/>
        <pt x="565" y="181" on="1"/>
        <pt x="565" y="115" on="0"/>
        <pt x="612" y="49" on="0"/>
      </contour>
      <contour>
        <pt x="684" y="670" on="1"/>
        <pt x="225" y="-12" on="1"/>
        <pt x="162" y="-12" on="1"/>
        <pt x="621" y="670" on="1"/>
      </contour>
      <contour>
        <pt x="1152" y="260" on="0"/>
        <pt x="1152" y="88" on="0"/>
        <pt x="1071" y="-8" on="0"/>
        <pt x="932" y="-8" on="0"/>
        <pt x="852" y="88" on="0"/>
        <pt x="852" y="275" on="0"/>
        <pt x="932" y="371" on="0"/>
        <pt x="1078" y="369" on="0"/>
      </contour>
      <contour>
        <pt x="1002" y="49" on="1"/>
        <pt x="1069" y="52" on="0"/>
        <pt x="1086" y="135" on="1"/>
        <pt x="1090" y="158" on="0"/>
        <pt x="1090" y="181" on="1"/>
        <pt x="1090" y="247" on="0"/>
        <pt x="1043" y="313" on="0"/>
        <pt x="960" y="313" on="0"/>
        <pt x="913" y="247" on="0"/>
        <pt x="913" y="181" on="1"/>
        <pt x="913" y="115" on="0"/>
        <pt x="960" y="49" on="0"/>
      </contour>
    </TTGlyph>
    <TTGlyph name="pi" xMin="19" yMin="-7" xMax="557" yMax="490">
      <contour>
        <pt x="460" y="119" on="1"/>
        <pt x="460" y="47" on="0"/>
        <pt x="535" y="47" on="1"/>
        <pt x="535" y="-7" on="1"/>
        <pt x="465" y="-7" on="0"/>
        <pt x="430" y="19" on="1"/>
        <pt x="387" y="51" on="0"/>
        <pt x="387" y="129" on="1"/>
        <pt x="387" y="424" on="1"/>
        <pt x="190" y="424" on="1"/>
        <pt x="190" y="0" on="1"/>
        <pt x="116" y="0" on="1"/>
        <pt x="116" y="424" on="1"/>
        <pt x="19" y="424" on="1"/>
        <pt x="19" y="490" on="1"/>
        <pt x="557" y="490" on="1"/>
        <pt x="557" y="424" on="1"/>
        <pt x="460" y="424" on="1"/>
      </contour>
    </TTGlyph>
    <TTGlyph name="plus" xMin="50" yMin="0" xMax="500" yMax="471">
      <contour>
        <pt x="500" y="203" on="1"/>
        <pt x="307" y="203" on="1"/>
        <pt x="307" y="0" on="1"/>
        <pt x="242" y="0" on="1"/>
        <pt x="242" y="203" on="1"/>
        <pt x="50" y="203" on="1"/>
        <pt x="50" y="268" on="1"/>
        <pt x="242" y="268" on="1"/>
        <pt x="242" y="471" on="1"/>
        <pt x="307" y="471" on="1"/>
        <pt x="307" y="268" on="1"/>
        <pt x="500" y="268" on="1"/>
      </contour>
    </TTGlyph>
    <TTGlyph name="plusminus" xMin="50" yMin="0" xMax="500" yMax="495">
      <contour>
        <pt x="500" y="276" on="1"/>
        <pt x="307" y="276" on="1"/>
        <pt x="307" y="122" on="1"/>
        <pt x="242" y="122" on="1"/>
        <pt x="242" y="276" on="1"/>
        <pt x="50" y="276" on="1"/>
        <pt x="50" y="341" on="1"/>
        <pt x="242" y="341" on="1"/>
        <pt x="242" y="495" on="1"/>
        <pt x="307" y="495" on="1"/>
        <pt x="307" y="341" on="1"/>
        <pt x="500" y="341" on="1"/>
      </contour>
      <contour>
        <pt x="500" y="0" on="1"/>
        <pt x="50" y="0" on="1"/>
        <pt x="50" y="62" on="1"/>
        <pt x="500" y="62" on="1"/>
      </contour>
    </TTGlyph>
    <TTGlyph name="product" xMin="77" yMin="-180" xMax="594" yMax="748">
      <contour>
        <pt x="77" y="-180" on="1"/>
        <pt x="77" y="748" on="1"/>
        <pt x="594" y="748" on="1"/>
        <pt x="594" y="-180" on="1"/>
        <pt x="521" y="-180" on="1"/>
        <pt x="521" y="682" on="1"/>
        <pt x="151" y="682" on="1"/>
        <pt x="151" y="-180" on="1"/>
      </contour>
    </TTGlyph>
    <TTGlyph name="q" xMin="34" yMin="-198" xMax="530" yMax="508">
      <contour>
        <pt x="455" y="81" on="1"/>
        <pt x="394" y="-8" on="0"/>
        <pt x="276" y="-8" on="1"/>
        <pt x="168" y="-8" on="0"/>
        <pt x="100" y="67" on="1"/>
        <pt x="34" y="141" on="0"/>
        <pt x="34" y="250" on="1"/>
        <pt x="34" y="359" on="0"/>
        <pt x="100" y="433" on="1"/>
        <pt x="168" y="508" on="0"/>
        <pt x="395" y="508" on="0"/>
        <pt x="455" y="420" on="1"/>
        <pt x="455" y="500" on="1"/>
        <pt x="530" y="500" on="1"/>
        <pt x="530" y="-198" on="1"/>
        <pt x="455" y="-198" on="1"/>
      </contour>
      <contour>
        <pt x="286" y="440" on="1"/>
        <pt x="206" y="440" on="0"/>
        <pt x="156" y="384" on="1"/>
        <pt x="109" y="331" on="0"/>
        <pt x="109" y="250" on="1"/>
        <pt x="109" y="169" on="0"/>
        <pt x="156" y="116" on="1"/>
        <pt x="206" y="60" on="0"/>
        <pt x="286" y="60" on="1"/>
        <pt x="367" y="60" on="0"/>
        <pt x="414" y="116" on="1"/>
        <pt x="459" y="169" on="0"/>
        <pt x="459" y="250" on="1"/>
        <pt x="459" y="331" on="0"/>
        <pt x="414" y="384" on="1"/>
        <pt x="367" y="440" on="0"/>
      </contour>
    </TTGlyph>
    <TTGlyph name="question" xMin="39" yMin="0" xMax="465" yMax="670">
      <contour>
        <pt x="465" y="486" on="1"/>
        <pt x="465" y="450" on="0"/>
        <pt x="441" y="394" on="0"/>
        <pt x="404" y="349" on="0"/>
        <pt x="361" y="311" on="0"/>
        <pt x="342" y="290" on="1"/>
        <pt x="300" y="242" on="0"/>
        <pt x="300" y="183" on="1"/>
        <pt x="227" y="183" on="1"/>
        <pt x="227" y="276" on="0"/>
        <pt x="310" y="352" on="1"/>
        <pt x="361" y="397" on="0"/>
        <pt x="394" y="458" on="0"/>
        <pt x="394" y="508" on="0"/>
        <pt x="382" y="547" on="0"/>
        <pt x="367" y="564" on="1"/>
        <pt x="333" y="601" on="0"/>
        <pt x="266" y="601" on="1"/>
        <pt x="197" y="601" on="0"/>
        <pt x="154" y="560" on="1"/>
        <pt x="114" y="522" on="0"/>
        <pt x="110" y="466" on="1"/>
        <pt x="39" y="466" on="1"/>
        <pt x="43" y="551" on="0"/>
        <pt x="102" y="609" on="1"/>
        <pt x="165" y="670" on="0"/>
        <pt x="260" y="670" on="1"/>
        <pt x="362" y="670" on="0"/>
        <pt x="416" y="614" on="1"/>
        <pt x="465" y="563" on="0"/>
      </contour>
      <contour>
        <pt x="312" y="102" on="1"/>
        <pt x="312" y="0" on="1"/>
        <pt x="215" y="0" on="1"/>
        <pt x="215" y="102" on="1"/>
      </contour>
    </TTGlyph>
    <TTGlyph name="questiondown" xMin="45" yMin="-170" xMax="472" yMax="500">
      <component glyphName="question" x="510" y="500" scale="-0.999938964844" flags="0x1004"/>
    </TTGlyph>
    <TTGlyph name="quotedbl" xMin="47" yMin="443" xMax="270" yMax="662">
      <contour>
        <pt x="117" y="443" on="1"/>
        <pt x="66" y="443" on="1"/>
        <pt x="47" y="662" on="1"/>
        <pt x="136" y="662" on="1"/>
      </contour>
      <contour>
        <pt x="251" y="443" on="1"/>
        <pt x="200" y="443" on="1"/>
        <pt x="181" y="662" on="1"/>
        <pt x="270" y="662" on="1"/>
      </contour>
    </TTGlyph>
    <TTGlyph name="quotedblbase" xMin="11" yMin="-133" xMax="317" yMax="80">
      <contour>
        <pt x="219" y="80" on="1"/>
        <pt x="317" y="80" on="1"/>
        <pt x="229" y="-133" on="1"/>
        <pt x="161" y="-133" on="1"/>
      </contour>
      <contour>
        <pt x="69" y="80" on="1"/>
        <pt x="167" y="80" on="1"/>
        <pt x="79" y="-133" on="1"/>
        <pt x="11" y="-133" on="1"/>
      </contour>
    </TTGlyph>
    <TTGlyph name="quotedblleft" xMin="36" yMin="475" xMax="342" yMax="688">
      <contour>
        <pt x="134" y="475" on="1"/>
        <pt x="36" y="475" on="1"/>
        <pt x="124" y="688" on="1"/>
        <pt x="192" y="688" on="1"/>
      </contour>
      <contour>
        <pt x="284" y="475" on="1"/>
        <pt x="186" y="475" on="1"/>
        <pt x="274" y="688" on="1"/>
        <pt x="342" y="688" on="1"/>
      </contour>
    </TTGlyph>
    <TTGlyph name="quotedblright" xMin="40" yMin="475" xMax="346" yMax="688">
      <contour>
        <pt x="248" y="688" on="1"/>
        <pt x="346" y="688" on="1"/>
        <pt x="258" y="475" on="1"/>
        <pt x="190" y="475" on="1"/>
      </contour>
      <contour>
        <pt x="98" y="688" on="1"/>
        <pt x="196" y="688" on="1"/>
        <pt x="108" y="475" on="1"/>
        <pt x="40" y="475" on="1"/>
      </contour>
    </TTGlyph>
    <TTGlyph name="quoteleft" xMin="36" yMin="475" xMax="192" yMax="688">
      <contour>
        <pt x="134" y="475" on="1"/>
        <pt x="36" y="475" on="1"/>
        <pt x="124" y="688" on="1"/>
        <pt x="192" y="688" on="1"/>
      </contour>
    </TTGlyph>
    <TTGlyph name="quoteright" xMin="40" yMin="475" xMax="196" yMax="688">
      <contour>
        <pt x="98" y="688" on="1"/>
        <pt x="196" y="688" on="1"/>
        <pt x="108" y="475" on="1"/>
        <pt x="40" y="475" on="1"/>
      </contour>
    </TTGlyph>
    <TTGlyph name="quotesinglbase" xMin="11" yMin="-133" xMax="167" yMax="80">
      <contour>
        <pt x="69" y="80" on="1"/>
        <pt x="167" y="80" on="1"/>
        <pt x="79" y="-133" on="1"/>
        <pt x="11" y="-133" on="1"/>
      </contour>
    </TTGlyph>
    <TTGlyph name="quotesingle" xMin="47" yMin="443" xMax="136" yMax="662">
      <contour>
        <pt x="117" y="443" on="1"/>
        <pt x="66" y="443" on="1"/>
        <pt x="47" y="662" on="1"/>
        <pt x="136" y="662" on="1"/>
      </contour>
    </TTGlyph>
    <TTGlyph name="r" xMin="65" yMin="0" xMax="329" yMax="508">
      <contour>
        <pt x="329" y="508" on="1"/>
        <pt x="329" y="433" on="1"/>
        <pt x="320" y="433" on="1"/>
        <pt x="239" y="433" on="0"/>
        <pt x="188" y="368" on="1"/>
        <pt x="140" y="306" on="0"/>
        <pt x="140" y="220" on="1"/>
        <pt x="140" y="0" on="1"/>
        <pt x="65" y="0" on="1"/>
        <pt x="65" y="500" on="1"/>
        <pt x="140" y="500" on="1"/>
        <pt x="140" y="377" on="1"/>
        <pt x="164" y="455" on="0"/>
        <pt x="244" y="492" on="1"/>
        <pt x="277" y="508" on="0"/>
        <pt x="324" y="508" on="1"/>
      </contour>
    </TTGlyph>
    <TTGlyph name="radical" xMin="3" yMin="-163" xMax="669" yMax="740">
      <contour>
        <pt x="397" y="-163" on="1"/>
        <pt x="310" y="-163" on="1"/>
        <pt x="142" y="209" on="1"/>
        <pt x="25" y="164" on="1"/>
        <pt x="3" y="220" on="1"/>
        <pt x="191" y="294" on="1"/>
        <pt x="358" y="-82" on="1"/>
        <pt x="613" y="740" on="1"/>
        <pt x="669" y="723" on="1"/>
      </contour>
    </TTGlyph>
    <TTGlyph name="registered" xMin="47" yMin="-13" xMax="732" yMax="672">
      <contour>
        <pt x="558" y="407" on="1"/>
        <pt x="558" y="373" on="0"/>
        <pt x="518" y="320" on="0"/>
        <pt x="483" y="309" on="1"/>
        <pt x="538" y="293" on="0"/>
        <pt x="550" y="219" on="1"/>
        <pt x="553" y="200" on="0"/>
        <pt x="553" y="185" on="1"/>
        <pt x="553" y="138" on="1"/>
        <pt x="484" y="138" on="1"/>
        <pt x="484" y="176" on="1"/>
        <pt x="484" y="219" on="0"/>
        <pt x="475" y="238" on="1"/>
        <pt x="456" y="278" on="0"/>
        <pt x="407" y="278" on="1"/>
        <pt x="310" y="278" on="1"/>
        <pt x="310" y="138" on="1"/>
        <pt x="240" y="138" on="1"/>
        <pt x="240" y="520" on="1"/>
        <pt x="402" y="520" on="1"/>
        <pt x="483" y="520" on="0"/>
        <pt x="558" y="458" on="0"/>
      </contour>
      <contour>
        <pt x="397" y="338" on="1"/>
        <pt x="439" y="338" on="0"/>
        <pt x="489" y="370" on="0"/>
        <pt x="489" y="428" on="0"/>
        <pt x="449" y="461" on="0"/>
        <pt x="395" y="461" on="1"/>
        <pt x="310" y="461" on="1"/>
        <pt x="310" y="338" on="1"/>
      </contour>
      <contour>
        <pt x="389" y="672" on="1"/>
        <pt x="460" y="672" on="0"/>
        <pt x="585" y="618" on="0"/>
        <pt x="678" y="525" on="0"/>
        <pt x="732" y="400" on="0"/>
        <pt x="732" y="329" on="1"/>
        <pt x="732" y="258" on="0"/>
        <pt x="678" y="134" on="0"/>
        <pt x="585" y="41" on="0"/>
        <pt x="460" y="-13" on="0"/>
        <pt x="389" y="-13" on="1"/>
        <pt x="318" y="-13" on="0"/>
        <pt x="194" y="41" on="0"/>
        <pt x="101" y="134" on="0"/>
        <pt x="47" y="258" on="0"/>
        <pt x="47" y="329" on="1"/>
        <pt x="47" y="400" on="0"/>
        <pt x="101" y="525" on="0"/>
        <pt x="194" y="618" on="0"/>
        <pt x="318" y="672" on="0"/>
      </contour>
      <contour>
        <pt x="389" y="36" on="1"/>
        <pt x="511" y="36" on="0"/>
        <pt x="597" y="122" on="1"/>
        <pt x="637" y="162" on="0"/>
        <pt x="683" y="269" on="0"/>
        <pt x="683" y="390" on="0"/>
        <pt x="637" y="497" on="0"/>
        <pt x="597" y="537" on="1"/>
        <pt x="511" y="623" on="0"/>
        <pt x="389" y="623" on="1"/>
        <pt x="266" y="623" on="0"/>
        <pt x="182" y="537" on="1"/>
        <pt x="96" y="450" on="0"/>
        <pt x="96" y="329" on="1"/>
        <pt x="96" y="269" on="0"/>
        <pt x="142" y="162" on="0"/>
        <pt x="182" y="122" on="1"/>
        <pt x="266" y="36" on="0"/>
      </contour>
    </TTGlyph>
    <TTGlyph name="ring" xMin="74" yMin="556" xMax="254" yMax="735">
      <contour>
        <pt x="200" y="556" on="0"/>
        <pt x="126" y="556" on="0"/>
        <pt x="74" y="608" on="0"/>
        <pt x="74" y="683" on="0"/>
        <pt x="126" y="735" on="0"/>
        <pt x="200" y="735" on="0"/>
        <pt x="254" y="684" on="0"/>
        <pt x="254" y="607" on="0"/>
      </contour>
      <contour>
        <pt x="120" y="627" on="0"/>
        <pt x="146" y="601" on="0"/>
        <pt x="182" y="601" on="0"/>
        <pt x="208" y="627" on="0"/>
        <pt x="208" y="664" on="0"/>
        <pt x="182" y="690" on="0"/>
        <pt x="146" y="690" on="0"/>
        <pt x="120" y="664" on="0"/>
      </contour>
    </TTGlyph>
    <TTGlyph name="s" xMin="30" yMin="-8" xMax="451" yMax="508">
      <contour>
        <pt x="359" y="366" on="1"/>
        <pt x="349" y="444" on="0"/>
        <pt x="118" y="444" on="0"/>
        <pt x="118" y="372" on="1"/>
        <pt x="118" y="342" on="0"/>
        <pt x="167" y="311" on="0"/>
        <pt x="241" y="291" on="0"/>
        <pt x="328" y="274" on="0"/>
        <pt x="402" y="243" on="0"/>
        <pt x="451" y="189" on="0"/>
        <pt x="451" y="142" on="1"/>
        <pt x="451" y="69" on="0"/>
        <pt x="341" y="-8" on="0"/>
        <pt x="247" y="-8" on="1"/>
        <pt x="147" y="-8" on="0"/>
        <pt x="88" y="42" on="1"/>
        <pt x="34" y="86" on="0"/>
        <pt x="30" y="157" on="1"/>
        <pt x="108" y="157" on="1"/>
        <pt x="115" y="88" on="0"/>
        <pt x="186" y="64" on="1"/>
        <pt x="212" y="56" on="0"/>
        <pt x="263" y="56" on="0"/>
        <pt x="307" y="62" on="0"/>
        <pt x="328" y="70" on="1"/>
        <pt x="376" y="89" on="0"/>
        <pt x="376" y="135" on="1"/>
        <pt x="376" y="166" on="0"/>
        <pt x="327" y="199" on="0"/>
        <pt x="253" y="220" on="0"/>
        <pt x="166" y="237" on="0"/>
        <pt x="92" y="267" on="0"/>
        <pt x="43" y="319" on="0"/>
        <pt x="43" y="365" on="1"/>
        <pt x="43" y="433" on="0"/>
        <pt x="142" y="508" on="0"/>
        <pt x="239" y="508" on="1"/>
        <pt x="331" y="508" on="0"/>
        <pt x="384" y="464" on="1"/>
        <pt x="428" y="427" on="0"/>
        <pt x="435" y="366" on="1"/>
      </contour>
    </TTGlyph>
    <TTGlyph name="section" xMin="47" yMin="-178" xMax="474" yMax="669">
      <contour>
        <pt x="396" y="74" on="1"/>
        <pt x="435" y="31" on="0"/>
        <pt x="435" y="-72" on="0"/>
        <pt x="397" y="-131" on="0"/>
        <pt x="370" y="-148" on="1"/>
        <pt x="321" y="-178" on="0"/>
        <pt x="250" y="-178" on="1"/>
        <pt x="169" y="-178" on="0"/>
        <pt x="113" y="-131" on="1"/>
        <pt x="59" y="-86" on="0"/>
        <pt x="53" y="-19" on="1"/>
        <pt x="122" y="-19" on="1"/>
        <pt x="128" y="-56" on="0"/>
        <pt x="163" y="-82" on="1"/>
        <pt x="201" y="-111" on="0"/>
        <pt x="299" y="-111" on="0"/>
        <pt x="362" y="-71" on="0"/>
        <pt x="362" y="-1" on="0"/>
        <pt x="315" y="50" on="0"/>
        <pt x="245" y="97" on="0"/>
        <pt x="164" y="143" on="0"/>
        <pt x="94" y="196" on="0"/>
        <pt x="47" y="258" on="0"/>
        <pt x="47" y="298" on="1"/>
        <pt x="47" y="385" on="0"/>
        <pt x="124" y="416" on="1"/>
        <pt x="86" y="463" on="0"/>
        <pt x="86" y="563" on="0"/>
        <pt x="122" y="622" on="0"/>
        <pt x="150" y="639" on="1"/>
        <pt x="198" y="669" on="0"/>
        <pt x="267" y="669" on="1"/>
        <pt x="347" y="669" on="0"/>
        <pt x="402" y="622" on="1"/>
        <pt x="454" y="577" on="0"/>
        <pt x="460" y="510" on="1"/>
        <pt x="391" y="510" on="1"/>
        <pt x="385" y="547" on="0"/>
        <pt x="352" y="573" on="1"/>
        <pt x="316" y="602" on="0"/>
        <pt x="218" y="602" on="0"/>
        <pt x="159" y="562" on="0"/>
        <pt x="159" y="493" on="0"/>
        <pt x="206" y="441" on="0"/>
        <pt x="276" y="394" on="0"/>
        <pt x="357" y="348" on="0"/>
        <pt x="427" y="295" on="0"/>
        <pt x="474" y="233" on="0"/>
        <pt x="474" y="193" on="1"/>
        <pt x="474" y="105" on="0"/>
      </contour>
      <contour>
        <pt x="360" y="109" on="1"/>
        <pt x="401" y="128" on="0"/>
        <pt x="401" y="210" on="0"/>
        <pt x="352" y="262" on="0"/>
        <pt x="280" y="309" on="0"/>
        <pt x="196" y="354" on="0"/>
        <pt x="161" y="382" on="1"/>
        <pt x="120" y="362" on="0"/>
        <pt x="120" y="281" on="0"/>
        <pt x="169" y="228" on="0"/>
        <pt x="241" y="182" on="0"/>
        <pt x="325" y="137" on="0"/>
      </contour>
    </TTGlyph>
    <TTGlyph name="semicolon" xMin="25" yMin="-133" xMax="181" yMax="500">
      <contour>
        <pt x="177" y="500" on="1"/>
        <pt x="177" y="398" on="1"/>
        <pt x="80" y="398" on="1"/>
        <pt x="80" y="500" on="1"/>
      </contour>
      <contour>
        <pt x="83" y="80" on="1"/>
        <pt x="181" y="80" on="1"/>
        <pt x="93" y="-133" on="1"/>
        <pt x="25" y="-133" on="1"/>
      </contour>
    </TTGlyph>
    <TTGlyph name="seven" xMin="47" yMin="0" xMax="506" yMax="662">
      <contour>
        <pt x="506" y="662" on="1"/>
        <pt x="506" y="577" on="1"/>
        <pt x="230" y="0" on="1"/>
        <pt x="143" y="0" on="1"/>
        <pt x="429" y="590" on="1"/>
        <pt x="47" y="590" on="1"/>
        <pt x="47" y="662" on="1"/>
      </contour>
    </TTGlyph>
    <TTGlyph name="six" xMin="43" yMin="-8" xMax="516" yMax="670">
      <contour>
        <pt x="413" y="508" on="1"/>
        <pt x="385" y="597" on="0"/>
        <pt x="294" y="597" on="1"/>
        <pt x="206" y="597" on="0"/>
        <pt x="160" y="518" on="1"/>
        <pt x="118" y="448" on="0"/>
        <pt x="118" y="328" on="1"/>
        <pt x="142" y="370" on="0"/>
        <pt x="235" y="422" on="0"/>
        <pt x="338" y="422" on="0"/>
        <pt x="420" y="390" on="0"/>
        <pt x="450" y="362" on="1"/>
        <pt x="516" y="300" on="0"/>
        <pt x="516" y="207" on="1"/>
        <pt x="516" y="116" on="0"/>
        <pt x="449" y="53" on="1"/>
        <pt x="384" y="-8" on="0"/>
        <pt x="288" y="-8" on="1"/>
        <pt x="167" y="-8" on="0"/>
        <pt x="43" y="167" on="0"/>
        <pt x="43" y="331" on="1"/>
        <pt x="43" y="576" on="0"/>
        <pt x="184" y="646" on="1"/>
        <pt x="231" y="670" on="0"/>
        <pt x="342" y="670" on="0"/>
        <pt x="412" y="642" on="0"/>
        <pt x="436" y="619" on="1"/>
        <pt x="484" y="575" on="0"/>
        <pt x="497" y="508" on="1"/>
      </contour>
      <contour>
        <pt x="288" y="351" on="1"/>
        <pt x="256" y="351" on="0"/>
        <pt x="201" y="331" on="0"/>
        <pt x="180" y="312" on="1"/>
        <pt x="135" y="273" on="0"/>
        <pt x="135" y="212" on="1"/>
        <pt x="135" y="148" on="0"/>
        <pt x="180" y="106" on="1"/>
        <pt x="222" y="65" on="0"/>
        <pt x="288" y="65" on="1"/>
        <pt x="352" y="65" on="0"/>
        <pt x="396" y="105" on="1"/>
        <pt x="441" y="146" on="0"/>
        <pt x="441" y="207" on="1"/>
        <pt x="441" y="268" on="0"/>
        <pt x="396" y="310" on="1"/>
        <pt x="351" y="351" on="0"/>
      </contour>
    </TTGlyph>
    <TTGlyph name="slash" xMin="36" yMin="-32" xMax="335" yMax="680">
      <contour>
        <pt x="335" y="680" on="1"/>
        <pt x="106" y="-32" on="1"/>
        <pt x="36" y="-32" on="1"/>
        <pt x="265" y="680" on="1"/>
      </contour>
    </TTGlyph>
    <TTGlyph name="sterling" xMin="48" yMin="0" xMax="531" yMax="670">
      <contour>
        <pt x="328" y="670" on="1"/>
        <pt x="380" y="670" on="0"/>
        <pt x="449" y="645" on="0"/>
        <pt x="473" y="624" on="1"/>
        <pt x="518" y="585" on="0"/>
        <pt x="531" y="518" on="1"/>
        <pt x="460" y="518" on="1"/>
        <pt x="443" y="573" on="0"/>
        <pt x="385" y="592" on="1"/>
        <pt x="364" y="599" on="0"/>
        <pt x="291" y="599" on="0"/>
        <pt x="237" y="570" on="0"/>
        <pt x="223" y="548" on="1"/>
        <pt x="201" y="513" on="0"/>
        <pt x="201" y="446" on="1"/>
        <pt x="201" y="377" on="1"/>
        <pt x="349" y="377" on="1"/>
        <pt x="349" y="319" on="1"/>
        <pt x="201" y="319" on="1"/>
        <pt x="201" y="70" on="1"/>
        <pt x="504" y="70" on="1"/>
        <pt x="504" y="0" on="1"/>
        <pt x="48" y="0" on="1"/>
        <pt x="48" y="61" on="1"/>
        <pt x="128" y="70" on="1"/>
        <pt x="128" y="319" on="1"/>
        <pt x="57" y="319" on="1"/>
        <pt x="57" y="377" on="1"/>
        <pt x="128" y="377" on="1"/>
        <pt x="128" y="449" on="1"/>
        <pt x="128" y="544" on="0"/>
        <pt x="174" y="603" on="1"/>
        <pt x="226" y="670" on="0"/>
      </contour>
    </TTGlyph>
    <TTGlyph name="summation" xMin="42" yMin="-180" xMax="606" yMax="748">
      <contour>
        <pt x="606" y="675" on="1"/>
        <pt x="143" y="675" on="1"/>
        <pt x="478" y="284" on="1"/>
        <pt x="143" y="-107" on="1"/>
        <pt x="606" y="-107" on="1"/>
        <pt x="606" y="-180" on="1"/>
        <pt x="42" y="-180" on="1"/>
        <pt x="42" y="-113" on="1"/>
        <pt x="375" y="284" on="1"/>
        <pt x="42" y="682" on="1"/>
        <pt x="42" y="748" on="1"/>
        <pt x="606" y="748" on="1"/>
      </contour>
    </TTGlyph>
    <TTGlyph name="t" xMin="17" yMin="0" xMax="309" yMax="679">
      <contour>
        <pt x="119" y="0" on="1"/>
        <pt x="119" y="434" on="1"/>
        <pt x="17" y="434" on="1"/>
        <pt x="17" y="500" on="1"/>
        <pt x="119" y="500" on="1"/>
        <pt x="119" y="679" on="1"/>
        <pt x="194" y="679" on="1"/>
        <pt x="194" y="500" on="1"/>
        <pt x="309" y="500" on="1"/>
        <pt x="309" y="434" on="1"/>
        <pt x="194" y="434" on="1"/>
        <pt x="194" y="0" on="1"/>
      </contour>
    </TTGlyph>
    <TTGlyph name="thorn" xMin="65" yMin="-198" xMax="561" yMax="700">
      <contour>
        <pt x="140" y="419" on="1"/>
        <pt x="201" y="508" on="0"/>
        <pt x="319" y="508" on="1"/>
        <pt x="427" y="508" on="0"/>
        <pt x="494" y="433" on="1"/>
        <pt x="561" y="359" on="0"/>
        <pt x="561" y="250" on="1"/>
        <pt x="561" y="141" on="0"/>
        <pt x="494" y="67" on="1"/>
        <pt x="427" y="-8" on="0"/>
        <pt x="200" y="-8" on="0"/>
        <pt x="140" y="80" on="1"/>
        <pt x="140" y="-198" on="1"/>
        <pt x="65" y="-198" on="1"/>
        <pt x="65" y="700" on="1"/>
        <pt x="140" y="700" on="1"/>
      </contour>
      <contour>
        <pt x="309" y="60" on="1"/>
        <pt x="389" y="60" on="0"/>
        <pt x="439" y="116" on="1"/>
        <pt x="486" y="169" on="0"/>
        <pt x="486" y="250" on="1"/>
        <pt x="486" y="331" on="0"/>
        <pt x="439" y="384" on="1"/>
        <pt x="389" y="440" on="0"/>
        <pt x="309" y="440" on="1"/>
        <pt x="228" y="440" on="0"/>
        <pt x="181" y="384" on="1"/>
        <pt x="136" y="331" on="0"/>
        <pt x="136" y="250" on="1"/>
        <pt x="136" y="169" on="0"/>
        <pt x="181" y="116" on="1"/>
        <pt x="228" y="60" on="0"/>
      </contour>
    </TTGlyph>
    <TTGlyph name="three" xMin="41" yMin="-8" xMax="502" yMax="670">
      <contour>
        <pt x="380" y="353" on="1"/>
        <pt x="438" y="331" on="0"/>
        <pt x="502" y="244" on="0"/>
        <pt x="502" y="146" on="0"/>
        <pt x="467" y="73" on="0"/>
        <pt x="436" y="47" on="1"/>
        <pt x="372" y="-8" on="0"/>
        <pt x="277" y="-8" on="1"/>
        <pt x="183" y="-8" on="0"/>
        <pt x="116" y="45" on="1"/>
        <pt x="49" y="99" on="0"/>
        <pt x="41" y="175" on="1"/>
        <pt x="117" y="175" on="1"/>
        <pt x="125" y="129" on="0"/>
        <pt x="170" y="97" on="1"/>
        <pt x="216" y="65" on="0"/>
        <pt x="277" y="65" on="1"/>
        <pt x="346" y="65" on="0"/>
        <pt x="388" y="101" on="1"/>
        <pt x="427" y="135" on="0"/>
        <pt x="427" y="188" on="1"/>
        <pt x="427" y="240" on="0"/>
        <pt x="387" y="276" on="1"/>
        <pt x="345" y="314" on="0"/>
        <pt x="284" y="314" on="1"/>
        <pt x="208" y="314" on="1"/>
        <pt x="208" y="383" on="1"/>
        <pt x="275" y="383" on="1"/>
        <pt x="327" y="383" on="0"/>
        <pt x="366" y="413" on="1"/>
        <pt x="405" y="443" on="0"/>
        <pt x="405" y="539" on="0"/>
        <pt x="339" y="597" on="0"/>
        <pt x="212" y="597" on="0"/>
        <pt x="139" y="541" on="0"/>
        <pt x="132" y="503" on="1"/>
        <pt x="59" y="503" on="1"/>
        <pt x="66" y="569" on="0"/>
        <pt x="120" y="617" on="1"/>
        <pt x="180" y="670" on="0"/>
        <pt x="271" y="670" on="1"/>
        <pt x="367" y="670" on="0"/>
        <pt x="424" y="620" on="1"/>
        <pt x="480" y="572" on="0"/>
        <pt x="480" y="494" on="1"/>
        <pt x="480" y="448" on="0"/>
        <pt x="446" y="404" on="1"/>
        <pt x="416" y="363" on="0"/>
      </contour>
    </TTGlyph>
    <TTGlyph name="threequarters" xMin="43" yMin="-14" xMax="744" yMax="674">
      <contour>
        <pt x="744" y="137" on="1"/>
        <pt x="744" y="88" on="1"/>
        <pt x="698" y="88" on="1"/>
        <pt x="698" y="0" on="1"/>
        <pt x="643" y="0" on="1"/>
        <pt x="643" y="88" on="1"/>
        <pt x="478" y="88" on="1"/>
        <pt x="478" y="137" on="1"/>
        <pt x="627" y="361" on="1"/>
        <pt x="698" y="361" on="1"/>
        <pt x="698" y="137" on="1"/>
      </contour>
      <contour>
        <pt x="643" y="301" on="1"/>
        <pt x="534" y="137" on="1"/>
        <pt x="643" y="137" on="1"/>
      </contour>
      <contour>
        <pt x="172" y="-14" on="1"/>
        <pt x="592" y="674" on="1"/>
        <pt x="656" y="674" on="1"/>
        <pt x="236" y="-14" on="1"/>
      </contour>
      <contour>
        <pt x="238" y="492" on="1"/>
        <pt x="270" y="478" on="0"/>
        <pt x="300" y="435" on="0"/>
        <pt x="300" y="375" on="0"/>
        <pt x="279" y="337" on="0"/>
        <pt x="262" y="324" on="1"/>
        <pt x="226" y="296" on="0"/>
        <pt x="175" y="296" on="1"/>
        <pt x="123" y="296" on="0"/>
        <pt x="86" y="328" on="1"/>
        <pt x="47" y="361" on="0"/>
        <pt x="43" y="407" on="1"/>
        <pt x="98" y="407" on="1"/>
        <pt x="103" y="383" on="0"/>
        <pt x="146" y="347" on="0"/>
        <pt x="208" y="347" on="0"/>
        <pt x="245" y="383" on="0"/>
        <pt x="245" y="406" on="1"/>
        <pt x="245" y="429" on="0"/>
        <pt x="212" y="467" on="0"/>
        <pt x="178" y="467" on="1"/>
        <pt x="131" y="467" on="1"/>
        <pt x="131" y="514" on="1"/>
        <pt x="174" y="514" on="1"/>
        <pt x="198" y="514" on="0"/>
        <pt x="234" y="542" on="0"/>
        <pt x="234" y="585" on="0"/>
        <pt x="203" y="614" on="0"/>
        <pt x="144" y="614" on="0"/>
        <pt x="110" y="583" on="0"/>
        <pt x="106" y="563" on="1"/>
        <pt x="52" y="563" on="1"/>
        <pt x="56" y="604" on="0"/>
        <pt x="87" y="634" on="1"/>
        <pt x="121" y="666" on="0"/>
        <pt x="222" y="666" on="0"/>
        <pt x="289" y="619" on="0"/>
        <pt x="289" y="578" on="1"/>
        <pt x="289" y="516" on="0"/>
      </contour>
    </TTGlyph>
    <TTGlyph name="threesuperior" xMin="38" yMin="296" xMax="295" yMax="666">
      <contour>
        <pt x="233" y="492" on="1"/>
        <pt x="265" y="478" on="0"/>
        <pt x="295" y="435" on="0"/>
        <pt x="295" y="375" on="0"/>
        <pt x="274" y="337" on="0"/>
        <pt x="256" y="324" on="1"/>
        <pt x="221" y="296" on="0"/>
        <pt x="170" y="296" on="1"/>
        <pt x="118" y="296" on="0"/>
        <pt x="80" y="328" on="1"/>
        <pt x="42" y="361" on="0"/>
        <pt x="38" y="407" on="1"/>
        <pt x="93" y="407" on="1"/>
        <pt x="98" y="383" on="0"/>
        <pt x="141" y="347" on="0"/>
        <pt x="203" y="347" on="0"/>
        <pt x="240" y="383" on="0"/>
        <pt x="240" y="406" on="1"/>
        <pt x="240" y="429" on="0"/>
        <pt x="207" y="467" on="0"/>
        <pt x="173" y="467" on="1"/>
        <pt x="126" y="467" on="1"/>
        <pt x="126" y="514" on="1"/>
        <pt x="169" y="514" on="1"/>
        <pt x="193" y="514" on="0"/>
        <pt x="229" y="542" on="0"/>
        <pt x="229" y="585" on="0"/>
        <pt x="198" y="614" on="0"/>
        <pt x="139" y="614" on="0"/>
        <pt x="105" y="583" on="0"/>
        <pt x="101" y="563" on="1"/>
        <pt x="47" y="563" on="1"/>
        <pt x="51" y="604" on="0"/>
        <pt x="82" y="634" on="1"/>
        <pt x="116" y="666" on="0"/>
        <pt x="217" y="666" on="0"/>
        <pt x="284" y="619" on="0"/>
        <pt x="284" y="578" on="1"/>
        <pt x="284" y="516" on="0"/>
      </contour>
    </TTGlyph>
    <TTGlyph name="tilde" xMin="71" yMin="569" xMax="384" yMax="668">
      <contour>
        <pt x="152" y="609" on="1"/>
        <pt x="117" y="609" on="0"/>
        <pt x="102" y="570" on="1"/>
        <pt x="71" y="570" on="1"/>
        <pt x="78" y="636" on="0"/>
        <pt x="126" y="660" on="1"/>
        <pt x="144" y="668" on="0"/>
        <pt x="168" y="668" on="1"/>
        <pt x="201" y="668" on="0"/>
        <pt x="257" y="640" on="0"/>
        <pt x="286" y="627" on="0"/>
        <pt x="325" y="627" on="0"/>
        <pt x="348" y="654" on="0"/>
        <pt x="352" y="667" on="1"/>
        <pt x="384" y="667" on="1"/>
        <pt x="368" y="569" on="0"/>
        <pt x="288" y="569" on="1"/>
        <pt x="252" y="569" on="0"/>
        <pt x="198" y="596" on="0"/>
        <pt x="169" y="609" on="0"/>
      </contour>
    </TTGlyph>
    <TTGlyph name="trademark" xMin="62" yMin="313" xMax="740" yMax="662">
      <contour>
        <pt x="62" y="615" on="1"/>
        <pt x="62" y="662" on="1"/>
        <pt x="348" y="662" on="1"/>
        <pt x="348" y="615" on="1"/>
        <pt x="229" y="615" on="1"/>
        <pt x="229" y="313" on="1"/>
        <pt x="180" y="313" on="1"/>
        <pt x="180" y="615" on="1"/>
      </contour>
      <contour>
        <pt x="689" y="662" on="1"/>
        <pt x="740" y="662" on="1"/>
        <pt x="740" y="313" on="1"/>
        <pt x="691" y="313" on="1"/>
        <pt x="691" y="582" on="1"/>
        <pt x="575" y="433" on="1"/>
        <pt x="457" y="582" on="1"/>
        <pt x="457" y="313" on="1"/>
        <pt x="408" y="313" on="1"/>
        <pt x="408" y="662" on="1"/>
        <pt x="460" y="662" on="1"/>
        <pt x="575" y="509" on="1"/>
      </contour>
    </TTGlyph>
    <TTGlyph name="two" xMin="43" yMin="0" xMax="499" yMax="670">
      <contour>
        <pt x="499" y="472" on="1"/>
        <pt x="499" y="429" on="0"/>
        <pt x="448" y="349" on="0"/>
        <pt x="370" y="279" on="0"/>
        <pt x="279" y="217" on="0"/>
        <pt x="199" y="158" on="0"/>
        <pt x="144" y="101" on="0"/>
        <pt x="141" y="72" on="1"/>
        <pt x="497" y="72" on="1"/>
        <pt x="497" y="0" on="1"/>
        <pt x="52" y="0" on="1"/>
        <pt x="52" y="41" on="1"/>
        <pt x="52" y="90" on="0"/>
        <pt x="107" y="171" on="0"/>
        <pt x="190" y="242" on="0"/>
        <pt x="286" y="305" on="0"/>
        <pt x="369" y="369" on="0"/>
        <pt x="424" y="435" on="0"/>
        <pt x="424" y="473" on="1"/>
        <pt x="424" y="531" on="0"/>
        <pt x="347" y="597" on="0"/>
        <pt x="209" y="597" on="0"/>
        <pt x="126" y="538" on="0"/>
        <pt x="118" y="482" on="1"/>
        <pt x="43" y="482" on="1"/>
        <pt x="51" y="566" on="0"/>
        <pt x="116" y="618" on="1"/>
        <pt x="181" y="670" on="0"/>
        <pt x="273" y="670" on="1"/>
        <pt x="378" y="670" on="0"/>
        <pt x="440" y="614" on="1"/>
        <pt x="499" y="560" on="0"/>
      </contour>
    </TTGlyph>
    <TTGlyph name="twosuperior" xMin="46" yMin="300" xMax="301" yMax="665">
      <contour>
        <pt x="301" y="556" on="1"/>
        <pt x="301" y="487" on="0"/>
        <pt x="221" y="434" on="1"/>
        <pt x="199" y="420" on="0"/>
        <pt x="178" y="406" on="1"/>
        <pt x="128" y="373" on="0"/>
        <pt x="116" y="352" on="1"/>
        <pt x="301" y="352" on="1"/>
        <pt x="301" y="300" on="1"/>
        <pt x="52" y="300" on="1"/>
        <pt x="52" y="329" on="1"/>
        <pt x="52" y="389" on="0"/>
        <pt x="149" y="451" on="1"/>
        <pt x="207" y="488" on="0"/>
        <pt x="246" y="534" on="0"/>
        <pt x="246" y="582" on="0"/>
        <pt x="208" y="612" on="0"/>
        <pt x="148" y="612" on="0"/>
        <pt x="107" y="575" on="0"/>
        <pt x="102" y="548" on="1"/>
        <pt x="46" y="548" on="1"/>
        <pt x="53" y="598" on="0"/>
        <pt x="124" y="665" on="0"/>
        <pt x="235" y="665" on="0"/>
        <pt x="301" y="603" on="0"/>
      </contour>
    </TTGlyph>
    <TTGlyph name="u" xMin="60" yMin="-8" xMax="501" yMax="500">
      <contour>
        <pt x="426" y="0" on="1"/>
        <pt x="426" y="78" on="1"/>
        <pt x="399" y="42" on="0"/>
        <pt x="321" y="-8" on="0"/>
        <pt x="221" y="-8" on="0"/>
        <pt x="149" y="20" on="0"/>
        <pt x="122" y="48" on="1"/>
        <pt x="60" y="109" on="0"/>
        <pt x="60" y="209" on="1"/>
        <pt x="60" y="500" on="1"/>
        <pt x="135" y="500" on="1"/>
        <pt x="135" y="211" on="1"/>
        <pt x="135" y="142" on="0"/>
        <pt x="213" y="60" on="0"/>
        <pt x="275" y="60" on="1"/>
        <pt x="338" y="60" on="0"/>
        <pt x="382" y="102" on="1"/>
        <pt x="426" y="145" on="0"/>
        <pt x="426" y="212" on="1"/>
        <pt x="426" y="500" on="1"/>
        <pt x="501" y="500" on="1"/>
        <pt x="501" y="0" on="1"/>
      </contour>
    </TTGlyph>
    <TTGlyph name="uacute" xMin="60" yMin="-8" xMax="501" yMax="675">
      <component glyphName="u" x="0" y="0" flags="0x1204"/>
      <component glyphName="acute" x="129" y="0" flags="0x1004"/>
    </TTGlyph>
    <TTGlyph name="ucircumflex" xMin="60" yMin="-8" xMax="501" yMax="675">
      <component glyphName="u" x="0" y="0" flags="0x1204"/>
      <component glyphName="circumflex" x="90" y="0" flags="0x1004"/>
    </TTGlyph>
    <TTGlyph name="udieresis" xMin="60" yMin="-8" xMax="501" yMax="662">
      <component glyphName="u" x="0" y="0" flags="0x1204"/>
      <component glyphName="dieresis" x="83" y="0" flags="0x1004"/>
    </TTGlyph>
    <TTGlyph name="ugrave" xMin="60" yMin="-8" xMax="501" yMax="675">
      <component glyphName="u" x="0" y="0" flags="0x1204"/>
      <component glyphName="grave" x="82" y="0" flags="0x1004"/>
    </TTGlyph>
    <TTGlyph name="underscore" xMin="50" yMin="-128" xMax="550" yMax="-73">
      <contour>
        <pt x="50" y="-73" on="1"/>
        <pt x="550" y="-73" on="1"/>
        <pt x="550" y="-128" on="1"/>
        <pt x="50" y="-128" on="1"/>
      </contour>
    </TTGlyph>
    <TTGlyph name="v" xMin="5" yMin="0" xMax="484" yMax="500">
      <contour>
        <pt x="484" y="500" on="1"/>
        <pt x="289" y="0" on="1"/>
        <pt x="201" y="0" on="1"/>
        <pt x="5" y="500" on="1"/>
        <pt x="87" y="500" on="1"/>
        <pt x="245" y="80" on="1"/>
        <pt x="402" y="500" on="1"/>
      </contour>
    </TTGlyph>
    <TTGlyph name="w" xMin="9" yMin="0" xMax="745" yMax="500">
      <contour>
        <pt x="377" y="399" on="1"/>
        <pt x="252" y="0" on="1"/>
        <pt x="166" y="0" on="1"/>
        <pt x="9" y="500" on="1"/>
        <pt x="89" y="500" on="1"/>
        <pt x="209" y="93" on="1"/>
        <pt x="336" y="500" on="1"/>
        <pt x="418" y="500" on="1"/>
        <pt x="545" y="93" on="1"/>
        <pt x="665" y="500" on="1"/>
        <pt x="745" y="500" on="1"/>
        <pt x="588" y="0" on="1"/>
        <pt x="502" y="0" on="1"/>
      </contour>
    </TTGlyph>
    <TTGlyph name="x" xMin="4" yMin="0" xMax="478" yMax="500">
      <contour>
        <pt x="284" y="258" on="1"/>
        <pt x="478" y="0" on="1"/>
        <pt x="382" y="0" on="1"/>
        <pt x="241" y="204" on="1"/>
        <pt x="99" y="0" on="1"/>
        <pt x="4" y="0" on="1"/>
        <pt x="197" y="258" on="1"/>
        <pt x="16" y="500" on="1"/>
        <pt x="112" y="500" on="1"/>
        <pt x="241" y="311" on="1"/>
        <pt x="369" y="500" on="1"/>
        <pt x="465" y="500" on="1"/>
      </contour>
    </TTGlyph>
    <TTGlyph name="y" xMin="4" yMin="-198" xMax="494" yMax="500">
      <contour>
        <pt x="198" y="-198" on="1"/>
        <pt x="117" y="-198" on="1"/>
        <pt x="208" y="7" on="1"/>
        <pt x="4" y="500" on="1"/>
        <pt x="87" y="500" on="1"/>
        <pt x="248" y="90" on="1"/>
        <pt x="412" y="500" on="1"/>
        <pt x="494" y="500" on="1"/>
      </contour>
    </TTGlyph>
    <TTGlyph name="yacute" xMin="4" yMin="-198" xMax="494" yMax="675">
      <component glyphName="y" x="0" y="0" flags="0x1204"/>
      <component glyphName="acute" x="103" y="0" flags="0x1004"/>
    </TTGlyph>
    <TTGlyph name="ydieresis" xMin="4" yMin="-198" xMax="494" yMax="662">
      <component glyphName="y" x="0" y="0" flags="0x1204"/>
      <component glyphName="dieresis" x="52" y="0" flags="0x1004"/>
    </TTGlyph>
    <TTGlyph name="yen" xMin="37" yMin="0" xMax="620" yMax="662">
      <contour>
        <pt x="98" y="190" on="1"/>
        <pt x="291" y="190" on="1"/>
        <pt x="291" y="262" on="1"/>
        <pt x="274" y="289" on="1"/>
        <pt x="98" y="289" on="1"/>
        <pt x="98" y="354" on="1"/>
        <pt x="232" y="354" on="1"/>
        <pt x="37" y="662" on="1"/>
        <pt x="128" y="662" on="1"/>
        <pt x="328" y="340" on="1"/>
        <pt x="529" y="662" on="1"/>
        <pt x="620" y="662" on="1"/>
        <pt x="424" y="354" on="1"/>
        <pt x="559" y="354" on="1"/>
        <pt x="559" y="289" on="1"/>
        <pt x="383" y="289" on="1"/>
        <pt x="366" y="262" on="1"/>
        <pt x="366" y="190" on="1"/>
        <pt x="559" y="190" on="1"/>
        <pt x="559" y="125" on="1"/>
        <pt x="366" y="125" on="1"/>
        <pt x="366" y="0" on="1"/>
        <pt x="291" y="0" on="1"/>
        <pt x="291" y="125" on="1"/>
        <pt x="98" y="125" on="1"/>
      </contour>
    </TTGlyph>
    <TTGlyph name="z" xMin="31" yMin="0" xMax="425" yMax="500">
      <contour>
        <pt x="125" y="70" on="1"/>
        <pt x="425" y="70" on="1"/>
        <pt x="425" y="0" on="1"/>
        <pt x="31" y="0" on="1"/>
        <pt x="31" y="71" on="1"/>
        <pt x="330" y="431" on="1"/>
        <pt x="35" y="431" on="1"/>
        <pt x="35" y="500" on="1"/>
        <pt x="425" y="500" on="1"/>
        <pt x="425" y="430" on="1"/>
      </contour>
    </TTGlyph>
    <TTGlyph name="zero" xMin="43" yMin="-8" xMax="507" yMax="670">
      <contour>
        <pt x="43" y="331" on="1"/>
        <pt x="43" y="670" on="0"/>
        <pt x="275" y="670" on="1"/>
        <pt x="401" y="668" on="0"/>
        <pt x="460" y="564" on="1"/>
        <pt x="507" y="480" on="0"/>
        <pt x="507" y="331" on="1"/>
        <pt x="507" y="-8" on="0"/>
        <pt x="275" y="-8" on="1"/>
        <pt x="43" y="-8" on="0"/>
      </contour>
      <contour>
        <pt x="275" y="65" on="1"/>
        <pt x="407" y="68" on="0"/>
        <pt x="426" y="238" on="1"/>
        <pt x="432" y="285" on="0"/>
        <pt x="432" y="331" on="1"/>
        <pt x="432" y="465" on="0"/>
        <pt x="358" y="597" on="0"/>
        <pt x="275" y="597" on="1"/>
        <pt x="192" y="597" on="0"/>
        <pt x="118" y="465" on="0"/>
        <pt x="118" y="331" on="1"/>
        <pt x="118" y="197" on="0"/>
        <pt x="192" y="65" on="0"/>
      </contour>
    </TTGlyph>
</ttFont>
